<?xml version="1.0" encoding="UTF-8" standalone="no"?>
<!DOCTYPE svg PUBLIC "-//W3C//DTD SVG 1.1//EN" "http://www.w3.org/Graphics/SVG/1.1/DTD/svg11.dtd">
<svg width="100%" height="100%" viewBox="0 0 2400 2400" version="1.1" xmlns="http://www.w3.org/2000/svg" xmlns:xlink="http://www.w3.org/1999/xlink" xml:space="preserve" xmlns:serif="http://www.serif.com/" style="fill-rule:evenodd;clip-rule:evenodd;stroke-linejoin:round;stroke-miterlimit:2;">
    <g transform="matrix(1.08049,0,0,1.08049,-97.2013,-94.6275)">
        <g transform="matrix(1.71681,0,0,1.71681,-185.112,-841.447)">
            <path d="M817.544,587.218C1148.4,588.863 1433.1,860.686 1433.1,1191.55C1433.1,1522.4 1137.63,1762.57 806.77,1762.57C475.911,1762.57 191.661,1518.61 189.348,1187.76C186.976,848.621 489.863,585.589 817.544,587.218ZM1057.17,825.859C1005.58,826.471 957.606,841.673 920.889,871.825C873.387,910.833 841.86,964.224 842.635,1029.57C844.01,1145.42 941.459,1234.1 1059.81,1232.7C1178.15,1231.3 1273.37,1140.33 1272,1024.47C1270.62,908.621 1175.52,824.455 1057.17,825.859ZM554.467,825.859C436.122,824.455 341.012,908.621 339.638,1024.47C338.264,1140.33 433.487,1231.3 551.833,1232.7C670.179,1234.1 767.628,1145.42 769.002,1029.57C769.778,964.224 738.251,910.833 690.749,871.825C654.032,841.673 606.062,826.471 554.467,825.859Z"/>
        </g>
        <g transform="matrix(-4.14761,-0.00182359,0.00914571,4.28911,7390.12,-2956.66)">
            <path d="M1426.3,881.394C1411.46,881.394 1399.42,893.441 1399.42,908.278C1399.42,923.116 1411.46,935.162 1426.3,935.162C1441.14,935.162 1453.18,923.116 1453.18,908.278C1453.18,893.441 1441.14,881.394 1426.3,881.394ZM1431.46,889.62C1436.05,889.62 1439.77,893.352 1439.78,897.949C1439.79,902.545 1436.08,906.277 1431.49,906.277C1426.91,906.277 1423.18,902.545 1423.17,897.949C1423.16,893.352 1426.88,889.62 1431.46,889.62Z"/>
        </g>
        <g transform="matrix(4.14761,-0.00182359,-0.00914571,4.28911,-4993.46,-2956.66)">
            <path d="M1426.3,881.394C1441.14,881.394 1453.18,893.441 1453.18,908.278C1453.18,923.116 1441.14,935.162 1426.3,935.162C1411.46,935.162 1399.42,923.116 1399.42,908.278C1399.42,893.441 1411.46,881.394 1426.3,881.394ZM1431.46,889.62C1426.88,889.62 1423.16,893.352 1423.17,897.949C1423.18,902.545 1426.91,906.277 1431.49,906.277C1436.08,906.277 1439.79,902.545 1439.78,897.949C1439.77,893.352 1436.05,889.62 1431.46,889.62Z"/>
        </g>
    </g>
</svg>
