<?xml version="1.0" encoding="UTF-8" standalone="no"?>
<!DOCTYPE svg PUBLIC "-//W3C//DTD SVG 1.1//EN" "http://www.w3.org/Graphics/SVG/1.1/DTD/svg11.dtd">
<svg width="100%" height="100%" viewBox="0 0 2400 2400" version="1.1" xmlns="http://www.w3.org/2000/svg" xmlns:xlink="http://www.w3.org/1999/xlink" xml:space="preserve" xmlns:serif="http://www.serif.com/" style="fill-rule:evenodd;clip-rule:evenodd;stroke-linejoin:round;stroke-miterlimit:2;">
    <g transform="matrix(1,0,0,1,-10.369,-464.61)">
        <path d="M849.796,1985.32L732.442,1982.63C698.4,1982.63 635.692,1982.63 603.442,1985.32L603.442,1957.55C627.629,1957.55 677.796,1957.55 677.796,1930.67C677.796,1927.09 676.004,1921.71 675.109,1918.13L627.629,1781.07L406.359,1781.07L365.15,1898.42C364.254,1900.21 363.359,1909.17 363.359,1911.86C363.359,1935.15 385.754,1957.55 430.546,1957.55L430.546,1985.32L327.525,1982.63L236.15,1985.32L236.15,1957.55C284.525,1956.65 320.359,1943.21 336.484,1897.53L521.921,1361.82C526.4,1349.28 529.088,1343.9 543.421,1343.9C557.754,1343.9 559.546,1350.17 564.025,1361.82L757.525,1921.71C767.379,1951.28 779.921,1957.55 833.671,1957.55L849.796,1957.55L849.796,1985.32ZM617.775,1753.3L516.546,1462.15L416.213,1753.3L617.775,1753.3ZM1520.78,1401.24C1428.5,1401.24 1428.5,1443.34 1428.5,1467.53L1428.5,1962.03C1428.5,1979.05 1428.5,1985.32 1415.96,1985.32C1409.69,1985.32 1408.8,1984.42 1400.73,1973.67L1035.23,1436.17C1031.65,1430.8 1030.75,1429.9 1026.28,1425.42L1026.28,1891.26C1026.28,1915.44 1026.28,1957.55 1118.55,1957.55L1118.55,1985.32L1013.73,1982.63L908.921,1985.32L908.921,1957.55C1001.19,1957.55 1001.19,1915.44 1001.19,1891.26L1001.19,1423.63C1001.19,1406.61 1000.3,1405.71 979.692,1403.03C966.254,1402.13 948.338,1401.24 934.9,1401.24L908.921,1401.24L908.921,1373.46L1061.21,1373.46C1078.23,1373.46 1079.13,1374.36 1087.19,1385.11L1403.42,1850.05L1403.42,1467.53C1403.42,1443.34 1403.42,1401.24 1311.15,1401.24L1311.15,1373.46L1415.96,1376.15L1520.78,1373.46L1520.78,1401.24ZM2184.59,1684.32C2184.59,1852.74 2060.96,1985.32 1910.46,1985.32L1582.59,1985.32L1582.59,1957.55L1604.09,1957.55C1673.07,1957.55 1674.86,1947.69 1674.86,1915.44L1674.86,1443.34C1674.86,1411.09 1673.07,1401.24 1604.09,1401.24L1582.59,1401.24L1582.59,1373.46L1910.46,1373.46C2063.65,1373.46 2184.59,1514.11 2184.59,1684.32ZM2095,1684.32C2095,1614.44 2086.94,1537.4 2048.42,1484.55C2002.73,1420.94 1940.92,1401.24 1885.38,1401.24L1795.8,1401.24C1753.69,1401.24 1751.9,1407.51 1751.9,1437.07L1751.9,1921.71C1751.9,1951.28 1753.69,1957.55 1795.8,1957.55L1886.28,1957.55C1976.75,1957.55 2027.82,1905.59 2045.73,1881.4C2077.98,1837.51 2095,1783.76 2095,1684.32Z" style="fill:rgb(26,26,26);"/>
        <path d="M829.261,1874.16C830.772,1874.19 832.258,1874.21 833.671,1874.21L849.796,1874.21C860.206,1874.21 870.171,1876.12 879.359,1879.61C888.546,1876.12 898.511,1874.21 908.921,1874.21C911.834,1874.21 914.891,1874.06 917.859,1873.83L917.859,1484.57L908.921,1484.57C862.897,1484.57 825.588,1447.26 825.588,1401.24L825.588,1373.46C825.588,1327.44 862.897,1290.13 908.921,1290.13L1061.21,1290.13L1090.57,1292.48L1112.8,1299.74L1133.92,1313.22L1153.86,1335.11C1154.63,1336.14 1155.38,1337.18 1156.1,1338.24L1320.09,1579.35L1320.09,1484.95C1317.12,1484.72 1314.06,1484.57 1311.15,1484.57C1265.13,1484.57 1227.82,1447.26 1227.82,1401.24L1227.82,1373.46C1227.82,1350.99 1236.89,1329.47 1252.99,1313.79C1269.08,1298.1 1290.82,1289.58 1313.29,1290.16L1415.96,1292.79L1518.64,1290.16C1530.04,1289.87 1541.26,1291.92 1551.65,1296.06C1561.22,1292.24 1571.66,1290.13 1582.59,1290.13L1910.46,1290.13C2107.14,1290.13 2267.92,1465.79 2267.92,1684.32C2267.92,1901.45 2104.49,2068.65 1910.46,2068.65L1582.59,2068.65C1545.06,2068.65 1513.33,2043.85 1502.89,2009.74L1491.27,2033.58L1475.45,2049.24L1457.27,2060.13L1437.5,2066.52L1415.96,2068.65L1394.74,2066.52L1370.59,2057.62L1350.55,2043.01L1334.07,2023.67C1333.3,2022.64 1332.55,2021.6 1331.82,2020.53L1109.61,1693.75L1109.61,1873.83C1112.58,1874.06 1115.63,1874.21 1118.55,1874.21C1164.57,1874.21 1201.88,1911.52 1201.88,1957.55L1201.88,1985.32C1201.88,2007.79 1192.8,2029.31 1176.71,2045C1160.62,2060.68 1138.87,2069.2 1116.41,2068.62L1013.73,2065.99L911.057,2068.62C900.132,2068.91 889.376,2067.03 879.359,2063.23C869.412,2067.01 858.736,2068.88 847.888,2068.63L731.488,2065.96C699.067,2065.96 640.583,2065.85 610.362,2068.36C587.139,2070.3 564.165,2062.42 547.016,2046.64C529.867,2030.86 520.109,2008.62 520.109,1985.32L520.109,1957.55C520.109,1922.04 542.32,1891.71 573.609,1879.71L568.305,1864.4L465.418,1864.4L460.081,1879.6C491.526,1891.52 513.879,1921.92 513.879,1957.55L513.879,1985.32C513.879,2007.8 504.799,2029.32 488.698,2045.01C472.598,2060.69 450.843,2069.21 428.373,2068.62L327.664,2066L238.6,2068.62C216.084,2069.28 194.258,2060.8 178.097,2045.1C161.936,2029.41 152.817,2007.85 152.817,1985.32L152.817,1957.55C152.817,1912.12 189.193,1875.07 234.607,1874.23C240.311,1874.12 245.724,1873.8 250.802,1873.01C253.657,1872.56 256.752,1872.85 257.868,1869.88L443.172,1334.56C443.261,1334.3 443.351,1334.05 443.443,1333.79L461.956,1298.36L486.03,1276.41L512.315,1264.65L543.421,1260.57L577.319,1265.65L604.419,1279.34L626.82,1302.09L641.804,1331.9C642.147,1332.8 642.475,1333.69 642.788,1334.6L829.261,1874.16ZM1511.84,1913.49C1526.56,1889.91 1552.74,1874.21 1582.59,1874.21L1591.53,1874.21L1591.53,1484.57L1582.59,1484.57C1571.67,1484.57 1561.24,1482.47 1551.68,1478.65C1542.12,1482.47 1531.69,1484.57 1520.78,1484.57C1517.86,1484.57 1514.81,1484.72 1511.84,1484.95L1511.84,1913.49ZM2184.59,1684.32C2184.59,1514.11 2063.65,1373.46 1910.46,1373.46L1582.59,1373.46L1582.59,1401.24L1604.09,1401.24C1673.07,1401.24 1674.86,1411.09 1674.86,1443.34L1674.86,1915.44C1674.86,1947.69 1673.07,1957.55 1604.09,1957.55L1582.59,1957.55L1582.59,1985.32L1910.46,1985.32C2060.96,1985.32 2184.59,1852.74 2184.59,1684.32ZM2095,1684.32C2095,1783.76 2077.98,1837.51 2045.73,1881.4C2027.82,1905.59 1976.75,1957.55 1886.28,1957.55L1795.8,1957.55C1753.69,1957.55 1751.9,1951.28 1751.9,1921.71L1751.9,1437.07C1751.9,1407.51 1753.69,1401.24 1795.8,1401.24L1885.38,1401.24C1940.92,1401.24 2002.73,1420.94 2048.42,1484.55C2086.94,1537.4 2095,1614.44 2095,1684.32ZM1835.23,1874.21L1886.28,1874.21C1938.22,1874.21 1968.27,1845.91 1978.72,1831.87C2002.65,1799.19 2011.67,1758.29 2011.67,1684.32C2011.67,1631.94 2009.95,1573.25 1981.08,1533.63L1980.74,1533.16C1954.03,1495.99 1917.85,1484.57 1885.38,1484.57L1835.23,1484.57L1835.23,1874.21ZM1520.78,1401.24L1520.78,1373.46L1415.96,1376.15L1311.15,1373.46L1311.15,1401.24C1403.42,1401.24 1403.42,1443.34 1403.42,1467.53L1403.42,1850.05L1087.19,1385.11C1079.13,1374.36 1078.23,1373.46 1061.21,1373.46L908.921,1373.46L908.921,1401.24L934.9,1401.24C948.338,1401.24 966.254,1402.13 979.692,1403.03C1000.3,1405.71 1001.19,1406.61 1001.19,1423.63L1001.19,1891.26C1001.19,1915.44 1001.19,1957.55 908.921,1957.55L908.921,1985.32L1013.73,1982.63L1118.55,1985.32L1118.55,1957.55C1026.28,1957.55 1026.28,1915.44 1026.28,1891.26L1026.28,1425.42C1030.75,1429.9 1031.65,1430.8 1035.23,1436.17L1400.73,1973.67C1408.8,1984.42 1409.69,1985.32 1415.96,1985.32C1428.5,1985.32 1428.5,1979.05 1428.5,1962.03L1428.5,1467.53C1428.5,1443.34 1428.5,1401.24 1520.78,1401.24ZM849.796,1985.32L849.796,1957.55L833.671,1957.55C779.921,1957.55 767.379,1951.28 757.525,1921.71L564.025,1361.82C559.546,1350.17 557.754,1343.9 543.421,1343.9C529.088,1343.9 526.4,1349.28 521.921,1361.82L336.484,1897.53C320.359,1943.21 284.525,1956.65 236.15,1957.55L236.15,1985.32L327.525,1982.63L430.546,1985.32L430.546,1957.55C385.754,1957.55 363.359,1935.15 363.359,1911.86C363.359,1909.17 364.254,1900.21 365.15,1898.42L406.359,1781.07L627.629,1781.07L675.109,1918.13C676.004,1921.71 677.796,1927.09 677.796,1930.67C677.796,1957.55 627.629,1957.55 603.442,1957.55L603.442,1985.32C635.692,1982.63 698.4,1982.63 732.442,1982.63L849.796,1985.32ZM617.775,1753.3L416.213,1753.3L516.546,1462.15L617.775,1753.3Z" style="fill:white;"/>
    </g>
</svg>
