<?xml version="1.0" encoding="UTF-8" standalone="no"?>
<!DOCTYPE svg PUBLIC "-//W3C//DTD SVG 1.1//EN" "http://www.w3.org/Graphics/SVG/1.1/DTD/svg11.dtd">
<svg width="100%" height="100%" viewBox="0 0 2400 2400" version="1.1" xmlns="http://www.w3.org/2000/svg" xmlns:xlink="http://www.w3.org/1999/xlink" xml:space="preserve" xmlns:serif="http://www.serif.com/" style="fill-rule:evenodd;clip-rule:evenodd;stroke-linecap:round;stroke-linejoin:round;stroke-miterlimit:1.5;">
    <g transform="matrix(1,0,0,1,14.3482,292.612)">
        <path d="M2034.89,493.72C2034.89,606.749 1943.13,698.514 1830.1,698.514L541.867,698.514C428.838,698.514 337.073,606.749 337.073,493.72C337.073,380.691 428.838,288.925 541.867,288.925L1830.1,288.925C1943.13,288.925 2034.89,380.691 2034.89,493.72ZM1989.06,493.72C1989.06,405.987 1917.83,334.759 1830.1,334.759L541.867,334.759C454.134,334.759 382.906,405.987 382.906,493.72C382.906,581.453 454.134,652.681 541.867,652.681L1830.1,652.681C1917.83,652.681 1989.06,581.453 1989.06,493.72ZM2034.89,1208.55C2034.89,1321.58 1943.13,1413.35 1830.1,1413.35L541.867,1413.35C428.838,1413.35 337.073,1321.58 337.073,1208.55C337.073,1095.52 428.838,1003.76 541.867,1003.76L1830.1,1003.76C1943.13,1003.76 2034.89,1095.52 2034.89,1208.55ZM1989.06,1208.55C1989.06,1120.82 1917.83,1049.59 1830.1,1049.59L541.867,1049.59C454.134,1049.59 382.906,1120.82 382.906,1208.55C382.906,1296.28 454.134,1367.51 541.867,1367.51L1830.1,1367.51C1917.83,1367.51 1989.06,1296.28 1989.06,1208.55Z"/>
        <path d="M2139.06,493.72C2139.06,664.24 2000.62,802.681 1830.1,802.681L541.867,802.681C371.347,802.681 232.906,664.24 232.906,493.72C232.906,323.2 371.347,184.759 541.867,184.759L1830.1,184.759C2000.62,184.759 2139.06,323.2 2139.06,493.72ZM2034.89,493.72C2034.89,380.691 1943.13,288.925 1830.1,288.925L541.867,288.925C428.838,288.925 337.073,380.691 337.073,493.72C337.073,606.749 428.838,698.514 541.867,698.514L1830.1,698.514C1943.13,698.514 2034.89,606.749 2034.89,493.72ZM1989.06,493.72C1989.06,581.453 1917.83,652.681 1830.1,652.681L541.867,652.681C454.134,652.681 382.906,581.453 382.906,493.72C382.906,405.987 454.134,334.759 541.867,334.759L1830.1,334.759C1917.83,334.759 1989.06,405.987 1989.06,493.72ZM1884.89,493.72C1884.89,463.478 1860.34,438.925 1830.1,438.925L541.867,438.925C511.625,438.925 487.073,463.478 487.073,493.72C487.073,523.961 511.625,548.514 541.867,548.514L1830.1,548.514C1860.34,548.514 1884.89,523.961 1884.89,493.72ZM2139.06,1208.55C2139.06,1379.07 2000.62,1517.51 1830.1,1517.51L541.867,1517.51C371.347,1517.51 232.906,1379.07 232.906,1208.55C232.906,1038.03 371.347,899.59 541.867,899.59L1830.1,899.59C2000.62,899.59 2139.06,1038.03 2139.06,1208.55ZM2034.89,1208.55C2034.89,1095.52 1943.13,1003.76 1830.1,1003.76L541.867,1003.76C428.838,1003.76 337.073,1095.52 337.073,1208.55C337.073,1321.58 428.838,1413.35 541.867,1413.35L1830.1,1413.35C1943.13,1413.35 2034.89,1321.58 2034.89,1208.55ZM1989.06,1208.55C1989.06,1296.28 1917.83,1367.51 1830.1,1367.51L541.867,1367.51C454.134,1367.51 382.906,1296.28 382.906,1208.55C382.906,1120.82 454.134,1049.59 541.867,1049.59L1830.1,1049.59C1917.83,1049.59 1989.06,1120.82 1989.06,1208.55ZM1884.89,1208.55C1884.89,1178.31 1860.34,1153.76 1830.1,1153.76L541.867,1153.76C511.625,1153.76 487.073,1178.31 487.073,1208.55C487.073,1238.79 511.625,1263.35 541.867,1263.35L1830.1,1263.35C1860.34,1263.35 1884.89,1238.79 1884.89,1208.55Z" style="fill:white;"/>
    </g>
    <g transform="matrix(1,0,0,1,14.3482,292.612)">
        <path d="M2011.98,493.72C2011.98,594.101 1930.48,675.597 1830.1,675.597L541.867,675.597C441.486,675.597 359.99,594.101 359.99,493.72C359.99,393.339 441.486,311.842 541.867,311.842L1830.1,311.842C1930.48,311.842 2011.98,393.339 2011.98,493.72Z" style="fill:rgb(248,200,0);stroke:rgb(54,53,53);stroke-width:45.83px;"/>
    </g>
    <g transform="matrix(1,0,0,1,14.3482,1007.44)">
        <path d="M2011.98,493.72C2011.98,594.101 1930.48,675.597 1830.1,675.597L541.867,675.597C441.486,675.597 359.99,594.101 359.99,493.72C359.99,393.339 441.486,311.842 541.867,311.842L1830.1,311.842C1930.48,311.842 2011.98,393.339 2011.98,493.72Z" style="fill:rgb(248,200,0);stroke:rgb(54,53,53);stroke-width:45.83px;"/>
    </g>
</svg>
