<?xml version="1.0" encoding="UTF-8" standalone="no"?>
<!DOCTYPE svg PUBLIC "-//W3C//DTD SVG 1.1//EN" "http://www.w3.org/Graphics/SVG/1.1/DTD/svg11.dtd">
<svg width="100%" height="100%" viewBox="0 0 2400 2400" version="1.1" xmlns="http://www.w3.org/2000/svg" xmlns:xlink="http://www.w3.org/1999/xlink" xml:space="preserve" xmlns:serif="http://www.serif.com/" style="fill-rule:evenodd;clip-rule:evenodd;stroke-linejoin:round;stroke-miterlimit:2;">
    <g transform="matrix(0.917185,0.398461,-0.398461,0.917185,467.848,-539.963)">
        <path d="M1057.55,1087.69L777.824,1196.54C757.786,1205.25 588.051,1272.33 579.346,1252.29C570.641,1232.25 746.137,1148.96 766.174,1140.25L1026.86,1014.72L737.037,1001.46C715.19,1001.46 517.617,996.979 517.617,975.132C517.617,953.286 720.505,948.1 742.352,948.1L1009.6,935.549L767.728,826.369C747.404,818.355 573.277,744.453 581.29,724.129C589.303,703.805 768.949,772.023 789.273,780.037L1047.96,865.577L851.609,651.524C836.161,636.076 714.404,506.933 729.852,491.485C745.3,476.037 877.466,602.334 892.914,617.782L1113.29,818.942L988.07,494.743C979.365,474.705 919.95,329.399 939.987,320.694C960.024,311.989 1023.64,454.739 1032.34,474.776L1180.01,773.85L1193.33,443.95C1193.33,422.104 1197.75,264.388 1219.6,264.388C1241.44,264.388 1244.87,441.003 1244.87,462.85L1259.18,776.431L1374.7,499.436C1382.72,479.112 1461.91,310.6 1482.23,318.613C1502.56,326.626 1430.98,515.247 1422.97,535.571L1331.51,808.826L1564.76,591.877C1580.2,576.429 1702.32,463.095 1717.77,478.543C1733.22,493.991 1613.99,620.73 1598.55,636.178L1395.85,856.436L1691.23,740.12C1711.26,731.415 1851.1,677.998 1859.8,698.036C1868.51,718.073 1754.89,771.896 1734.86,780.601L1408.15,937.408L1723.24,947.024C1745.08,947.024 1912.88,955.144 1912.88,976.991C1912.88,998.838 1736.6,1000.86 1714.75,1000.86L1447.13,1016.57L1696.63,1128.62C1716.96,1136.64 1850.2,1194.56 1842.18,1214.88C1834.17,1235.21 1686.13,1174.65 1665.8,1166.64L1376.61,1073.87L1572.28,1286.06C1587.73,1301.51 1706.23,1428.57 1690.78,1444.02C1675.33,1459.46 1550.77,1332.9 1535.32,1317.46L1343.89,1153.1L1436.98,1400.14C1445.68,1420.18 1517.78,1597.88 1497.74,1606.58C1477.7,1615.29 1399.49,1447.11 1390.79,1427.08L1258.37,1154.93L1248.52,1470.41C1248.52,1492.26 1240.63,1666.03 1218.78,1666.03C1196.93,1666.03 1189.56,1480.77 1189.56,1458.92L1179.2,1204.61L1089.97,1404.29C1081.96,1424.62 1008.37,1589.51 988.05,1581.5C967.726,1573.49 1030.86,1405.59 1038.87,1385.27L1121.11,1136.1L925.21,1312.75C909.762,1328.2 776.744,1455.38 761.296,1439.93C745.848,1424.48 886.414,1277 901.862,1261.55L1057.55,1087.69Z" style="fill:rgb(255,214,0);"/>
    </g>
    <g transform="matrix(1,0,0,1,-19,-192.777)">
        <path d="M270.503,949.624C283.151,949.624 293.42,959.893 293.42,972.541C293.42,985.189 283.151,995.457 270.503,995.457L66.218,995.457C53.57,995.457 43.302,985.189 43.302,972.541C43.302,959.893 53.57,949.624 66.218,949.624L270.503,949.624ZM191.509,1018.99C204.157,1018.99 214.425,1029.26 214.425,1041.9C214.425,1054.55 204.157,1064.82 191.509,1064.82L98.872,1064.82C86.224,1064.82 75.955,1054.55 75.955,1041.9C75.955,1029.26 86.224,1018.99 98.872,1018.99L191.509,1018.99ZM234.885,1986.61C247.533,1986.61 257.802,1996.88 257.802,2009.53C257.802,2022.18 247.533,2032.45 234.885,2032.45L86.936,2032.45C74.288,2032.45 64.02,2022.18 64.02,2009.53C64.02,1996.88 74.288,1986.61 86.936,1986.61L234.885,1986.61ZM156.984,1917.81C169.632,1917.81 179.901,1928.08 179.901,1940.73C179.901,1953.38 169.632,1963.64 156.984,1963.64L48,1963.64C35.352,1963.64 25.084,1953.38 25.084,1940.73C25.084,1928.08 35.352,1917.81 48,1917.81L156.984,1917.81ZM2115.37,970.826C2102.72,970.826 2092.45,960.558 2092.45,947.91C2092.45,935.262 2102.72,924.993 2115.37,924.993L2363.24,924.993C2375.88,924.993 2386.15,935.262 2386.15,947.91C2386.15,960.558 2375.88,970.826 2363.24,970.826L2115.37,970.826ZM2205.68,1032.5C2193.03,1032.5 2182.76,1022.23 2182.76,1009.58C2182.76,996.936 2193.03,986.667 2205.68,986.667L2332.57,986.667C2345.22,986.667 2355.49,996.936 2355.49,1009.58C2355.49,1022.23 2345.22,1032.5 2332.57,1032.5L2205.68,1032.5ZM2188.88,2053.32C2176.23,2053.32 2165.96,2043.06 2165.96,2030.41C2165.96,2017.76 2176.23,2007.49 2188.88,2007.49L2311.3,2007.49C2323.95,2007.49 2334.22,2017.76 2334.22,2030.41C2334.22,2043.06 2323.95,2053.32 2311.3,2053.32L2188.88,2053.32ZM2257.36,1983.34C2244.72,1983.34 2234.45,1973.07 2234.45,1960.42C2234.45,1947.78 2244.72,1937.51 2257.36,1937.51L2387.89,1937.51C2400.54,1937.51 2410.81,1947.78 2410.81,1960.42C2410.81,1973.07 2400.54,1983.34 2387.89,1983.34L2257.36,1983.34Z" style="fill:white;"/>
    </g>
    <g transform="matrix(1,0,0,1,-19,-192.777)">
        <path d="M1210.96,1531.06C1197.66,1832.34 948.862,2072.86 644.334,2072.86C331.298,2072.86 77.153,1818.71 77.153,1505.67C77.153,1192.64 331.298,938.492 644.334,938.492C950.623,938.492 1200.53,1181.8 1211.16,1485.52C1224.46,1184.24 1473.26,943.726 1777.79,943.726C2090.82,943.726 2344.97,1197.87 2344.97,1510.91C2344.97,1823.94 2090.82,2078.09 1777.79,2078.09C1471.5,2078.09 1221.59,1834.78 1210.96,1531.06Z" style="fill:none;stroke:white;stroke-width:100px;"/>
    </g>
    <g transform="matrix(0.946132,0,0,0.946132,-137.977,208.454)">
        <path d="M807.827,583.114C1138.69,583.114 1406.24,832.237 1406.24,1163.1C1406.24,1493.95 1137.63,1762.57 806.77,1762.57C475.911,1762.57 217.984,1512.43 217.984,1181.58C217.984,850.718 476.968,583.114 807.827,583.114Z" style="fill:rgb(244,162,97);"/>
        <clipPath id="_clip1">
            <path d="M807.827,583.114C1138.69,583.114 1406.24,832.237 1406.24,1163.1C1406.24,1493.95 1137.63,1762.57 806.77,1762.57C475.911,1762.57 217.984,1512.43 217.984,1181.58C217.984,850.718 476.968,583.114 807.827,583.114Z"/>
        </clipPath>
        <g clip-path="url(#_clip1)">
            <g transform="matrix(-0.405356,0.738431,0.9385,0.515182,901.709,-1164.96)">
                <ellipse cx="2083.14" cy="975.657" rx="224.79" ry="280.762" style="fill:white;fill-opacity:0.47;"/>
            </g>
            <g transform="matrix(1.26457,0.0492828,-0.0492828,1.26457,-287.753,-294.21)">
                <g transform="matrix(-0.973072,-0.10544,-0.10944,1.00999,2770.05,152.087)">
                    <path d="M1447.37,1152.6C1477.14,1144.43 1512.13,1139.48 1549.61,1138.96C1607.4,1138.16 1659.6,1148.08 1696.06,1164.52C1724.91,1127.95 1742.66,1078.24 1742.66,1023.51C1742.66,911.275 1668.01,820.152 1576.06,820.152C1484.11,820.152 1409.46,911.275 1409.46,1023.51C1409.46,1072.51 1423.69,1117.48 1447.37,1152.6Z" style="fill:white;"/>
                    <clipPath id="_clip2">
                        <path d="M1447.37,1152.6C1477.14,1144.43 1512.13,1139.48 1549.61,1138.96C1607.4,1138.16 1659.6,1148.08 1696.06,1164.52C1724.91,1127.95 1742.66,1078.24 1742.66,1023.51C1742.66,911.275 1668.01,820.152 1576.06,820.152C1484.11,820.152 1409.46,911.275 1409.46,1023.51C1409.46,1072.51 1423.69,1117.48 1447.37,1152.6Z"/>
                    </clipPath>
                    <g clip-path="url(#_clip2)">
                        <g transform="matrix(1.49841,0.413629,-0.429322,1.44364,-267.2,-909.722)">
                            <circle cx="1426.3" cy="908.278" r="26.884" style="fill:rgb(62,62,62);"/>
                            <path d="M1426.3,881.394C1411.46,881.394 1399.42,893.441 1399.42,908.278C1399.42,923.116 1411.46,935.162 1426.3,935.162C1441.14,935.162 1453.18,923.116 1453.18,908.278C1453.18,893.441 1441.14,881.394 1426.3,881.394ZM1426.3,895.08C1433.59,895.08 1439.5,900.994 1439.5,908.278C1439.5,915.563 1433.59,921.477 1426.3,921.477C1419.02,921.477 1413.1,915.563 1413.1,908.278C1413.1,900.994 1419.02,895.08 1426.3,895.08Z" style="fill:rgb(57,57,57);"/>
                        </g>
                    </g>
                    <path d="M1447.37,1152.6C1477.14,1144.43 1512.13,1139.48 1549.61,1138.96C1607.4,1138.16 1659.6,1148.08 1696.06,1164.52C1724.91,1127.95 1742.66,1078.24 1742.66,1023.51C1742.66,911.275 1668.01,820.152 1576.06,820.152C1484.11,820.152 1409.46,911.275 1409.46,1023.51C1409.46,1072.51 1423.69,1117.48 1447.37,1152.6ZM1461.25,1121.01C1446.41,1092.91 1437.9,1059.42 1437.9,1023.51C1437.9,927.929 1497.76,847.556 1576.06,847.556C1654.36,847.556 1714.22,927.929 1714.22,1023.51C1714.22,1063.69 1703.57,1100.87 1685.32,1130.8C1648.1,1118.25 1600.73,1110.85 1549.2,1111.56C1517.79,1111.99 1488.01,1115.37 1461.25,1121.01Z" style="fill:rgb(57,57,57);"/>
                </g>
                <g transform="matrix(1.04025,0.153885,-0.182047,1.23062,348.935,-470.351)">
                    <path d="M1091.04,1185.71C1097.19,1187.17 1100.79,1192.58 1099.06,1197.78C1097.34,1202.99 1090.94,1206.03 1084.79,1204.57C1068.68,1200.76 1069.02,1200.54 1053.29,1195.27C1047.35,1193.28 1044.43,1187.59 1046.79,1182.56C1049.14,1177.54 1055.88,1175.08 1061.82,1177.07C1076.41,1181.96 1076.09,1182.18 1091.04,1185.71Z" style="fill:rgb(48,48,48);"/>
                </g>
                <g transform="matrix(1.13338,-8.75276e-18,4.84318e-17,1.69883,28.8495,-827.731)">
                    <path d="M857.071,1148.77C862.998,1148.61 867.996,1151.7 868.227,1155.65C868.457,1159.61 863.832,1162.94 857.906,1163.09C849.772,1163.31 843.873,1165.18 839.668,1166.33C834.612,1167.72 829.795,1170.3 819.653,1174.98C814.773,1177.23 808.075,1176.41 804.704,1173.15C801.333,1169.9 802.558,1165.43 807.438,1163.18C819.538,1157.6 825.477,1154.72 831.51,1153.07C837.382,1151.46 845.71,1149.06 857.071,1148.77Z" style="fill:rgb(48,48,48);"/>
                </g>
            </g>
        </g>
        <path d="M807.827,583.114C1138.69,583.114 1406.24,832.237 1406.24,1163.1C1406.24,1493.95 1137.63,1762.57 806.77,1762.57C475.911,1762.57 217.984,1512.43 217.984,1181.58C217.984,850.718 476.968,583.114 807.827,583.114ZM807.827,640.364C508.847,640.364 275.235,882.596 275.235,1181.58C275.235,1480.05 508.295,1705.32 806.77,1705.32C1106.03,1705.32 1348.99,1462.36 1348.99,1163.1C1348.99,864.377 1106.55,640.364 807.827,640.364Z" style="fill:rgb(48,48,48);"/>
    </g>
    <g transform="matrix(0.946132,0,0,0.946132,995.475,213.688)">
        <path d="M811.459,572.54C1142.32,572.54 1424.4,862.808 1424.4,1193.67C1424.4,1524.53 1137.63,1762.57 806.77,1762.57C475.911,1762.57 207.296,1493.95 207.296,1163.1C207.296,832.237 480.6,572.54 811.459,572.54Z" style="fill:rgb(230,57,70);"/>
        <clipPath id="_clip3">
            <path d="M811.459,572.54C1142.32,572.54 1424.4,862.808 1424.4,1193.67C1424.4,1524.53 1137.63,1762.57 806.77,1762.57C475.911,1762.57 207.296,1493.95 207.296,1163.1C207.296,832.237 480.6,572.54 811.459,572.54Z"/>
        </clipPath>
        <g clip-path="url(#_clip3)">
            <g transform="matrix(1.10386,-0.550353,0.569325,1.14192,-1778.22,748.627)">
                <ellipse cx="1576.06" cy="1023.51" rx="166.598" ry="203.359" style="fill:white;"/>
                <path d="M1576.06,820.152C1668.01,820.152 1742.66,911.275 1742.66,1023.51C1742.66,1135.75 1668.01,1226.87 1576.06,1226.87C1484.11,1226.87 1409.46,1135.75 1409.46,1023.51C1409.46,911.275 1484.11,820.152 1576.06,820.152ZM1576.06,847.764C1497.84,847.764 1438.02,928.037 1438.02,1023.51C1438.02,1118.99 1497.84,1199.26 1576.06,1199.26C1654.28,1199.26 1714.1,1118.99 1714.1,1023.51C1714.1,928.037 1654.28,847.764 1576.06,847.764Z" style="fill:rgb(57,57,57);"/>
            </g>
            <g transform="matrix(1.87773,-0.350124,0.345814,1.87302,-2577.33,-181.248)">
                <circle cx="1426.3" cy="908.278" r="26.884" style="fill:rgb(62,62,62);"/>
                <path d="M1426.3,881.394C1441.14,881.394 1453.18,893.441 1453.18,908.278C1453.18,923.116 1441.14,935.162 1426.3,935.162C1411.46,935.162 1399.42,923.116 1399.42,908.278C1399.42,893.441 1411.46,881.394 1426.3,881.394ZM1426.33,895.267C1419.12,895.267 1413.25,901.097 1413.25,908.303C1413.25,915.481 1419.1,921.289 1426.28,921.289C1433.48,921.289 1439.35,915.459 1439.35,908.254C1439.35,901.075 1433.5,895.267 1426.33,895.267Z" style="fill:rgb(57,57,57);"/>
            </g>
            <g transform="matrix(0.451657,-0.711056,0.903707,0.574027,-818.342,1813.31)">
                <ellipse cx="2083.14" cy="975.657" rx="224.79" ry="280.762" style="fill:white;fill-opacity:0.39;"/>
            </g>
        </g>
        <path d="M811.459,572.54C1142.32,572.54 1424.4,862.808 1424.4,1193.67C1424.4,1524.53 1137.63,1762.57 806.77,1762.57C475.911,1762.57 207.296,1493.95 207.296,1163.1C207.296,832.237 480.6,572.54 811.459,572.54ZM811.459,629.791C512.305,629.791 264.546,863.942 264.546,1163.1C264.546,1462.36 507.509,1705.32 806.77,1705.32C1105.76,1705.32 1367.15,1492.65 1367.15,1193.67C1367.15,893.505 1111.62,629.791 811.459,629.791Z" style="fill:rgb(57,57,57);"/>
    </g>
    <g transform="matrix(1.43773,0,0,1.43773,-610.275,-506.835)">
        <ellipse cx="1374.55" cy="1169.26" rx="13.119" ry="13.865" style="fill:white;"/>
    </g>
    <ellipse cx="1023.99" cy="1174.26" rx="20.179" ry="20.985" style="fill:white;"/>
</svg>
