<?xml version="1.0" encoding="UTF-8" standalone="no"?>
<!DOCTYPE svg PUBLIC "-//W3C//DTD SVG 1.1//EN" "http://www.w3.org/Graphics/SVG/1.1/DTD/svg11.dtd">
<svg width="100%" height="100%" viewBox="0 0 2400 2400" version="1.1" xmlns="http://www.w3.org/2000/svg" xmlns:xlink="http://www.w3.org/1999/xlink" xml:space="preserve" xmlns:serif="http://www.serif.com/" style="fill-rule:evenodd;clip-rule:evenodd;stroke-linecap:round;stroke-linejoin:round;stroke-miterlimit:1.5;">
    <g transform="matrix(1,0,0,1,14.0171,706.28)">
        <path d="M1027.63,184.759C937.292,130.813 876.743,32.072 876.743,-80.699C876.743,-251.22 1015.18,-389.66 1185.7,-389.66L1186.26,-389.66C1356.78,-389.66 1495.22,-251.22 1495.22,-80.699C1495.22,32.072 1434.67,130.813 1344.34,184.759L1830.1,184.759C2000.62,184.759 2139.06,323.2 2139.06,493.72C2139.06,664.24 2000.62,802.681 1830.1,802.681L1345.44,802.681C1460.59,871.869 1521.17,1011.35 1484.69,1147.51C1440.55,1312.22 1271,1410.12 1106.29,1365.98L1105.75,1365.84C941.038,1321.7 843.146,1152.15 887.28,987.439C908.835,906.993 960.309,842.486 1026.52,802.681L541.867,802.681C371.347,802.681 232.906,664.24 232.906,493.72C232.906,323.2 371.347,184.759 541.867,184.759L1027.63,184.759ZM1384.07,1120.55C1413.32,1011.38 1348.43,898.986 1239.26,869.732L1238.72,869.588C1129.54,840.334 1017.15,905.221 987.897,1014.4C958.643,1123.58 1023.53,1235.97 1132.71,1265.22L1133.25,1265.36C1242.43,1294.62 1354.82,1229.73 1384.07,1120.55ZM1339.8,1108.69C1317.09,1193.43 1229.85,1243.8 1145.11,1221.09L1144.57,1220.95C1059.83,1198.24 1009.46,1111.01 1032.17,1026.26C1054.88,941.518 1142.11,891.152 1226.86,913.859L1227.39,914.004C1312.14,936.711 1362.5,1023.95 1339.8,1108.69ZM1239.18,1081.73C1247.01,1052.52 1229.65,1022.45 1200.43,1014.62L1199.89,1014.48C1170.68,1006.65 1140.61,1024.01 1132.79,1053.22C1124.96,1082.43 1142.32,1112.5 1171.53,1120.33L1172.07,1120.48C1201.28,1128.3 1231.35,1110.94 1239.18,1081.73ZM1391.06,-80.699C1391.06,-193.728 1299.29,-285.494 1186.26,-285.494L1185.7,-285.494C1072.67,-285.494 980.91,-193.728 980.91,-80.699C980.91,32.33 1072.67,124.095 1185.7,124.095L1186.26,124.095C1299.29,124.095 1391.06,32.33 1391.06,-80.699ZM1345.22,-80.699C1345.22,7.033 1274,78.261 1186.26,78.261L1185.7,78.261C1097.97,78.261 1026.74,7.033 1026.74,-80.699C1026.74,-168.432 1097.97,-239.66 1185.7,-239.66L1186.26,-239.66C1274,-239.66 1345.22,-168.432 1345.22,-80.699ZM1241.06,-80.699C1241.06,-110.941 1216.5,-135.494 1186.26,-135.494L1185.7,-135.494C1155.46,-135.494 1130.91,-110.941 1130.91,-80.699C1130.91,-50.458 1155.46,-25.905 1185.7,-25.905L1186.26,-25.905C1216.5,-25.905 1241.06,-50.458 1241.06,-80.699ZM2034.89,493.72C2034.89,380.691 1943.13,288.925 1830.1,288.925L541.867,288.925C428.838,288.925 337.073,380.691 337.073,493.72C337.073,606.749 428.838,698.514 541.867,698.514L1830.1,698.514C1943.13,698.514 2034.89,606.749 2034.89,493.72ZM1989.06,493.72C1989.06,581.453 1917.83,652.681 1830.1,652.681L541.867,652.681C454.134,652.681 382.906,581.453 382.906,493.72C382.906,405.987 454.134,334.759 541.867,334.759L1830.1,334.759C1917.83,334.759 1989.06,405.987 1989.06,493.72ZM1884.89,493.72C1884.89,463.478 1860.34,438.925 1830.1,438.925L541.867,438.925C511.625,438.925 487.073,463.478 487.073,493.72C487.073,523.961 511.625,548.514 541.867,548.514L1830.1,548.514C1860.34,548.514 1884.89,523.961 1884.89,493.72Z" style="fill:white;"/>
    </g>
    <g transform="matrix(1,0,0,1,14.0171,706.28)">
        <path d="M2011.98,493.72C2011.98,594.101 1930.48,675.597 1830.1,675.597L541.867,675.597C441.486,675.597 359.99,594.101 359.99,493.72C359.99,393.339 441.486,311.842 541.867,311.842L1830.1,311.842C1930.48,311.842 2011.98,393.339 2011.98,493.72ZM1368.14,-80.699C1368.14,19.682 1286.64,101.178 1186.26,101.178L1185.7,101.178C1085.32,101.178 1003.83,19.682 1003.83,-80.699C1003.83,-181.08 1085.32,-262.577 1185.7,-262.577L1186.26,-262.577C1286.64,-262.577 1368.14,-181.08 1368.14,-80.699ZM1361.93,1114.62C1335.95,1211.58 1236.14,1269.21 1139.18,1243.23L1138.64,1243.08C1041.68,1217.1 984.053,1117.29 1010.03,1020.33C1036.01,923.37 1135.83,865.743 1232.79,891.723L1233.33,891.868C1330.29,917.848 1387.91,1017.66 1361.93,1114.62Z" style="fill:rgb(111,248,0);stroke:rgb(54,53,53);stroke-width:45.83px;"/>
    </g>
</svg>
