<?xml version="1.0" encoding="UTF-8" standalone="no"?>
<!DOCTYPE svg PUBLIC "-//W3C//DTD SVG 1.1//EN" "http://www.w3.org/Graphics/SVG/1.1/DTD/svg11.dtd">
<svg width="100%" height="100%" viewBox="0 0 2400 2400" version="1.1" xmlns="http://www.w3.org/2000/svg" xmlns:xlink="http://www.w3.org/1999/xlink" xml:space="preserve" xmlns:serif="http://www.serif.com/" style="fill-rule:evenodd;clip-rule:evenodd;stroke-linecap:round;stroke-linejoin:round;stroke-miterlimit:1.5;">
    <g transform="matrix(1,0,0,1,-2.94244,123.967)">
        <path d="M1309.78,441.327C1680.07,493.347 1965.36,811.77 1965.36,1196.3C1965.36,1617.09 1623.73,1958.71 1202.94,1958.71C782.155,1958.71 440.529,1617.09 440.529,1196.3C440.529,979.563 531.162,783.828 676.564,644.961C648.464,596.222 661.391,533.169 708.088,499.717C755.004,466.109 819.244,474.389 856.271,517.195C928.651,480.14 1007.72,454.319 1091.17,442.037L1091.17,377.208L1015.89,377.208L1015.89,239.186L1390.58,239.186L1390.58,377.208L1309.78,377.208L1309.78,441.327ZM808.633,535.74C786.809,521.18 757.368,520.795 734.779,536.977C712.19,553.159 703.082,581.158 709.846,606.506L759.24,571.123L808.633,535.74ZM1263.95,381.227L1137,381.227L1137,432.723L1263.95,432.723L1263.95,381.227ZM1344.74,285.019L1061.73,285.019L1061.73,331.375L1344.74,331.375L1344.74,285.019ZM1202.94,479.719C807.451,479.719 486.362,800.808 486.362,1196.3C486.362,1591.79 807.451,1912.88 1202.94,1912.88C1598.43,1912.88 1919.52,1591.79 1919.52,1196.3C1919.52,800.808 1598.43,479.719 1202.94,479.719Z" style="fill:rgb(54,53,53);"/>
        <path d="M924.925,388.581C924.464,384.855 924.227,381.059 924.227,377.208L924.227,239.186C924.227,188.56 965.267,147.519 1015.89,147.519L1390.58,147.519C1441.2,147.519 1482.24,188.56 1482.24,239.186L1482.24,377.208C1482.24,381.128 1482,384.991 1481.52,388.782C1816.28,504.412 2057.02,822.451 2057.02,1196.3C2057.02,1667.68 1674.32,2050.38 1202.94,2050.38C731.563,2050.38 348.862,1667.68 348.862,1196.3C348.862,974.461 433.606,772.256 572.478,620.345C561.399,547.438 590.655,471.081 654.706,425.198C719.195,379.002 801.582,376.139 867.269,410.826C886.148,402.741 905.377,395.316 924.925,388.581ZM1309.78,441.327L1309.78,377.208L1390.58,377.208L1390.58,239.186L1015.89,239.186L1015.89,377.208L1091.17,377.208L1091.17,442.037C1007.72,454.319 928.651,480.14 856.271,517.195C819.244,474.389 755.004,466.109 708.088,499.717C661.391,533.169 648.464,596.222 676.564,644.961C531.162,783.828 440.529,979.563 440.529,1196.3C440.529,1617.09 782.155,1958.71 1202.94,1958.71C1623.73,1958.71 1965.36,1617.09 1965.36,1196.3C1965.36,811.77 1680.07,493.347 1309.78,441.327ZM1344.74,285.019L1344.74,331.375L1061.73,331.375L1061.73,285.019L1344.74,285.019ZM1202.94,479.719C1598.43,479.719 1919.52,800.808 1919.52,1196.3C1919.52,1591.79 1598.43,1912.88 1202.94,1912.88C807.451,1912.88 486.362,1591.79 486.362,1196.3C486.362,800.808 807.451,479.719 1202.94,479.719ZM1202.94,571.386C858.043,571.386 578.029,851.401 578.029,1196.3C578.029,1541.2 858.043,1821.21 1202.94,1821.21C1547.84,1821.21 1827.86,1541.2 1827.86,1196.3C1827.86,851.401 1547.84,571.386 1202.94,571.386ZM1263.95,381.227L1263.95,432.723L1137,432.723L1137,381.227L1263.95,381.227ZM808.633,535.74L759.24,571.123L709.846,606.506C703.082,581.158 712.19,553.159 734.779,536.977C757.368,520.795 786.809,521.18 808.633,535.74Z" style="fill:white;"/>
    </g>
    <g transform="matrix(1,0,0,1,-2.94244,123.967)">
        <circle cx="1202.94" cy="1196.3" r="716.581" style="fill:rgb(184,184,184);"/>
        <path d="M1202.94,433.886C1623.73,433.886 1965.36,775.512 1965.36,1196.3C1965.36,1617.09 1623.73,1958.71 1202.94,1958.71C782.155,1958.71 440.529,1617.09 440.529,1196.3C440.529,775.512 782.155,433.886 1202.94,433.886ZM1202.94,479.719C807.451,479.719 486.362,800.808 486.362,1196.3C486.362,1591.79 807.451,1912.88 1202.94,1912.88C1598.43,1912.88 1919.52,1591.79 1919.52,1196.3C1919.52,800.808 1598.43,479.719 1202.94,479.719Z" style="fill:rgb(54,53,53);"/>
        <g transform="matrix(1,0,0,1,7,0)">
            <circle cx="1198.02" cy="1200.7" r="572.989" style="fill:white;"/>
            <path d="M1198.02,581.883C1539.56,581.883 1816.84,859.168 1816.84,1200.7C1816.84,1542.24 1539.56,1819.53 1198.02,1819.53C856.483,1819.53 579.198,1542.24 579.198,1200.7C579.198,859.168 856.483,581.883 1198.02,581.883ZM1198.02,627.716C881.78,627.716 625.032,884.464 625.032,1200.7C625.032,1516.95 881.78,1773.69 1198.02,1773.69C1514.26,1773.69 1771.01,1516.95 1771.01,1200.7C1771.01,884.464 1514.26,627.716 1198.02,627.716Z" style="fill:rgb(54,53,53);"/>
        </g>
        <g transform="matrix(1,0,0,1,0,7)">
            <path d="M1115.4,1213.35L678.703,1213.35C666.055,1213.35 655.787,1203.08 655.787,1190.43C655.787,1177.78 666.055,1167.51 678.703,1167.51L1115.4,1167.51L737.209,949.163C726.256,942.839 722.497,928.812 728.821,917.859C735.145,906.905 749.173,903.147 760.126,909.471L1138.32,1127.82L919.968,749.629C913.644,738.675 917.403,724.648 928.356,718.324C939.31,712 953.337,715.758 959.661,726.712L1178.01,1104.9L1178.01,668.206C1178.01,655.558 1188.28,645.289 1200.93,645.289C1213.57,645.289 1223.84,655.558 1223.84,668.206L1223.84,1104.9L1442.19,726.712C1448.52,715.758 1462.54,712 1473.5,718.324C1484.45,724.648 1488.21,738.675 1481.88,749.629L1263.54,1127.82L1641.73,909.471C1652.68,903.147 1666.71,906.905 1673.03,917.859C1679.35,928.812 1675.6,942.839 1664.64,949.163L1286.45,1167.51L1723.15,1167.51C1735.8,1167.51 1746.07,1177.78 1746.07,1190.43C1746.07,1203.08 1735.8,1213.35 1723.15,1213.35L1286.45,1213.35L1664.64,1431.69C1675.6,1438.02 1679.35,1452.04 1673.03,1463C1666.71,1473.95 1652.68,1477.71 1641.73,1471.39L1263.54,1253.04L1481.88,1631.23C1488.21,1642.18 1484.45,1656.21 1473.5,1662.53C1462.54,1668.86 1448.52,1665.1 1442.19,1654.14L1223.84,1275.95L1223.84,1712.65C1223.84,1725.3 1213.57,1735.57 1200.93,1735.57C1188.28,1735.57 1178.01,1725.3 1178.01,1712.65L1178.01,1275.95L959.661,1654.14C953.337,1665.1 939.31,1668.86 928.356,1662.53C917.403,1656.21 913.644,1642.18 919.968,1631.23L1138.32,1253.04L760.126,1471.39C749.173,1477.71 735.145,1473.95 728.821,1463C722.497,1452.04 726.256,1438.02 737.209,1431.69L1115.4,1213.35Z" style="fill:rgb(255,0,0);"/>
        </g>
        <circle cx="1202.07" cy="1201.93" r="406.387" style="fill:white;"/>
        <g transform="matrix(9.29988e-17,1.51879,-1.51879,9.29988e-17,3035.81,-633.379)">
            <path d="M1202.03,829.925L1202.03,1202.97L828.987,1202.97C828.987,996.944 996.006,829.925 1202.03,829.925Z" style="fill:rgb(0,211,255);fill-opacity:0.35;"/>
        </g>
        <g transform="matrix(0.313621,0,0,0.449127,824.612,291.973)">
            <rect x="922.996" y="147.702" width="550.937" height="216.709" style="fill:rgb(184,184,184);stroke:rgb(54,53,53);stroke-width:118.33px;"/>
        </g>
        <g transform="matrix(0.896342,0,0,1.15022,122.699,-47.4635)">
            <rect x="996.489" y="249.212" width="418.012" height="119.996" style="fill:rgb(184,184,184);"/>
            <path d="M1414.5,249.212L1414.5,369.208L996.489,369.208L996.489,249.212L1414.5,249.212ZM1363.37,289.059L1047.62,289.059L1047.62,329.361L1363.37,329.361L1363.37,289.059Z" style="fill:rgb(54,53,53);"/>
        </g>
        <g transform="matrix(0.291256,0.406584,-0.406584,0.291256,809.675,364.735)">
            <path d="M322.563,146.668L322.563,497.914C225.569,497.914 146.94,419.285 146.94,322.291C146.94,225.297 225.569,146.668 322.563,146.668Z" style="fill:rgb(184,184,184);stroke:rgb(54,53,53);stroke-width:91.64px;"/>
        </g>
        <g transform="matrix(0.981448,0.191729,-0.191729,0.981448,252.506,-208.427)">
            <path d="M1449.76,765.087L1250.09,1234.63L1158.02,1170.62L1449.76,765.087Z" style="fill:rgb(54,53,53);"/>
        </g>
        <circle cx="1203.43" cy="1202.64" r="77.893" style="fill:rgb(184,184,184);stroke:rgb(54,53,53);stroke-width:45.83px;"/>
    </g>
</svg>
