<?xml version="1.0" encoding="UTF-8" standalone="no"?>
<!DOCTYPE svg PUBLIC "-//W3C//DTD SVG 1.1//EN" "http://www.w3.org/Graphics/SVG/1.1/DTD/svg11.dtd">
<svg width="100%" height="100%" viewBox="0 0 2400 2400" version="1.1" xmlns="http://www.w3.org/2000/svg" xmlns:xlink="http://www.w3.org/1999/xlink" xml:space="preserve" xmlns:serif="http://www.serif.com/" style="fill-rule:evenodd;clip-rule:evenodd;stroke-linecap:round;stroke-linejoin:round;stroke-miterlimit:1.5;">
    <g transform="matrix(1,0,0,1,-342.593,14.3254)">
        <path d="M2113.95,1814.42L857.126,2037.2C853.008,2037.93 848.843,2037.87 844.835,2037.08L675.289,2037.08C656.879,2037.08 641.955,2022.15 641.955,2003.75L641.955,367.129C641.955,348.732 656.861,333.813 675.258,333.796L851.278,333.635C858.794,333.629 866.091,336.162 871.986,340.824L2129.05,1335C2137.05,1341.33 2141.71,1350.96 2141.71,1361.15L2141.71,1480.05C2155.53,1473.02 2170.3,1467.58 2185.76,1463.95C2182.82,1455.17 2180.45,1446.14 2178.57,1437.21C2170.28,1397.81 2171.17,1360.84 2171.17,1360.84C2171.39,1351.64 2179.03,1344.36 2188.23,1344.57C2197.43,1344.79 2204.72,1352.43 2204.5,1361.63C2204.5,1361.63 2203.73,1394.89 2211.19,1430.34C2213.21,1439.97 2215.8,1449.81 2219.24,1459.11C2220.52,1459.03 2221.8,1458.97 2223.09,1458.92C2229.73,1431.46 2243.4,1406.09 2274.72,1388.29C2356.52,1341.8 2416.48,1401.33 2421.77,1406.84C2422.49,1407.58 2423.16,1408.38 2423.74,1409.26C2424.67,1410.64 2425.36,1412.12 2425.83,1413.65C2426.66,1416.35 2426.77,1419.13 2426.25,1421.77C2425.73,1424.41 2424.57,1426.94 2422.79,1429.12C2421.77,1430.36 2420.56,1431.47 2419.18,1432.39C2418.37,1432.93 2417.53,1433.4 2416.65,1433.79L2318.77,1479.47C2383.42,1511.81 2427.86,1578.66 2427.86,1655.81C2427.86,1764.56 2339.57,1852.85 2230.82,1852.85C2187.08,1852.85 2146.66,1838.57 2113.95,1814.42Z" style="fill:rgb(255,218,0);"/>
        <path d="M2173.84,1264.18L2190.21,1261.26L2228.98,1270.09L2260.2,1292.22L2265.5,1300.5C2387.2,1252.81 2473.62,1340.51 2481.1,1348.32L2492.93,1362.83L2505.49,1389.22L2509.78,1413.72L2508,1437.88L2500.48,1460.91L2487.22,1481.95L2465.58,1501.6L2465.13,1501.85C2494.24,1546.05 2511.19,1598.97 2511.19,1655.81C2511.19,1810.55 2385.56,1936.18 2230.82,1936.18C2182.29,1936.18 2136.63,1923.82 2096.8,1902.09L871.671,2119.26L828.647,2118.82L844.835,2120.41L675.289,2120.41L651.864,2118.04L629.851,2111.21L610.001,2100.44L592.793,2086.24L578.596,2069.03L567.824,2049.18L560.991,2027.17L558.622,2003.75L558.622,367.129L560.988,343.719L567.813,321.718L578.573,301.876L592.755,284.671L609.947,270.474L629.779,259.696L651.774,252.85L675.182,250.463L851.202,250.302L889.568,256.754L923.679,275.461L2173.84,1264.18ZM2113.95,1814.42C2146.66,1838.57 2187.08,1852.85 2230.82,1852.85C2339.57,1852.85 2427.86,1764.56 2427.86,1655.81C2427.86,1578.66 2383.42,1511.81 2318.77,1479.47L2416.65,1433.79C2417.53,1433.4 2418.37,1432.93 2419.18,1432.39C2420.56,1431.47 2421.77,1430.36 2422.79,1429.12C2424.57,1426.94 2425.73,1424.41 2426.25,1421.77C2426.77,1419.13 2426.66,1416.35 2425.83,1413.65C2425.36,1412.12 2424.67,1410.64 2423.74,1409.26C2423.16,1408.38 2422.49,1407.58 2421.77,1406.84C2416.48,1401.33 2356.52,1341.8 2274.72,1388.29C2243.4,1406.09 2229.73,1431.46 2223.09,1458.92C2221.8,1458.97 2220.52,1459.03 2219.24,1459.11C2215.8,1449.81 2213.21,1439.97 2211.19,1430.34C2203.73,1394.89 2204.5,1361.63 2204.5,1361.63C2204.72,1352.43 2197.43,1344.79 2188.23,1344.57C2179.03,1344.36 2171.39,1351.64 2171.17,1360.84C2171.17,1360.84 2170.28,1397.81 2178.57,1437.21C2180.45,1446.14 2182.82,1455.17 2185.76,1463.95C2170.3,1467.58 2155.53,1473.02 2141.71,1480.05L2141.71,1361.15C2141.71,1350.96 2137.05,1341.33 2129.05,1335L871.986,340.824C866.091,336.162 858.794,333.629 851.278,333.635L675.258,333.796C656.861,333.813 641.955,348.732 641.955,367.129L641.955,2003.75C641.955,2022.15 656.879,2037.08 675.289,2037.08L844.835,2037.08C848.843,2037.87 853.008,2037.93 857.126,2037.2L2113.95,1814.42Z" style="fill:white;"/>
    </g>
    <g transform="matrix(1,0,0,1,77.4065,14.3254)">
        <g transform="matrix(1,0,0,1,-420,0)">
            <path d="M851.309,2003.75L675.289,2003.75L675.289,367.129L851.309,366.969L2108.38,1361.15L2108.38,1781.56L851.309,2004.38L851.309,2003.75Z" style="fill:rgb(255,218,0);"/>
            <path d="M844.835,2037.08L675.289,2037.08C656.879,2037.08 641.955,2022.15 641.955,2003.75L641.955,367.129C641.955,348.732 656.861,333.813 675.258,333.796L851.278,333.635C858.794,333.629 866.091,336.162 871.986,340.824L2129.05,1335C2137.05,1341.33 2141.71,1350.96 2141.71,1361.15L2141.71,1781.56C2141.71,1797.72 2130.11,1811.56 2114.2,1814.38L857.126,2037.2C853.008,2037.93 848.843,2037.87 844.835,2037.08ZM851.309,2003.75L851.309,2004.38L2108.38,1781.56L2108.38,1361.15L851.309,366.969L675.289,367.129L675.289,2003.75L851.309,2003.75Z" style="fill:rgb(62,62,62);"/>
            <g>
                <g>
                    <g transform="matrix(6.37796e-17,1,-0.869886,5.37716e-17,2574.94,-200.044)">
                        <path d="M2204.43,1981.44L567.013,1981.44L1561.81,536.346L1981.6,536.346L2204.43,1981.44Z" style="fill:rgb(255,218,0);"/>
                    </g>
                    <g transform="matrix(5.21181e-17,0.809553,-0.869886,5.36751e-17,2574.94,-92.0584)">
                        <path d="M1371.04,1981.44L567.013,1981.44L1795.07,536.346L1921.78,536.346L1371.04,1981.44Z" style="fill-opacity:0.07;"/>
                    </g>
                    <g transform="matrix(0.850835,0,0,1.00484,134.794,-5.18263)">
                        <rect x="635.252" y="370.519" width="207.552" height="1628.73" style="fill:rgb(192,165,0);"/>
                    </g>
                </g>
                <g>
                    <path d="M1195.44,639.437L1228.92,665.038L1242.43,1307.05L1209.24,1297.49L1195.44,639.437Z" style="fill:rgb(192,165,0);"/>
                    <path d="M1481.35,865.429L1514.75,892.412L1520.94,1388.68L1487.8,1378.85L1481.35,865.429Z" style="fill:rgb(192,165,0);"/>
                    <path d="M1667.63,1012.78L1700.96,1039.54L1700.96,1440.96L1667.63,1431.32L1667.63,1012.78Z" style="fill:rgb(192,165,0);"/>
                    <path d="M1837.84,1147.47L1871.18,1174.14L1871.18,1490.35L1837.84,1480.99L1837.84,1147.47Z" style="fill:rgb(192,165,0);"/>
                    <path d="M1958.5,1243.12L1992.06,1269.41L1991.83,1525.18L1958.5,1515.46L1958.5,1243.12Z" style="fill:rgb(192,165,0);"/>
                    <path d="M2038.71,1306.66L2072.04,1333.13L2072.04,1549L2038.71,1539.01L2038.71,1306.66Z" style="fill:rgb(192,165,0);"/>
                </g>
            </g>
        </g>
        <g transform="matrix(0.604565,0,0,0.604565,1587.17,1005.3)">
            <circle cx="369.933" cy="1076" r="270.783" style="fill:rgb(255,66,71);"/>
            <path d="M369.933,750.08C549.813,750.08 695.852,896.12 695.852,1076C695.852,1255.88 549.813,1401.92 369.933,1401.92C190.053,1401.92 44.014,1255.88 44.014,1076C44.014,896.12 190.053,750.08 369.933,750.08ZM369.933,805.216C220.484,805.216 99.15,926.55 99.15,1076C99.15,1225.45 220.484,1346.78 369.933,1346.78C519.382,1346.78 640.716,1225.45 640.716,1076C640.716,926.55 519.382,805.216 369.933,805.216Z" style="fill:rgb(54,53,53);"/>
            <g transform="matrix(0.962513,-0.147286,0.142552,0.931575,-555.399,-368.694)">
                <ellipse cx="792.429" cy="1604.88" rx="155.018" ry="153.953" style="fill:white;fill-opacity:0.4;"/>
            </g>
            <g transform="matrix(1.01076,0,0,1,-38.0569,-15.128)">
                <path d="M300.505,897.396C335.998,858.683 444.406,805.782 543.621,841.047" style="fill:rgb(255,66,71);stroke:rgb(54,53,53);stroke-width:54.84px;"/>
            </g>
            <g transform="matrix(1,0,0,1,14.3653,-19.6229)">
                <path d="M284.476,608.372C284.476,608.372 280.651,769.71 346.055,841.188" style="fill:none;stroke:rgb(54,53,53);stroke-width:55.14px;"/>
            </g>
            <g transform="matrix(1,0,0,1,16.9572,9.50342)">
                <path d="M649.193,674.043C649.193,674.043 561.203,578.627 439.223,647.96C372.007,686.166 362.967,749.439 357.924,809.995L649.193,674.043" style="fill:rgb(0,255,33);stroke:rgb(54,53,53);stroke-width:55.14px;"/>
            </g>
        </g>
    </g>
</svg>
