<?xml version="1.0" encoding="UTF-8" standalone="no"?>
<!DOCTYPE svg PUBLIC "-//W3C//DTD SVG 1.1//EN" "http://www.w3.org/Graphics/SVG/1.1/DTD/svg11.dtd">
<svg width="100%" height="100%" viewBox="0 0 2400 2400" version="1.1" xmlns="http://www.w3.org/2000/svg" xmlns:xlink="http://www.w3.org/1999/xlink" xml:space="preserve" xmlns:serif="http://www.serif.com/" style="fill-rule:evenodd;clip-rule:evenodd;stroke-linejoin:round;stroke-miterlimit:2;">
    <g transform="matrix(1,0,0,1,-18.3246,0)">
        <g transform="matrix(0.863342,0,0,0.906652,154.019,116.385)">
            <path d="M1308.86,1583.88C1181.83,1701.09 1001.31,1762.57 817.548,1762.57C815.719,1762.57 813.89,1762.56 812.063,1762.55C810.3,1762.56 808.535,1762.57 806.77,1762.57C475.911,1762.57 191.661,1518.61 189.348,1187.76C189.329,1185.12 189.329,1182.49 189.348,1179.86C191.695,844.541 492.415,585.602 817.544,587.218C818.342,587.222 819.139,587.227 819.937,587.234C822.793,587.21 825.651,587.204 828.51,587.218C1165.14,588.863 1491.5,826.143 1485.92,1178.98C1485.08,1232.66 1477.75,1282.89 1464.84,1329.55L1751.42,1332.15C1743.3,1286.3 1730.05,1211.71 1715.8,1132.51C1713.11,1117.58 1720.32,1102.61 1733.95,1094.8C1747.59,1086.99 1764.86,1087.94 1777.45,1097.2C1972.16,1240.35 2142.24,1402.96 2265.99,1530.73C2273.2,1538.18 2276.87,1548.13 2276.12,1558.24C2275.38,1568.34 2270.28,1577.7 2262.05,1584.12C2098.66,1711.36 1920.77,1823.01 1730.3,1910.33C1716.56,1916.63 1700.22,1914.64 1688.58,1905.25C1676.95,1895.86 1672.22,1880.83 1676.49,1866.89C1695.82,1803.93 1716.19,1736.21 1735.29,1671.48C1599.75,1642.47 1456.21,1612.86 1308.86,1583.88ZM1438.47,1097.6C1429.4,1030.36 1408,969.203 1376.93,914.811C1407.48,970.998 1428.75,1032.46 1438.47,1097.6Z" style="fill:rgb(57,178,230);"/>
            <path d="M1336.94,1683.3C1195.79,1795.11 1008.42,1854.48 817.548,1854.48C815.718,1854.48 813.888,1854.48 812.075,1854.46C810.308,1854.48 808.539,1854.48 806.77,1854.48C423.783,1854.48 95.505,1571.36 92.826,1188.38C92.804,1185.33 92.804,1182.28 92.826,1179.24C95.536,792.202 442.767,493.44 818.048,495.306L819.916,495.318C822.944,495.295 825.974,495.291 829.006,495.306C1216.65,497.2 1588.85,774.056 1582.44,1180.36C1582.12,1200.21 1581.03,1219.65 1579.19,1238.67L1636.99,1239.2C1631.88,1210.57 1626.35,1179.67 1620.66,1148.03L1619.92,1109.19L1631.01,1072.68L1652.82,1040.85L1684.2,1016.03L1721.94,1001.26L1761.69,997.843L1800.76,1005.62L1836.44,1024.45C2035.88,1171.08 2210.18,1337.54 2336.94,1468.42L2353.5,1489.48L2365.12,1513.06L2371.52,1538.38L2372.41,1564.68L2367.66,1590.6L2357.61,1614.82L2342.64,1636.62L2323.15,1655.27C2153.87,1787.09 1969.51,1902.67 1772.17,1993.15L1734.79,2004.29L1696.4,2004.85L1659.4,1995.1L1626.16,1975.36L1600.27,1947.37L1584.12,1914.2L1578.42,1878.05L1583.85,1841.11C1593.9,1808.35 1604.24,1774.29 1614.54,1740.04C1524.55,1721.14 1431.64,1702.12 1336.94,1683.3ZM1308.86,1583.88C1456.21,1612.86 1599.75,1642.47 1735.29,1671.48C1716.19,1736.21 1695.82,1803.93 1676.49,1866.89C1672.22,1880.83 1676.95,1895.86 1688.58,1905.25C1700.22,1914.64 1716.56,1916.63 1730.3,1910.33C1920.77,1823.01 2098.66,1711.36 2262.05,1584.12C2270.28,1577.7 2275.38,1568.34 2276.12,1558.24C2276.87,1548.13 2273.2,1538.18 2265.99,1530.73C2142.24,1402.96 1972.16,1240.35 1777.45,1097.2C1764.86,1087.94 1747.59,1086.99 1733.95,1094.8C1720.32,1102.61 1713.11,1117.58 1715.8,1132.51C1730.05,1211.71 1743.3,1286.3 1751.42,1332.15L1464.84,1329.55C1477.75,1282.89 1485.08,1232.66 1485.92,1178.98C1491.5,826.143 1165.14,588.863 828.51,587.218C825.651,587.204 822.793,587.21 819.937,587.234C819.139,587.227 818.342,587.222 817.544,587.218C492.415,585.602 191.695,844.541 189.348,1179.86C189.329,1182.49 189.329,1185.12 189.348,1187.76C191.661,1518.61 475.911,1762.57 806.77,1762.57C808.535,1762.57 810.3,1762.56 812.063,1762.55C813.89,1762.56 815.719,1762.57 817.548,1762.57C1001.31,1762.57 1181.83,1701.09 1308.86,1583.88ZM1438.47,1097.6C1428.75,1032.46 1407.48,970.998 1376.93,914.811C1408,969.203 1429.4,1030.36 1438.47,1097.6Z" style="fill:white;"/>
        </g>
        <g transform="matrix(1,0,0,1,525.108,-162.594)">
            <g transform="matrix(0.627248,0,0,0.658714,-428.194,569.797)">
                <g transform="matrix(1.3764,0,0,1.3764,91.0403,-441.494)">
                    <path d="M817.544,587.218C1148.4,588.863 1444.46,847.653 1444.46,1178.51C1444.46,1509.37 1137.63,1762.57 806.77,1762.57C475.911,1762.57 191.661,1518.61 189.348,1187.76C186.976,848.621 489.863,585.589 817.544,587.218Z" style="fill:rgb(57,178,230);"/>
                </g>
                <g transform="matrix(0.0717286,-0.261947,0.845814,0.231609,448.167,835.098)">
                    <path d="M2083.14,694.895C2163.17,665.533 2307.93,820.7 2307.93,975.657C2307.93,1130.61 2159.59,1320.75 2065.43,1295.73C1970.42,1270.49 1931.39,1181.93 1931.39,1026.97C1931.39,872.016 1961.26,739.617 2083.14,694.895Z" style="fill:white;fill-opacity:0.51;"/>
                </g>
                <g transform="matrix(1.40043,0,0,1.3764,86.491,-441.494)">
                    <path d="M817.544,587.218C1148.4,588.863 1469.15,826.143 1463.68,1178.98C1457.82,1556.22 1137.63,1762.57 806.77,1762.57C475.911,1762.57 191.661,1518.61 189.348,1187.76C186.976,848.621 489.863,585.589 817.544,587.218ZM817.348,621.85C510.771,620.326 226.482,870.187 228.7,1187.49C230.359,1424.62 388.459,1603.62 601.517,1677.57C666.185,1700.02 764.108,1702.97 836.066,1704.75C1176.08,1713.13 1421.09,1481.87 1421.83,1172.72C1422.65,831.883 1126.91,623.389 817.348,621.85Z" style="fill:rgb(54,53,53);"/>
                </g>
                <g transform="matrix(0.768948,-0.239981,0.327069,0.950264,172.672,470.102)">
                    <g transform="matrix(-1.77853,0.303561,0.313006,1.54418,4141.08,-1108.19)">
                        <ellipse cx="1576.06" cy="1023.51" rx="166.598" ry="203.359" style="fill:white;"/>
                    </g>
                    <g transform="matrix(-1.80169,0.307514,0.324026,1.59854,4172.4,-1159.67)">
                        <path d="M1578.93,818.64C1486.98,818.64 1409.46,911.275 1409.46,1023.51C1409.46,1135.75 1488.28,1227.31 1580.23,1227.31C1672.18,1227.31 1751.01,1138.91 1748.98,1022.7C1747.01,910.413 1670.88,818.64 1578.93,818.64ZM1577.21,838.595C1658.94,838.595 1733.34,923.285 1734.85,1023.09C1736.43,1127.58 1656.24,1212.86 1576.06,1205.51C1494.4,1198.01 1429.73,1120.48 1429.73,1020.72C1429.73,920.956 1495.48,838.595 1577.21,838.595Z" style="fill:rgb(54,53,53);"/>
                    </g>
                    <g transform="matrix(3.86856,0.591177,-1.00969,3.97122,-2815.05,-3412.02)">
                        <circle cx="1426.3" cy="908.278" r="26.884" style="fill:rgb(62,62,62);"/>
                        <clipPath id="_clip1">
                            <circle cx="1426.3" cy="908.278" r="26.884"/>
                        </clipPath>
                        <g clip-path="url(#_clip1)">
                            <g transform="matrix(0.379648,0.138585,-0.126683,0.328975,1152.66,437.048)">
                                <circle cx="1057.46" cy="955.9" r="24.177" style="fill:white;"/>
                            </g>
                        </g>
                    </g>
                </g>
                <g transform="matrix(0.916782,0,0,1,275.881,25.9606)">
                    <g transform="matrix(-2.00896,-0.113955,-0.101854,1.60325,4238.46,-490.751)">
                        <ellipse cx="1576.06" cy="1023.51" rx="166.598" ry="203.359" style="fill:white;"/>
                    </g>
                    <g transform="matrix(3.90883,-0.368816,0.441414,4.04136,-4841.88,-2120.09)">
                        <circle cx="1426.3" cy="908.278" r="26.884" style="fill:rgb(62,62,62);"/>
                        <clipPath id="_clip2">
                            <circle cx="1426.3" cy="908.278" r="26.884"/>
                        </clipPath>
                        <g clip-path="url(#_clip2)">
                            <g transform="matrix(0.379648,0.138585,-0.126683,0.328975,1152.66,437.048)">
                                <circle cx="1057.46" cy="955.9" r="24.177" style="fill:white;"/>
                            </g>
                        </g>
                    </g>
                    <g transform="matrix(-2.00896,-0.113955,-0.101854,1.60325,4238.46,-490.751)">
                        <path d="M1576.06,820.152C1484.11,820.152 1409.46,911.275 1409.46,1023.51C1409.46,1135.75 1484.11,1226.87 1576.06,1226.87C1668.01,1226.87 1742.66,1135.75 1742.66,1023.51C1742.66,911.275 1668.01,820.152 1576.06,820.152ZM1576.06,840.906C1658.48,840.906 1725.35,918.465 1725.35,1019.08C1725.35,1119.69 1658.48,1206.12 1576.06,1206.12C1493.64,1206.12 1422.03,1126.97 1422.03,1026.36C1422.03,925.748 1493.64,840.906 1576.06,840.906Z" style="fill:rgb(54,53,53);"/>
                    </g>
                </g>
                <g transform="matrix(1.12784,0,0,1.23258,-77.3363,-820.015)">
                    <path d="M1424.05,2184.65C1398.51,2190.01 1354.96,2202.19 1291.01,2207.94C1226.85,2213.7 1137.6,2209.73 1113.39,2209.73C720.773,2209.73 425.618,1948.99 425.618,1613.36C425.618,1557.53 445.501,1497.81 462.012,1446.43C461.089,1460.06 462.242,1475.83 462.242,1489.65C462.242,1876.19 783.841,2185.42 1234.46,2185.42C1269.82,2185.42 1373.17,2185.54 1424.05,2184.65Z" style="fill:rgb(14,131,181);"/>
                </g>
            </g>
            <g transform="matrix(0.76969,0,0,1.28152,-95.9867,521.608)">
                <g>
                    <path d="M1075.05,900.284C1080.41,858.923 1085.76,817.563 1091.12,776.203C1280.21,777.287 1469.3,778.371 1658.39,779.455C1654.54,765.69 1633.4,690.144 1609.83,607.513C1826.11,707.804 2014.99,821.753 2152.45,911.273C1971.82,999.994 1775.19,1077.88 1564.63,1138.77C1590.55,1085.49 1618.15,1027.41 1643,973.864C1464.37,949.577 1272.43,924.555 1075.05,900.284Z" style="fill:rgb(255,241,0);"/>
                    <path d="M1031.88,898.267L1047.94,774.187C1049.71,760.549 1068.76,750.063 1091.53,750.193L1607.1,753.149C1597.99,720.706 1583.13,667.935 1567.15,611.905C1564.13,601.34 1572.22,590.747 1587.51,585.223C1602.81,579.699 1622.17,580.374 1636.3,586.925C1854.7,688.2 2045.47,803.24 2184.28,893.639C2192.37,898.907 2196.48,905.947 2195.65,913.097C2194.81,920.246 2189.1,926.871 2179.86,931.408C1996.59,1021.43 1797.06,1100.42 1583.42,1162.2C1568,1166.66 1549.67,1165.25 1536.62,1158.61C1523.58,1151.96 1518.26,1141.33 1523.06,1131.47C1544.74,1086.92 1567.58,1039.01 1589.01,993.215C1423.41,970.864 1247.18,947.999 1066.37,925.766C1044.97,923.135 1030.18,911.346 1031.88,898.267ZM1075.05,900.284C1272.43,924.555 1464.37,949.577 1643,973.864C1618.15,1027.41 1590.55,1085.49 1564.63,1138.77C1775.19,1077.88 1971.82,999.994 2152.45,911.273C2014.99,821.753 1826.11,707.804 1609.83,607.513C1633.4,690.144 1654.54,765.69 1658.39,779.455L1091.12,776.203L1075.05,900.284Z" style="fill:rgb(54,53,53);"/>
                </g>
            </g>
        </g>
    </g>
</svg>
