<?xml version="1.0" encoding="UTF-8" standalone="no"?>
<!DOCTYPE svg PUBLIC "-//W3C//DTD SVG 1.1//EN" "http://www.w3.org/Graphics/SVG/1.1/DTD/svg11.dtd">
<svg width="100%" height="100%" viewBox="0 0 2400 2400" version="1.1" xmlns="http://www.w3.org/2000/svg" xmlns:xlink="http://www.w3.org/1999/xlink" xml:space="preserve" xmlns:serif="http://www.serif.com/" style="fill-rule:evenodd;clip-rule:evenodd;stroke-linejoin:round;stroke-miterlimit:2;">
    <g transform="matrix(1.3764,0,0,1.3764,91.0403,-441.494)">
        <path d="M817.845,526.674C1181.46,528.482 1493.64,827.929 1493.64,1191.55C1493.64,1555.8 1171.02,1823.11 806.77,1823.11C442.462,1823.11 131.352,1552.49 128.804,1188.19C126.198,815.44 457.696,524.884 817.845,526.674ZM817.544,587.218C489.863,585.589 186.976,848.621 189.348,1187.76C191.661,1518.61 475.911,1762.57 806.77,1762.57C1137.63,1762.57 1433.1,1522.4 1433.1,1191.55C1433.1,860.686 1148.4,588.863 817.544,587.218ZM817.348,621.85C1126.91,623.389 1393.75,881.978 1393.75,1191.55C1393.75,1500.7 1117.03,1714.56 807.874,1714.56C498.756,1714.56 230.862,1496.6 228.7,1187.49C226.482,870.187 510.771,620.326 817.348,621.85ZM817.047,682.393C542.809,681.03 287.259,903.234 289.244,1187.07C291.17,1462.53 532.4,1654.01 807.874,1654.01C1083.39,1654.01 1333.2,1467.06 1333.2,1191.55C1333.2,914.601 1093.99,683.77 817.047,682.393Z" style="fill:white;"/>
    </g>
    <g transform="matrix(1.3764,0,0,1.3764,91.0403,-441.494)">
        <path d="M817.544,587.218C1148.4,588.863 1433.1,860.686 1433.1,1191.55C1433.1,1522.4 1137.63,1762.57 806.77,1762.57C475.911,1762.57 191.661,1518.61 189.348,1187.76C186.976,848.621 489.863,585.589 817.544,587.218Z" style="fill:rgb(244,162,97);"/>
        <clipPath id="_clip1">
            <path d="M817.544,587.218C1148.4,588.863 1433.1,860.686 1433.1,1191.55C1433.1,1522.4 1137.63,1762.57 806.77,1762.57C475.911,1762.57 191.661,1518.61 189.348,1187.76C186.976,848.621 489.863,585.589 817.544,587.218Z"/>
        </clipPath>
        <g clip-path="url(#_clip1)">
            <g transform="matrix(0.069824,-0.184552,0.595911,0.225459,267.519,875.419)">
                <path d="M2083.14,694.895C2163.17,665.533 2307.93,820.7 2307.93,975.657C2307.93,1130.61 2159.59,1320.75 2065.43,1295.73C1970.42,1270.49 1931.39,1181.93 1931.39,1026.97C1931.39,872.016 1961.26,739.617 2083.14,694.895Z" style="fill:white;fill-opacity:0.39;"/>
            </g>
        </g>
    </g>
    <g transform="matrix(1.3764,0,0,1.3764,91.0403,-441.494)">
        <path d="M817.544,587.218C1148.4,588.863 1433.1,860.686 1433.1,1191.55C1433.1,1522.4 1137.63,1762.57 806.77,1762.57C475.911,1762.57 191.661,1518.61 189.348,1187.76C186.976,848.621 489.863,585.589 817.544,587.218ZM817.348,621.85C510.771,620.326 226.482,870.187 228.7,1187.49C230.862,1496.6 498.756,1714.56 807.874,1714.56C1117.03,1714.56 1393.75,1500.7 1393.75,1191.55C1393.75,881.978 1126.91,623.389 817.348,621.85Z" style="fill:rgb(57,57,57);"/>
    </g>
    <g transform="matrix(1.97372,0.0234149,-0.0187784,1.58289,-2226.37,-684.915)">
        <ellipse cx="1576.06" cy="1023.51" rx="166.598" ry="203.359" style="fill:white;"/>
        <clipPath id="_clip2">
            <ellipse cx="1576.06" cy="1023.51" rx="166.598" ry="203.359"/>
        </clipPath>
        <g clip-path="url(#_clip2)">
            <g transform="matrix(1.78794,-0.0264481,0.0179921,2.22312,-911.296,-960.672)">
                <circle cx="1426.3" cy="908.278" r="26.884" style="fill:rgb(62,62,62);"/>
                <clipPath id="_clip3">
                    <circle cx="1426.3" cy="908.278" r="26.884"/>
                </clipPath>
                <g clip-path="url(#_clip3)">
                    <g transform="matrix(0.343522,-8.2117e-19,0.000608602,0.344499,1066.5,568.642)">
                        <circle cx="1057.46" cy="955.9" r="24.177" style="fill:white;"/>
                    </g>
                </g>
            </g>
        </g>
    </g>
    <g transform="matrix(1.97372,0.0234149,-0.0187784,1.58289,-2226.37,-684.915)">
        <path d="M1576.06,820.152C1668.01,820.152 1742.66,911.275 1742.66,1023.51C1742.66,1135.75 1668.01,1226.87 1576.06,1226.87C1484.11,1226.87 1409.46,1135.75 1409.46,1023.51C1409.46,911.275 1484.11,820.152 1576.06,820.152ZM1576.04,838.684C1493.51,838.684 1426.35,922.771 1426.35,1023.51C1426.35,1124.25 1493.48,1200.43 1576.01,1200.43C1658.54,1200.43 1725.77,1124.25 1725.77,1023.51C1725.77,922.771 1658.57,838.684 1576.04,838.684Z" style="fill:rgb(57,57,57);"/>
    </g>
    <g transform="matrix(-1.97372,0.0234149,0.0187784,1.58289,4637.82,-684.915)">
        <ellipse cx="1576.06" cy="1023.51" rx="166.598" ry="203.359" style="fill:white;"/>
        <clipPath id="_clip4">
            <ellipse cx="1576.06" cy="1023.51" rx="166.598" ry="203.359"/>
        </clipPath>
        <g clip-path="url(#_clip4)">
            <g transform="matrix(1.78794,-0.0264481,0.0179921,2.22312,-911.296,-960.672)">
                <circle cx="1426.3" cy="908.278" r="26.884" style="fill:rgb(62,62,62);"/>
                <clipPath id="_clip5">
                    <circle cx="1426.3" cy="908.278" r="26.884"/>
                </clipPath>
                <g clip-path="url(#_clip5)">
                    <g transform="matrix(0.343522,-8.2117e-19,0.000608602,0.344499,1067.63,568.642)">
                        <circle cx="1057.46" cy="955.9" r="24.177" style="fill:white;"/>
                    </g>
                </g>
            </g>
        </g>
    </g>
    <g transform="matrix(-1.97372,0.0234149,0.0187784,1.58289,4637.82,-684.915)">
        <path d="M1576.06,820.152C1484.11,820.152 1409.46,911.275 1409.46,1023.51C1409.46,1135.75 1484.11,1226.87 1576.06,1226.87C1668.01,1226.87 1742.66,1135.75 1742.66,1023.51C1742.66,911.275 1668.01,820.152 1576.06,820.152ZM1576.06,841.209C1658.59,841.21 1725.77,922.771 1725.77,1023.51C1725.77,1124.25 1658.56,1202.36 1576.03,1202.36C1493.5,1202.36 1426.35,1124.25 1426.35,1023.51C1426.35,922.771 1493.53,841.21 1576.06,841.209Z" style="fill:rgb(57,57,57);"/>
    </g>
</svg>
