<?xml version="1.0" encoding="UTF-8" standalone="no"?>
<!DOCTYPE svg PUBLIC "-//W3C//DTD SVG 1.1//EN" "http://www.w3.org/Graphics/SVG/1.1/DTD/svg11.dtd">
<svg width="100%" height="100%" viewBox="0 0 2400 2400" version="1.1" xmlns="http://www.w3.org/2000/svg" xmlns:xlink="http://www.w3.org/1999/xlink" xml:space="preserve" xmlns:serif="http://www.serif.com/" style="fill-rule:evenodd;clip-rule:evenodd;stroke-linejoin:round;stroke-miterlimit:2;">
    <g transform="matrix(1,0,0,1,136,0)">
        <g transform="matrix(1.3764,0,0,1.3764,91.0403,-441.494)">
            <path d="M817.845,526.674C1181.46,528.482 1493.64,827.929 1493.64,1191.55C1493.64,1555.8 1171.02,1823.11 806.77,1823.11C442.462,1823.11 131.352,1552.49 128.804,1188.19C126.198,815.44 457.696,524.884 817.845,526.674ZM817.544,587.218C489.863,585.589 186.976,848.621 189.348,1187.76C191.661,1518.61 475.911,1762.57 806.77,1762.57C1137.63,1762.57 1433.1,1522.4 1433.1,1191.55C1433.1,860.686 1148.4,588.863 817.544,587.218ZM817.348,621.85C1126.91,623.389 1393.75,881.978 1393.75,1191.55C1393.75,1500.7 1117.03,1714.56 807.874,1714.56C498.756,1714.56 230.862,1496.6 228.7,1187.49C226.482,870.187 510.771,620.326 817.348,621.85ZM817.047,682.393C542.809,681.03 287.259,903.234 289.244,1187.07C291.17,1462.53 532.4,1654.01 807.874,1654.01C1083.39,1654.01 1333.2,1467.06 1333.2,1191.55C1333.2,914.601 1093.99,683.77 817.047,682.393Z" style="fill:white;"/>
        </g>
        <g transform="matrix(1.3764,0,0,1.3764,91.0403,-441.494)">
            <path d="M817.544,587.218C1148.4,588.863 1433.1,860.686 1433.1,1191.55C1433.1,1522.4 1137.63,1762.57 806.77,1762.57C475.911,1762.57 191.661,1518.61 189.348,1187.76C186.976,848.621 489.863,585.589 817.544,587.218Z" style="fill:rgb(57,178,230);"/>
        </g>
        <g transform="matrix(1.3764,0,0,1.3764,91.0403,-441.494)">
            <path d="M817.544,587.218C1148.4,588.863 1433.1,860.686 1433.1,1191.55C1433.1,1522.4 1137.63,1762.57 806.77,1762.57C475.911,1762.57 191.661,1518.61 189.348,1187.76C186.976,848.621 489.863,585.589 817.544,587.218ZM817.348,621.85C510.771,620.326 226.482,870.187 228.7,1187.49C230.862,1496.6 498.756,1714.56 807.874,1714.56C1117.03,1714.56 1393.75,1500.7 1393.75,1191.55C1393.75,881.978 1126.91,623.389 817.348,621.85Z" style="fill:rgb(54,53,53);"/>
        </g>
        <g transform="matrix(-1.63202,0.303561,0.296198,1.59243,3920.22,-1127.3)">
            <ellipse cx="1576.06" cy="1023.51" rx="166.598" ry="203.359" style="fill:white;"/>
        </g>
        <g transform="matrix(-1.65327,0.307514,0.306626,1.6485,3948.71,-1180.17)">
            <path d="M1576.06,820.152C1484.11,820.152 1409.46,911.275 1409.46,1023.51C1409.46,1135.75 1484.11,1226.87 1576.06,1226.87C1668.01,1226.87 1743.29,1129.12 1743.29,1016.89C1743.29,904.649 1668.01,820.152 1576.06,820.152ZM1576.06,841.519C1657.79,841.519 1727.75,915.564 1727.75,1015.33C1727.75,1115.09 1657.79,1205.51 1576.06,1205.51C1494.33,1205.51 1429.73,1120.48 1429.73,1020.72C1429.73,920.956 1494.33,841.519 1576.06,841.519Z" style="fill:rgb(54,53,53);"/>
        </g>
        <g transform="matrix(0.668821,-0.645176,0.684517,0.709604,314.3,925.778)">
            <path d="M1322.44,961.11C1297.4,943.409 1111.7,826.545 1110.23,826.04C1028.01,797.841 894.848,781 829.609,769.244C790.355,762.171 797.316,756.902 793.827,752.213C764.827,713.233 916.001,629.313 967.841,604.417C1084.79,548.25 1289.09,571.761 1318.76,845.946" style="fill:rgb(57,178,230);"/>
        </g>
        <g transform="matrix(3.33304,0.242838,-0.217894,2.99068,-2133.08,-554.054)">
            <path d="M1227.08,330.183C1233.01,330.767 1242.5,337.766 1242.27,339.629C1242.03,341.491 1231.16,340.499 1225.67,341.36C1218.06,342.553 1217.13,340.072 1196.63,346.783C1176.67,353.319 1157.94,363.995 1133.71,379.73C1112.44,393.541 1109.37,395.92 1101.29,401.666C1095.43,405.828 1076.88,419.018 1078.57,414.66C1083.38,402.276 1098.31,393.812 1107.06,385.773C1111.07,382.088 1121.84,372.703 1139.95,361.932C1154.82,353.085 1161.88,346.229 1182.36,337.727C1205.92,327.948 1217.28,329.221 1227.08,330.183Z" style="fill:rgb(54,53,53);"/>
        </g>
        <g transform="matrix(-1.89829,-0.113955,-0.096243,1.60325,4128.45,-464.005)">
            <ellipse cx="1576.06" cy="1023.51" rx="166.598" ry="203.359" style="fill:white;"/>
        </g>
        <g transform="matrix(-1.89829,-0.113955,-0.096243,1.60325,4128.45,-464.005)">
            <path d="M1576.06,820.152C1484.11,820.152 1409.46,911.275 1409.46,1023.51C1409.46,1135.75 1484.11,1226.87 1576.06,1226.87C1668.01,1226.87 1742.66,1135.75 1742.66,1023.51C1742.66,911.275 1668.01,820.152 1576.06,820.152ZM1576.06,840.906C1658.48,840.906 1725.35,918.465 1725.35,1019.08C1725.35,1119.69 1658.48,1206.12 1576.06,1206.12C1493.64,1206.12 1425.41,1123.35 1425.41,1022.74C1425.41,922.131 1493.64,840.906 1576.06,840.906Z" style="fill:rgb(54,53,53);"/>
        </g>
        <path d="M1358.96,962.771C1333.92,945.07 1164.7,808.44 1163.38,807.617C1086.4,759.702 1017.35,729.876 952.49,705.465C894.65,683.698 844.497,690.329 840.119,684.445C811.12,645.465 916.001,629.313 967.841,604.417C1084.79,548.25 1331.06,620.218 1360.73,894.403" style="fill:rgb(57,178,230);"/>
        <g transform="matrix(0.0961056,-0.254017,0.82021,0.310321,459.253,763.431)">
            <path d="M2083.14,694.895C2163.17,665.533 2307.93,820.7 2307.93,975.657C2307.93,1130.61 2159.59,1320.75 2065.43,1295.73C1970.42,1270.49 1931.39,1181.93 1931.39,1026.97C1931.39,872.016 1961.26,739.617 2083.14,694.895Z" style="fill:white;fill-opacity:0.39;"/>
        </g>
        <g transform="matrix(-3.608,0.042887,0.0400868,3.37243,5238.09,-498.124)">
            <path d="M1217.6,330.466C1223.53,331.049 1233.86,341.357 1233.42,343.293C1232.98,345.23 1221.11,341.504 1214.98,342.086C1208.84,342.667 1217.13,340.072 1196.63,346.783C1176.67,353.319 1157.94,363.995 1133.71,379.73C1112.44,393.541 1106.32,400.225 1098.24,405.971C1092.38,410.133 1080.51,422.332 1081.52,417.775C1083.66,408.166 1098.8,393.049 1107.41,384.389C1112.49,379.292 1120.66,372.536 1136.65,361.973C1163.98,343.92 1166.03,342.102 1180.39,336.508C1204.14,327.263 1207.8,329.503 1217.6,330.466Z" style="fill:rgb(54,53,53);"/>
        </g>
        <g transform="matrix(3.58683,-0.368816,0.405052,4.04136,-3805.11,-2112.71)">
            <circle cx="1426.3" cy="908.278" r="26.884" style="fill:rgb(62,62,62);"/>
            <clipPath id="_clip1">
                <circle cx="1426.3" cy="908.278" r="26.884"/>
            </clipPath>
            <g clip-path="url(#_clip1)">
                <g transform="matrix(0.343522,-8.2117e-19,0.000608602,0.344499,1067.63,568.642)">
                    <circle cx="1057.46" cy="955.9" r="24.177" style="fill:white;"/>
                </g>
            </g>
        </g>
        <g transform="matrix(3.5896,-0.068851,0.0680495,4.09743,-4031.26,-2602.85)">
            <circle cx="1426.3" cy="908.278" r="26.884" style="fill:rgb(62,62,62);"/>
            <clipPath id="_clip2">
                <circle cx="1426.3" cy="908.278" r="26.884"/>
            </clipPath>
            <g clip-path="url(#_clip2)">
                <g transform="matrix(0.343522,-8.2117e-19,0.000608602,0.344499,1067.63,568.642)">
                    <circle cx="1057.46" cy="955.9" r="24.177" style="fill:white;"/>
                </g>
            </g>
        </g>
    </g>
    <g transform="matrix(0.953331,0.0365731,-0.0383353,0.999265,564.842,-98.0613)">
        <path d="M603.357,362.916C631.637,357.763 656.262,369.502 661.414,397.782C666.567,426.062 635.84,438.822 607.56,443.975L315.974,478.789C256.239,486.964 127.671,500.297 42.516,505.243C-11.033,508.354 -39.699,512.312 -38.714,501.258C-37.63,489.092 -18.133,486.081 26.031,475.126C133.737,448.409 322.568,416.579 345.249,411.071L603.357,362.916Z" style="fill:white;"/>
    </g>
    <g transform="matrix(0.915541,0.268257,-0.281182,0.959654,639.108,1463.36)">
        <path d="M603.357,362.916C631.637,357.763 656.262,369.502 661.414,397.782C666.567,426.062 635.84,438.822 607.56,443.975L315.974,478.789C256.239,486.964 127.671,500.297 42.516,505.243C-11.033,508.354 -39.699,512.312 -38.714,501.258C-37.63,489.092 -18.133,486.081 26.031,475.126C133.737,448.409 322.568,416.579 345.249,411.071L603.357,362.916Z" style="fill:white;"/>
    </g>
    <g transform="matrix(1.08079,0.0106926,-0.00960389,0.970741,168.464,71.9023)">
        <path d="M603.357,362.916C631.637,357.763 656.262,369.502 661.414,397.782C666.567,426.062 635.84,438.822 607.56,443.975L315.974,478.789C256.239,486.964 127.671,500.297 42.516,505.243C-11.033,508.354 -39.699,512.312 -38.714,501.258C-37.63,489.092 -18.133,486.081 26.031,475.126C133.737,448.409 322.568,416.579 345.249,411.071L603.357,362.916Z" style="fill:white;"/>
    </g>
    <g transform="matrix(0.540198,0.164521,-0.297104,0.975527,208.562,708.548)">
        <path d="M603.357,362.916C631.637,357.763 656.262,369.502 661.414,397.782C666.567,426.062 635.84,438.822 607.56,443.975L315.974,478.789C256.239,486.964 127.671,500.297 42.516,505.243C-11.033,508.354 -39.699,512.312 -38.714,501.258C-37.63,489.092 -18.133,486.081 26.031,475.126C133.737,448.409 322.568,416.579 345.249,411.071L603.357,362.916Z" style="fill:white;"/>
    </g>
    <g transform="matrix(0.879432,0.288514,-0.311722,0.950173,386.479,1307.51)">
        <path d="M603.357,362.916C631.637,357.763 656.262,369.502 661.414,397.782C666.567,426.062 635.84,438.822 607.56,443.975L315.974,478.789C256.239,486.964 127.671,500.297 42.516,505.243C-11.033,508.354 -39.699,512.312 -38.714,501.258C-37.63,489.092 -18.133,486.081 26.031,475.126C133.737,448.409 322.568,416.579 345.249,411.071L603.357,362.916Z" style="fill:white;"/>
    </g>
    <g transform="matrix(1.12784,0,0,1.23258,47.1441,-803.189)">
        <path d="M1370.42,2179.17C1297.29,2200.91 1231.41,2217.87 1149.67,2217.87C757.055,2217.87 438.302,1945.38 438.302,1609.75C438.302,1553.92 447.121,1499.84 463.632,1448.47C462.709,1462.1 462.242,1475.83 462.242,1489.65C462.242,1876.19 828.09,2190.01 1278.71,2190.01C1314.07,2190.01 1336.25,2182.92 1370.42,2179.17Z" style="fill:rgb(14,131,181);"/>
    </g>
</svg>
