<?xml version="1.0" encoding="UTF-8" standalone="no"?>
<!DOCTYPE svg PUBLIC "-//W3C//DTD SVG 1.1//EN" "http://www.w3.org/Graphics/SVG/1.1/DTD/svg11.dtd">
<svg width="100%" height="100%" viewBox="0 0 2400 2400" version="1.1" xmlns="http://www.w3.org/2000/svg" xmlns:xlink="http://www.w3.org/1999/xlink" xml:space="preserve" xmlns:serif="http://www.serif.com/" style="fill-rule:evenodd;clip-rule:evenodd;stroke-linecap:round;stroke-linejoin:round;stroke-miterlimit:1.5;">
    <g transform="matrix(1,0,0,1,43.7047,-29.7545)">
        <path d="M867.946,2035.28C799.747,2091.85 712.187,2125.87 616.744,2125.87C399.364,2125.87 222.88,1949.39 222.88,1732.01C222.88,1536.56 365.548,1374.17 552.334,1343.4C538.229,1313.1 528.228,1279.42 521.29,1246.45C503.532,1162.06 505.428,1082.87 505.428,1082.87C505.646,1073.67 513.289,1066.38 522.485,1066.6C531.681,1066.82 538.97,1074.46 538.752,1083.66C538.752,1083.66 536.981,1159.14 553.909,1239.59C561.096,1273.74 571.562,1308.91 587.238,1339.24C595.544,1338.62 603.921,1338.26 612.361,1338.17C617.397,1304.6 625.774,1271.71 641.955,1241.78L641.955,367.129C641.955,348.72 656.879,333.796 675.289,333.796C675.289,333.796 818.966,332.623 851.751,333.796C858.89,334.051 866.327,336.484 871.996,340.831C934.62,388.864 2129.05,1335 2129.05,1335C2137.05,1341.33 2141.71,1350.96 2141.71,1361.15L2141.71,1781.56C2141.71,1797.72 2130.11,1811.56 2114.2,1814.38L867.946,2035.28Z" style="fill:rgb(255,218,0);"/>
        <path d="M558.622,991.068L558.622,367.129L560.991,343.705L567.824,321.692L578.596,301.842L592.793,284.633L610.001,270.437L629.851,259.665L651.864,252.832C651.864,252.832 675.289,250.463 674.608,250.465C674.608,250.465 821.265,249.319 854.729,250.516L889.393,256.93L922.711,274.708C985.387,322.779 2180.8,1269.68 2180.75,1269.64L2199.47,1288.26L2213.39,1310.32L2222.06,1334.91L2225.04,1361.15L2225.04,1781.56L2217.81,1822L2197.78,1856.51L2167.3,1882.25L2128.74,1896.43L903.089,2113.69C823.302,2173.65 724.143,2209.21 616.744,2209.21C353.371,2209.21 139.546,1995.38 139.546,1732.01C139.546,1529.16 266.412,1355.73 445.042,1286.71C443.123,1279 441.358,1271.29 439.742,1263.61C420.077,1170.15 422.082,1082.41 422.118,1080.89L430.941,1042.13L453.078,1010.9L485.317,990.27L524.46,983.294L558.622,991.068ZM867.946,2035.28L2114.2,1814.38C2130.11,1811.56 2141.71,1797.72 2141.71,1781.56L2141.71,1361.15C2141.71,1350.96 2137.05,1341.33 2129.05,1335C2129.05,1335 934.62,388.864 871.996,340.831C866.327,336.484 858.89,334.051 851.751,333.796C818.966,332.623 675.289,333.796 675.289,333.796C656.879,333.796 641.955,348.72 641.955,367.129L641.955,1241.78C625.774,1271.71 617.397,1304.6 612.361,1338.17C603.921,1338.26 595.544,1338.62 587.238,1339.24C571.562,1308.91 561.096,1273.74 553.909,1239.59C536.981,1159.14 538.752,1083.66 538.752,1083.66C538.97,1074.46 531.681,1066.82 522.485,1066.6C513.289,1066.38 505.646,1073.67 505.428,1082.87C505.428,1082.87 503.532,1162.06 521.29,1246.45C528.228,1279.42 538.229,1313.1 552.334,1343.4C365.548,1374.17 222.88,1536.56 222.88,1732.01C222.88,1949.39 399.364,2125.87 616.744,2125.87C712.187,2125.87 799.747,2091.85 867.946,2035.28Z" style="fill:white;"/>
    </g>
    <g transform="matrix(1,0,0,1,43.7047,-29.7545)">
        <g>
            <path d="M851.309,2003.75L675.289,2003.75L675.289,367.129L851.309,366.969L2108.38,1361.15L2108.38,1781.56L851.309,2004.38L851.309,2003.75Z" style="fill:rgb(255,218,0);"/>
            <path d="M844.835,2037.08L675.289,2037.08C656.879,2037.08 641.955,2022.15 641.955,2003.75L641.955,367.129C641.955,348.732 656.861,333.813 675.258,333.796L851.278,333.635C858.794,333.629 866.091,336.162 871.986,340.824L2129.05,1335C2137.05,1341.33 2141.71,1350.96 2141.71,1361.15L2141.71,1781.56C2141.71,1797.72 2130.11,1811.56 2114.2,1814.38L857.126,2037.2C853.008,2037.93 848.843,2037.87 844.835,2037.08ZM851.309,2003.75L851.309,2004.38L2108.38,1781.56L2108.38,1361.15L851.309,366.969L675.289,367.129L675.289,2003.75L851.309,2003.75Z" style="fill:rgb(62,62,62);"/>
            <g>
                <g>
                    <g transform="matrix(6.37796e-17,1,-0.869886,5.37716e-17,2574.94,-200.044)">
                        <path d="M2204.43,1981.44L567.013,1981.44L1561.81,536.346L1981.6,536.346L2204.43,1981.44Z" style="fill:rgb(255,218,0);"/>
                    </g>
                    <g transform="matrix(5.21181e-17,0.809553,-0.869886,5.36751e-17,2574.94,-92.0584)">
                        <path d="M1371.04,1981.44L567.013,1981.44L1795.07,536.346L1921.78,536.346L1371.04,1981.44Z" style="fill-opacity:0.07;"/>
                    </g>
                    <g transform="matrix(0.850835,0,0,1.00484,134.794,-5.18263)">
                        <rect x="635.252" y="370.519" width="207.552" height="1628.73" style="fill:rgb(192,165,0);"/>
                    </g>
                </g>
                <g>
                    <path d="M1195.44,639.437L1228.92,665.038L1242.43,1307.05L1209.24,1297.49L1195.44,639.437Z" style="fill:rgb(192,165,0);"/>
                    <path d="M1481.35,865.429L1514.75,892.412L1520.94,1388.68L1487.8,1378.85L1481.35,865.429Z" style="fill:rgb(192,165,0);"/>
                    <path d="M1667.63,1012.78L1700.96,1039.54L1700.96,1440.96L1667.63,1431.32L1667.63,1012.78Z" style="fill:rgb(192,165,0);"/>
                    <path d="M1837.84,1147.47L1871.18,1174.14L1871.18,1490.35L1837.84,1480.99L1837.84,1147.47Z" style="fill:rgb(192,165,0);"/>
                    <path d="M1958.5,1243.12L1992.06,1269.41L1991.83,1525.18L1958.5,1515.46L1958.5,1243.12Z" style="fill:rgb(192,165,0);"/>
                    <path d="M2038.71,1306.66L2072.04,1333.13L2072.04,1549L2038.71,1539.01L2038.71,1306.66Z" style="fill:rgb(192,165,0);"/>
                </g>
            </g>
        </g>
        <g transform="matrix(1.33144,0,0,1.33144,124.201,299.383)">
            <circle cx="369.933" cy="1076" r="270.783" style="fill:rgb(255,66,71);"/>
            <path d="M369.933,780.181C533.2,780.181 665.752,912.732 665.752,1076C665.752,1239.27 533.2,1371.82 369.933,1371.82C206.666,1371.82 74.114,1239.27 74.114,1076C74.114,912.732 206.666,780.181 369.933,780.181ZM369.933,805.216C220.484,805.216 99.15,926.55 99.15,1076C99.15,1225.45 220.484,1346.78 369.933,1346.78C519.382,1346.78 640.716,1225.45 640.716,1076C640.716,926.55 519.382,805.216 369.933,805.216Z" style="fill:rgb(54,53,53);"/>
            <g transform="matrix(0.962513,-0.147286,0.142552,0.931575,-555.399,-368.694)">
                <ellipse cx="792.429" cy="1604.88" rx="155.018" ry="153.953" style="fill:white;fill-opacity:0.4;"/>
            </g>
            <g transform="matrix(1.01076,0,0,1,-38.0569,-15.128)">
                <path d="M300.505,897.396C335.998,858.683 444.406,805.782 543.621,841.047" style="fill:rgb(255,66,71);stroke:rgb(54,53,53);stroke-width:24.9px;"/>
            </g>
            <g transform="matrix(1,0,0,1,14.3653,-19.6229)">
                <path d="M284.476,608.372C284.476,608.372 280.651,769.71 346.055,841.188" style="fill:none;stroke:rgb(54,53,53);stroke-width:25.04px;"/>
            </g>
            <g transform="matrix(1,0,0,1,16.9572,9.50342)">
                <path d="M649.193,674.043C649.193,674.043 561.203,578.627 439.223,647.96C372.007,686.166 362.967,749.439 357.924,809.995L649.193,674.043" style="fill:rgb(0,255,33);stroke:rgb(54,53,53);stroke-width:25.04px;"/>
            </g>
        </g>
    </g>
</svg>
