<?xml version="1.0" encoding="UTF-8" standalone="no"?>
<!DOCTYPE svg PUBLIC "-//W3C//DTD SVG 1.1//EN" "http://www.w3.org/Graphics/SVG/1.1/DTD/svg11.dtd">
<svg width="100%" height="100%" viewBox="0 0 2400 2400" version="1.1" xmlns="http://www.w3.org/2000/svg" xmlns:xlink="http://www.w3.org/1999/xlink" xml:space="preserve" xmlns:serif="http://www.serif.com/" style="fill-rule:evenodd;clip-rule:evenodd;stroke-linecap:round;stroke-linejoin:round;stroke-miterlimit:1.5;">
    <g transform="matrix(0.848332,0,0,1,193.71,292.612)">
        <path d="M2038.99,493.72C2038.99,606.749 1930.82,698.514 1797.58,698.514L574.384,698.514C441.147,698.514 332.976,606.749 332.976,493.72C332.976,380.691 441.147,288.925 574.384,288.925L1797.58,288.925C1930.82,288.925 2038.99,380.691 2038.99,493.72ZM1984.96,493.72C1984.96,405.987 1901,334.759 1797.58,334.759L574.384,334.759C470.966,334.759 387.003,405.987 387.003,493.72C387.003,581.453 470.966,652.681 574.384,652.681L1797.58,652.681C1901,652.681 1984.96,581.453 1984.96,493.72Z" style="fill:rgb(54,53,53);"/>
        <path d="M2161.78,493.72C2161.78,664.24 1998.59,802.681 1797.58,802.681L574.384,802.681C373.378,802.681 210.186,664.24 210.186,493.72C210.186,323.2 373.378,184.759 574.384,184.759L1797.58,184.759C1998.59,184.759 2161.78,323.2 2161.78,493.72ZM2038.99,493.72C2038.99,380.691 1930.82,288.925 1797.58,288.925L574.384,288.925C441.147,288.925 332.976,380.691 332.976,493.72C332.976,606.749 441.147,698.514 574.384,698.514L1797.58,698.514C1930.82,698.514 2038.99,606.749 2038.99,493.72ZM1984.96,493.72C1984.96,581.453 1901,652.681 1797.58,652.681L574.384,652.681C470.966,652.681 387.003,581.453 387.003,493.72C387.003,405.987 470.966,334.759 574.384,334.759L1797.58,334.759C1901,334.759 1984.96,405.987 1984.96,493.72ZM1862.17,493.72C1862.17,463.478 1833.23,438.925 1797.58,438.925L574.384,438.925C538.736,438.925 509.793,463.478 509.793,493.72C509.793,523.961 538.736,548.514 574.384,548.514L1797.58,548.514C1833.23,548.514 1862.17,523.961 1862.17,493.72Z" style="fill:white;"/>
    </g>
    <g transform="matrix(0.848332,0,0,1,193.71,292.612)">
        <path d="M2011.98,493.72C2011.98,594.101 1915.91,675.597 1797.58,675.597L574.384,675.597C456.057,675.597 359.99,594.101 359.99,493.72C359.99,393.339 456.057,311.842 574.384,311.842L1797.58,311.842C1915.91,311.842 2011.98,393.339 2011.98,493.72Z" style="fill:url(#_Linear1);stroke:rgb(54,53,53);stroke-width:49.43px;"/>
    </g>
    <defs>
        <linearGradient id="_Linear1" x1="0" y1="0" x2="1" y2="0" gradientUnits="userSpaceOnUse" gradientTransform="matrix(-5.58576,1484.54,-1749.95,-4.73857,1194.46,305.625)"><stop offset="0" style="stop-color:rgb(111,248,0);stop-opacity:1"/><stop offset="1" style="stop-color:rgb(66,147,0);stop-opacity:1"/></linearGradient>
    </defs>
</svg>
