<?xml version="1.0" encoding="UTF-8" standalone="no"?>
<!DOCTYPE svg PUBLIC "-//W3C//DTD SVG 1.1//EN" "http://www.w3.org/Graphics/SVG/1.1/DTD/svg11.dtd">
<svg width="100%" height="100%" viewBox="0 0 2400 2400" version="1.1" xmlns="http://www.w3.org/2000/svg" xmlns:xlink="http://www.w3.org/1999/xlink" xml:space="preserve" xmlns:serif="http://www.serif.com/" style="fill-rule:evenodd;clip-rule:evenodd;stroke-linejoin:round;stroke-miterlimit:2;">
    <g transform="matrix(0.39344,0,0,0.39344,73.7171,685.062)">
        <path d="M1929.17,582.339C1694.65,582.339 1694.65,689.355 1694.65,750.832L1694.65,2007.69C1694.65,2050.95 1694.65,2066.89 1662.77,2066.89C1646.84,2066.89 1644.56,2064.62 1624.07,2037.29L695.081,671.139C685.973,657.478 683.696,655.201 672.312,643.816L672.312,1827.82C672.312,1889.29 672.312,1996.31 906.835,1996.31L906.835,2066.89L640.435,2060.06L374.035,2066.89L374.035,1996.31C608.558,1996.31 608.558,1889.29 608.558,1827.82L608.558,639.262C608.558,596.001 606.281,593.724 553.912,586.893C519.758,584.616 474.219,582.339 440.066,582.339L374.035,582.339L374.035,511.755L761.112,511.755C804.373,511.755 806.65,514.032 827.142,541.355L1630.9,1723.08L1630.9,750.832C1630.9,689.355 1630.9,582.339 1396.37,582.339L1396.37,511.755L1662.77,518.585L1929.17,511.755L1929.17,582.339ZM3648.25,1295.02C3648.25,1754.95 3304.43,2116.99 2890.03,2116.99C2484.74,2116.99 2134.1,1761.79 2134.1,1295.02C2134.1,825.97 2482.47,461.662 2890.03,461.662C3304.43,461.662 3648.25,830.524 3648.25,1295.02ZM3413.73,1263.14C3413.73,680.247 3088.13,518.585 2890.03,518.585C2701.05,518.585 2368.62,673.416 2368.62,1263.14C2368.62,1857.42 2673.73,2057.78 2892.31,2057.78C3101.79,2057.78 3413.73,1866.52 3413.73,1263.14ZM5337.73,1037.72L5280.8,1037.72C5248.93,671.139 5214.77,596.001 4870.96,596.001C4827.7,596.001 4766.22,596.001 4741.17,600.555C4700.19,609.662 4700.19,641.539 4700.19,687.078L4700.19,1887.02C4700.19,1964.43 4700.19,1996.31 4939.27,1996.31L5030.34,1996.31L5030.34,2066.89C4936.99,2060.06 4702.47,2060.06 4597.73,2060.06C4492.99,2060.06 4260.74,2060.06 4167.39,2066.89L4167.39,1996.31L4258.47,1996.31C4497.54,1996.31 4497.54,1964.43 4497.54,1887.02L4497.54,687.078C4497.54,634.708 4497.54,609.662 4449.73,600.555C4426.96,596.001 4367.76,596.001 4326.77,596.001C3982.96,596.001 3948.8,671.139 3916.93,1037.72L3860,1037.72L3903.27,525.416L5294.47,525.416L5337.73,1037.72Z" style="fill:rgb(26,26,26);"/>
        <path d="M1419.09,795.125C1411.55,794.534 1403.78,794.146 1396.37,794.146C1279.4,794.146 1184.57,699.317 1184.57,582.339L1184.57,511.755C1184.57,454.639 1207.63,399.943 1248.54,360.077C1289.44,320.211 1344.7,298.553 1401.8,300.017L1662.77,306.709L1923.74,300.017C1980.84,298.553 2036.11,320.211 2077.01,360.077C2117.91,399.943 2140.98,454.639 2140.98,511.755L2140.98,582.339C2140.98,605.169 2137.37,627.155 2130.68,647.757C2311.08,402.801 2589.68,249.855 2890.03,249.855C3209.24,249.855 3499.2,419.237 3677.28,684.351L3692.21,507.594C3701.47,397.915 3793.2,313.609 3903.27,313.609L5294.47,313.609C5404.53,313.609 5496.26,397.915 5505.52,507.594L5548.78,1019.9C5553.77,1078.96 5533.78,1137.41 5493.67,1181.05C5453.56,1224.69 5397,1249.53 5337.73,1249.53L5280.8,1249.53C5170.94,1249.53 5079.31,1165.53 5069.79,1056.07C5063.05,978.503 5056.73,915.666 5046,865.061C5042.99,850.858 5036.71,832.225 5033.23,822.379C5016.76,819.673 4966.48,811.96 4912,808.992L4912,1784.15C4920.91,1784.37 4930.07,1784.5 4939.27,1784.5L5030.34,1784.5C5147.32,1784.5 5242.15,1879.33 5242.15,1996.31L5242.15,2066.89C5242.15,2125.75 5217.66,2181.96 5174.54,2222.03C5131.43,2262.11 5073.59,2282.43 5014.89,2278.14C4924.87,2271.55 4698.72,2271.87 4597.73,2271.87C4496.75,2271.87 4272.85,2271.55 4182.85,2278.14C4124.14,2282.43 4066.3,2262.11 4023.19,2222.03C3980.08,2181.96 3955.58,2125.75 3955.58,2066.89L3955.58,1996.31C3955.58,1879.33 4050.41,1784.5 4167.39,1784.5L4258.47,1784.5C4267.66,1784.5 4276.82,1784.37 4285.74,1784.15L4285.74,808.992C4231.25,811.96 4180.98,819.673 4164.5,822.379C4161.02,832.225 4154.74,850.858 4151.73,865.061C4141.01,915.666 4134.68,978.503 4127.94,1056.07C4118.42,1165.53 4026.79,1249.53 3916.93,1249.53L3860,1249.53L3859.16,1249.53C3859.76,1264.6 3860.06,1279.76 3860.06,1295.02C3860.06,1878.08 3415.37,2328.79 2890.03,2328.79C2376.11,2328.79 1922.29,1886.9 1922.29,1295.02C1922.29,1088.92 1976.71,899.991 2069.35,741.131C2032,774.124 1982.92,794.146 1929.17,794.146C1921.77,794.146 1914,794.534 1906.46,795.125L1906.46,2007.69L1897.68,2100.33L1854.17,2189.56L1813.97,2229.35L1767.76,2257.05L1717.52,2273.29L1662.77,2278.7L1608.82,2273.29L1547.45,2250.67L1496.53,2213.52L1454.62,2164.38C1452.66,2161.76 1450.76,2159.1 1448.92,2156.39L884.119,1325.81L884.119,1783.52C891.662,1784.11 899.43,1784.5 906.835,1784.5C1023.81,1784.5 1118.64,1879.33 1118.64,1996.31L1118.64,2066.89C1118.64,2124.01 1095.57,2178.7 1054.67,2218.57C1013.77,2258.44 958.503,2280.09 901.406,2278.63L640.435,2271.94L379.464,2278.63C322.367,2280.09 267.098,2258.44 226.197,2218.57C185.295,2178.7 162.228,2124.01 162.228,2066.89L162.228,1996.31C162.228,1879.33 257.057,1784.5 374.035,1784.5C381.439,1784.5 389.208,1784.11 396.751,1783.52L396.751,794.146L374.035,794.146C257.057,794.146 162.228,699.317 162.228,582.339L162.228,511.755C162.228,394.777 257.057,299.948 374.035,299.948L761.112,299.948L835.718,305.907L892.236,324.373L945.921,358.634L996.588,414.271C998.546,416.881 1000.44,419.537 1002.28,422.235L1419.09,1035.05L1419.09,795.125ZM1929.17,582.339L1929.17,511.755L1662.77,518.585L1396.37,511.755L1396.37,582.339C1630.9,582.339 1630.9,689.355 1630.9,750.832L1630.9,1723.08L827.142,541.355C806.65,514.032 804.373,511.755 761.112,511.755L374.035,511.755L374.035,582.339L440.066,582.339C474.219,582.339 519.758,584.616 553.912,586.893C606.281,593.724 608.558,596.001 608.558,639.262L608.558,1827.82C608.558,1889.29 608.558,1996.31 374.035,1996.31L374.035,2066.89L640.435,2060.06L906.835,2066.89L906.835,1996.31C672.312,1996.31 672.312,1889.29 672.312,1827.82L672.312,643.816C683.696,655.201 685.973,657.478 695.081,671.139L1624.07,2037.29C1644.56,2064.62 1646.84,2066.89 1662.77,2066.89C1694.65,2066.89 1694.65,2050.95 1694.65,2007.69L1694.65,750.832C1694.65,689.355 1694.65,582.339 1929.17,582.339ZM5337.73,1037.72L5294.47,525.416L3903.27,525.416L3860,1037.72L3916.93,1037.72C3948.8,671.139 3982.96,596.001 4326.77,596.001C4367.76,596.001 4426.96,596.001 4449.73,600.555C4497.54,609.662 4497.54,634.708 4497.54,687.078L4497.54,1887.02C4497.54,1964.43 4497.54,1996.31 4258.47,1996.31L4167.39,1996.31L4167.39,2066.89C4260.74,2060.06 4492.99,2060.06 4597.73,2060.06C4702.47,2060.06 4936.99,2060.06 5030.34,2066.89L5030.34,1996.31L4939.27,1996.31C4700.19,1996.31 4700.19,1964.43 4700.19,1887.02L4700.19,687.078C4700.19,641.539 4700.19,609.662 4741.17,600.555C4766.22,596.001 4827.7,596.001 4870.96,596.001C5214.77,596.001 5248.93,671.139 5280.8,1037.72L5337.73,1037.72ZM3648.25,1295.02C3648.25,830.524 3304.43,461.662 2890.03,461.662C2482.47,461.662 2134.1,825.97 2134.1,1295.02C2134.1,1761.79 2484.74,2116.99 2890.03,2116.99C3304.43,2116.99 3648.25,1754.95 3648.25,1295.02ZM3413.73,1263.14C3413.73,1866.52 3101.79,2057.78 2892.31,2057.78C2673.73,2057.78 2368.62,1857.42 2368.62,1263.14C2368.62,673.416 2701.05,518.585 2890.03,518.585C3088.13,518.585 3413.73,680.247 3413.73,1263.14ZM3201.92,1263.14C3201.92,867.839 3024.38,730.392 2890.03,730.392C2761.93,730.392 2580.43,863.375 2580.43,1263.14C2580.43,1675.92 2740.48,1845.98 2892.31,1845.98C3037.77,1845.98 3201.92,1682.12 3201.92,1263.14Z" style="fill:white;"/>
    </g>
</svg>
