<svg xmlns="http://www.w3.org/2000/svg" viewBox="0 0 922 650">
  <path d="M796 52Q740 52 686 80Q667 91 644 107Q637 113 637 118Q637 124 642.0 129.5Q647 135 653.5 143.5Q660 152 665 158Q676 171 682 176Q689 182 694 182Q696 182 707 176Q709 174 717.0 169.5Q725 165 728.5 163.0Q732 161 738.5 158.0Q745 155 749.5 153.5Q754 152 760.5 150.5Q767 149 773 149Q786 149 802.0 156.0Q818 163 825 170Q846 191 846 232Q846 260 834.0 274.0Q822 288 801 296Q780 304 725 304Q715 304 714 316L712 369Q712 374 723 386Q731 395 754.5 416.0Q778 437 787 447L796 459H668Q658 460 656.0 461.0Q654 462 654 468V473Q654 481 654.5 506.5Q655 532 655 540Q656 550 659.0 553.5Q662 557 673 557Q677 557 685.0 557.0Q693 557 700.0 557.0Q707 557 713 557Q719 557 733.0 557.5Q747 558 754 558Q781 558 836.0 557.0Q891 556 918 556Q929 556 931.5 552.0Q934 548 935 535Q935 534 935.0 529.0Q935 524 935.5 510.5Q936 497 936 477Q936 469 925 459Q920 454 913.0 446.5Q906 439 901.5 434.5Q897 430 896 429Q890 423 883.0 417.0Q876 411 868.0 403.0Q860 395 855 390Q854 390 849 381Q853 380 858.0 378.5Q863 377 868.5 374.5Q874 372 877 371Q896 365 912.5 348.5Q929 332 938 315Q957 277 957 236Q957 202 941 154Q935 138 923 120Q902 89 842 61Q821 52 796 52ZM236 90 173 91Q155 91 152.0 94.0Q149 97 149 115Q148 236 148.0 258.0Q148 280 147.5 319.5Q147 359 147 381V415Q113 387 107 382Q98 375 92 375Q87 375 81 386Q45 446 37 459Q35 462 35 466Q35 470 39 474L47 482Q60 493 90.5 511.0Q121 529 135 540Q144 548 157 548Q167 548 180.5 549.0Q194 550 203 550Q218 550 231 550Q245 550 249.5 547.0Q254 544 255 534V462Q255 442 255.5 403.0Q256 364 256 344V228Q257 178 257 131Q257 92 236 90ZM367 -92H366Q353 -92 336 -91Q330 -90 328.5 -87.5Q327 -85 326 -79Q324 -57 324 -45Q324 -1 342 44Q359 85 415 138Q424 146 441.5 161.0Q459 176 468 183Q502 215 502 240Q502 257 488.5 269.0Q475 281 458 281Q427 281 416 265Q415 263 407.0 253.0Q399 243 397 239Q394 233 389 233Q387 233 384 234Q371 239 361.5 244.0Q352 249 341.5 255.0Q331 261 323 265Q318 267 318 271Q318 306 360.0 340.5Q402 375 465 375Q480 375 491 374Q526 370 547 354Q550 352 557.0 346.5Q564 341 568 337Q605 298 605 252Q605 236 602 215Q599 198 587.5 180.5Q576 163 568.0 154.5Q560 146 541 128Q518 105 505 94Q492 83 470.5 56.0Q449 29 445 14Q442 5 441 -1H460Q465 -1 530.0 0.5Q595 2 610 2Q616 2 617.5 -2.0Q619 -6 619 -15Q619 -26 618.0 -47.5Q617 -69 616 -79Q616 -88 612.5 -90.0Q609 -92 598 -92H555Q513 -92 443 -91Q430 -91 404.5 -91.5Q379 -92 367 -92Z" transform="translate(-35 558) scale(1 -1)" fill="currentColor"/>
</svg>
