<svg xmlns="http://www.w3.org/2000/svg" viewBox="0 0 572.446 721.286">
  <path d="M574 352Q603 302 606.5 248.0Q610 194 596.5 154.5Q583 115 558 78Q550 65 535.0 41.5Q520 18 513.5 9.0Q507 0 495.0 -16.5Q483 -33 475.0 -39.5Q467 -46 454.5 -55.0Q442 -64 429.0 -68.0Q416 -72 399 -75Q376 -78 350.5 -72.0Q325 -66 310 -51Q297 -61 285.0 -66.0Q273 -71 266.5 -72.0Q260 -73 244 -75Q216 -77 195.0 -69.0Q174 -61 158.0 -40.0Q142 -19 131.5 1.5Q121 22 103.0 58.0Q85 94 70 119Q44 162 37.5 205.0Q31 248 40.0 280.5Q49 313 69.5 343.5Q90 374 111.0 393.5Q132 413 156 429Q184 447 221.0 451.0Q258 455 284 451Q284 455 285 459Q288 492 286 499Q285 504 285 508Q246 490 216 501Q181 513 148.0 535.5Q115 558 100.5 572.0Q86 586 59 614Q66 614 84.0 621.5Q102 629 121.0 636.0Q140 643 168.0 645.0Q196 647 222 635Q268 615 304 550Q308 553 313 556Q374 586 384 611Q394 637 418 627Q424 623 429.0 619.5Q434 616 437.0 614.5Q440 613 442.0 610.5Q444 608 445.0 608.0Q446 608 445.5 605.0Q445 602 444.0 601.0Q443 600 440.0 595.0Q437 590 435 586L433 584Q432 582 430 576Q423 557 407 546Q405 545 398.5 538.5Q392 532 388 530Q345 510 340 496Q334 481 334 455Q415 468 473.5 447.0Q532 426 574 352Z" transform="translate(-34.7742 645.286) scale(1 -1)" fill="currentColor"/>
</svg>
