<?xml version="1.0" encoding="UTF-8" standalone="no"?>
<!DOCTYPE svg PUBLIC "-//W3C//DTD SVG 1.1//EN" "http://www.w3.org/Graphics/SVG/1.1/DTD/svg11.dtd">
<svg width="100%" height="100%" viewBox="0 0 2400 2400" version="1.1" xmlns="http://www.w3.org/2000/svg" xmlns:xlink="http://www.w3.org/1999/xlink" xml:space="preserve" xmlns:serif="http://www.serif.com/" style="fill-rule:evenodd;clip-rule:evenodd;stroke-linejoin:round;stroke-miterlimit:2;">
    <g transform="matrix(1.19975,0,0,1.08922,405.4,-92.4479)">
        <path d="M908.639,146.617C1052.09,146.618 1165.4,269.433 1165.4,416.639C1165.4,563.846 1052.09,686.661 908.639,686.661C803.492,686.661 730.47,745.684 683.272,830.918C628.434,929.949 605.682,1060.9 605.75,1186.94C605.818,1313.05 628.74,1444.06 683.723,1543.14C731.066,1628.45 804.224,1687.54 909.47,1687.54C1052.92,1687.54 1166.23,1810.35 1166.23,1957.56C1166.23,2104.76 1052.92,2227.58 909.47,2227.58C390.256,2227.58 92.511,1722.94 92.222,1187.25C91.933,651.393 389.265,146.618 908.639,146.617ZM908.639,242.252C440.205,242.252 178.785,703.893 179.046,1187.19C179.306,1670.39 441.137,2131.94 909.47,2131.94C1003.33,2131.94 1079.41,2053.87 1079.41,1957.56C1079.41,1861.25 1003.33,1783.17 909.47,1783.17C630.501,1783.17 519.081,1474.82 518.926,1187C518.771,899.281 629.769,591.027 908.639,591.027C1002.49,591.027 1078.58,512.951 1078.58,416.639C1078.58,320.328 1002.49,242.252 908.639,242.252Z" style="fill:white;"/>
    </g>
    <g transform="matrix(1.19975,0,0,1.08922,405.4,-92.4479)">
        <path d="M908.639,242.252C1002.49,242.252 1078.58,320.328 1078.58,416.639C1078.58,512.951 1002.49,591.027 908.639,591.027C629.769,591.027 518.771,899.281 518.926,1187C519.081,1474.82 630.501,1783.17 909.47,1783.17C1003.33,1783.17 1079.41,1861.25 1079.41,1957.56C1079.41,2053.87 1003.33,2131.94 909.47,2131.94C441.137,2131.94 179.306,1670.39 179.046,1187.19C178.785,703.893 440.205,242.252 908.639,242.252Z" style="fill:rgb(17,191,249);"/>
        <path d="M908.639,242.252C1002.49,242.252 1078.58,320.328 1078.58,416.639C1078.58,512.951 1002.49,591.027 908.639,591.027C629.769,591.027 518.771,899.281 518.926,1187C519.081,1474.82 630.501,1783.17 909.47,1783.17C1003.33,1783.17 1079.41,1861.25 1079.41,1957.56C1079.41,2053.87 1003.33,2131.94 909.47,2131.94C441.137,2131.94 179.306,1670.39 179.046,1187.19C178.785,703.893 440.205,242.252 908.639,242.252ZM908.639,291.982C466.68,291.982 223.948,731.179 224.194,1187.16C224.44,1643.08 467.581,2082.21 909.47,2082.21C977.546,2082.21 1034.26,2027.41 1034.26,1957.56C1034.26,1887.7 977.546,1832.9 909.47,1832.9C604.136,1832.9 473.948,1502.06 473.778,1187.03C473.608,872.077 603.374,541.297 908.639,541.297C976.715,541.297 1033.43,486.497 1033.43,416.639C1033.43,346.781 976.715,291.982 908.639,291.982Z" style="fill:rgb(54,53,53);"/>
    </g>
</svg>
