<?xml version="1.0" encoding="UTF-8" standalone="no"?>
<!DOCTYPE svg PUBLIC "-//W3C//DTD SVG 1.1//EN" "http://www.w3.org/Graphics/SVG/1.1/DTD/svg11.dtd">
<svg width="100%" height="100%" viewBox="0 0 2400 2400" version="1.1" xmlns="http://www.w3.org/2000/svg" xmlns:xlink="http://www.w3.org/1999/xlink" xml:space="preserve" xmlns:serif="http://www.serif.com/" style="fill-rule:evenodd;clip-rule:evenodd;stroke-linejoin:round;stroke-miterlimit:2;">
    <g transform="matrix(1,0,0,1,170.282,-151.266)">
        <path d="M974.177,1353.51C974.177,1534.46 838.906,1676.9 675.864,1676.9C516.406,1676.9 378.447,1537.15 378.447,1353.51C378.447,1168.96 515.51,1025.63 675.864,1025.63C838.906,1025.63 974.177,1170.76 974.177,1353.51ZM881.906,1340.96C881.906,1111.63 753.802,1048.03 675.864,1048.03C601.51,1048.03 470.718,1108.94 470.718,1340.96C470.718,1574.78 590.76,1653.61 676.76,1653.61C759.177,1653.61 881.906,1578.36 881.906,1340.96ZM1680.99,1578.36C1680.99,1603.44 1665.76,1676.9 1595.88,1676.9C1569.01,1676.9 1519.74,1671.53 1483.01,1639.28C1446.28,1605.24 1446.28,1569.4 1446.28,1511.17C1446.28,1451.15 1446.28,1423.38 1412.24,1391.13C1380.88,1360.67 1343.26,1360.67 1328.93,1360.67L1225.91,1360.67L1225.91,1587.32C1225.91,1619.57 1227.7,1629.42 1296.68,1629.42L1318.18,1629.42L1318.18,1657.19C1285.93,1654.51 1222.32,1654.51 1187.38,1654.51C1152.45,1654.51 1088.84,1654.51 1056.59,1657.19L1056.59,1629.42L1078.09,1629.42C1147.07,1629.42 1148.86,1619.57 1148.86,1587.32L1148.86,1115.21C1148.86,1082.96 1147.07,1073.11 1078.09,1073.11L1056.59,1073.11L1056.59,1045.34L1337.88,1045.34C1469.57,1045.34 1571.7,1120.59 1571.7,1206.59C1571.7,1276.46 1501.82,1331.11 1414.93,1352.61C1464.2,1369.63 1508.09,1399.19 1524.22,1456.53L1535.86,1528.19C1548.41,1611.51 1555.57,1657.19 1599.47,1657.19C1621.86,1657.19 1653.22,1641.07 1658.59,1577.46C1659.49,1571.19 1659.49,1563.13 1669.34,1563.13C1680.99,1563.13 1680.99,1572.99 1680.99,1578.36ZM1479.43,1206.59C1479.43,1076.69 1379.09,1073.11 1298.47,1073.11C1280.55,1073.11 1254.57,1073.11 1245.61,1074.9C1225.91,1077.59 1225.91,1088.34 1225.91,1108.94L1225.91,1340.96L1325.34,1340.96C1457.93,1340.96 1479.43,1268.4 1479.43,1206.59Z" style="fill:rgb(26,26,26);"/>
        <path d="M979.133,1103.9C975.343,1094.38 973.26,1083.99 973.26,1073.11L973.26,1045.34C973.26,999.316 1010.57,962.006 1056.59,962.006L1337.88,962.006C1441.28,962.006 1529.91,999.804 1584.94,1052.47C1630.64,1096.21 1655.03,1150.52 1655.03,1206.59C1655.03,1266.63 1623.88,1322.94 1572.53,1365.76C1586.2,1385.27 1597.09,1407.85 1604.44,1433.96C1605.29,1436.99 1605.97,1440.06 1606.47,1443.16L1615.32,1497.62L1641.03,1483.99L1669.34,1479.8L1698.73,1484.22L1729.45,1500.65L1745.77,1517.8L1755.83,1535.22L1762.19,1555.28L1764.32,1578.36C1764.32,1626.12 1728.92,1760.24 1595.88,1760.24C1555.75,1760.24 1482.88,1750.07 1428.03,1701.9C1427.46,1701.4 1426.91,1700.9 1426.36,1700.4C1416.12,1690.9 1407.5,1681.41 1400.24,1671.68C1397.09,1689.55 1388.15,1706.05 1374.6,1718.52C1357.45,1734.3 1334.48,1742.17 1311.26,1740.24C1280.71,1737.69 1220.47,1737.84 1187.38,1737.84C1154.3,1737.84 1094.06,1737.69 1063.51,1740.24C1040.29,1742.17 1017.32,1734.3 1000.17,1718.52C983.018,1702.74 973.26,1680.5 973.26,1657.19L973.26,1629.42C973.26,1620.19 974.763,1611.3 977.537,1603C907.024,1699.44 796.883,1760.24 675.864,1760.24C473.664,1760.24 295.114,1586.38 295.114,1353.51C295.114,1119.88 472.859,942.298 675.864,942.298C797.659,942.298 908.635,1004.98 979.133,1103.9ZM1364.3,1560.01C1363.29,1545.01 1362.95,1528.83 1362.95,1511.17C1362.95,1495.42 1363.03,1482.2 1362.23,1470.66C1361.69,1462.9 1360.94,1457.32 1354.93,1451.63C1354.67,1451.39 1354.42,1451.15 1354.17,1450.9C1344.92,1441.92 1333.16,1444.01 1328.93,1444.01L1309.24,1444.01L1309.24,1546.09L1318.18,1546.09C1335.23,1546.09 1351.09,1551.21 1364.3,1560.01ZM1680.99,1578.36C1680.99,1572.99 1680.99,1563.13 1669.34,1563.13C1659.49,1563.13 1659.49,1571.19 1658.59,1577.46C1653.22,1641.07 1621.86,1657.19 1599.47,1657.19C1555.57,1657.19 1548.41,1611.51 1535.86,1528.19L1524.22,1456.53C1508.09,1399.19 1464.2,1369.63 1414.93,1352.61C1501.82,1331.11 1571.7,1276.46 1571.7,1206.59C1571.7,1120.59 1469.57,1045.34 1337.88,1045.34L1056.59,1045.34L1056.59,1073.11L1078.09,1073.11C1147.07,1073.11 1148.86,1082.96 1148.86,1115.21L1148.86,1587.32C1148.86,1619.57 1147.07,1629.42 1078.09,1629.42L1056.59,1629.42L1056.59,1657.19C1088.84,1654.51 1152.45,1654.51 1187.38,1654.51C1222.32,1654.51 1285.93,1654.51 1318.18,1657.19L1318.18,1629.42L1296.68,1629.42C1227.7,1629.42 1225.91,1619.57 1225.91,1587.32L1225.91,1360.67L1328.93,1360.67C1343.26,1360.67 1380.88,1360.67 1412.24,1391.13C1446.28,1423.38 1446.28,1451.15 1446.28,1511.17C1446.28,1569.4 1446.28,1605.24 1483.01,1639.28C1519.74,1671.53 1569.01,1676.9 1595.88,1676.9C1665.76,1676.9 1680.99,1603.44 1680.99,1578.36ZM1479.43,1206.59C1479.43,1268.4 1457.93,1340.96 1325.34,1340.96L1225.91,1340.96L1225.91,1108.94C1225.91,1088.34 1225.91,1077.59 1245.61,1074.9C1254.57,1073.11 1280.55,1073.11 1298.47,1073.11C1379.09,1073.11 1479.43,1076.69 1479.43,1206.59ZM1309.24,1156.46L1309.24,1257.63L1325.34,1257.63C1357.4,1257.63 1377.95,1255.55 1388.56,1243.04C1397.21,1232.84 1396.09,1218.78 1396.09,1206.59C1396.09,1190.7 1395.21,1178.79 1389.17,1170.82C1381.82,1161.12 1368.78,1160.89 1356.53,1159.16C1340.98,1156.96 1324.82,1156.54 1309.24,1156.46ZM974.177,1353.51C974.177,1170.76 838.906,1025.63 675.864,1025.63C515.51,1025.63 378.447,1168.96 378.447,1353.51C378.447,1537.15 516.406,1676.9 675.864,1676.9C838.906,1676.9 974.177,1534.46 974.177,1353.51ZM881.906,1340.96C881.906,1578.36 759.177,1653.61 676.76,1653.61C590.76,1653.61 470.718,1574.78 470.718,1340.96C470.718,1108.94 601.51,1048.03 675.864,1048.03C753.802,1048.03 881.906,1111.63 881.906,1340.96ZM798.572,1340.96C798.572,1185.44 728.719,1131.36 675.864,1131.36C625.461,1131.36 554.052,1183.68 554.052,1340.96C554.052,1503.37 617.025,1570.28 676.76,1570.28C733.989,1570.28 798.572,1505.81 798.572,1340.96ZM1000.65,1567.66C1015.44,1554.26 1035.06,1546.09 1056.59,1546.09L1065.53,1546.09L1065.53,1156.44L1056.59,1156.44C1033.37,1156.44 1012.36,1146.94 997.244,1131.61C1035.25,1195.17 1057.51,1271.08 1057.51,1353.51C1057.51,1432.85 1036.58,1505.96 1000.65,1567.66Z" style="fill:white;"/>
    </g>
</svg>
