<?xml version="1.0" encoding="UTF-8" standalone="no"?>
<!DOCTYPE svg PUBLIC "-//W3C//DTD SVG 1.1//EN" "http://www.w3.org/Graphics/SVG/1.1/DTD/svg11.dtd">
<svg width="100%" height="100%" viewBox="0 0 2400 2400" version="1.1" xmlns="http://www.w3.org/2000/svg" xmlns:xlink="http://www.w3.org/1999/xlink" xml:space="preserve" xmlns:serif="http://www.serif.com/" style="fill-rule:evenodd;clip-rule:evenodd;stroke-linejoin:round;stroke-miterlimit:2;">
    <g transform="matrix(1.04368,0,0,1.04368,360.943,-50.593)">
        <path d="M817.941,507.374C1191.99,509.233 1512.94,817.487 1512.94,1191.55C1512.94,1566.44 1181.67,1842.41 806.77,1842.41C431.799,1842.41 112.126,1563.28 109.504,1188.32C106.823,804.862 447.441,505.532 817.941,507.374ZM817.544,587.218C489.863,585.589 186.976,848.621 189.348,1187.76C191.661,1518.61 475.911,1762.57 806.77,1762.57C1137.63,1762.57 1433.1,1522.4 1433.1,1191.55C1433.1,860.686 1148.4,588.863 817.544,587.218ZM817.348,621.85C1126.91,623.389 1393.75,881.978 1393.75,1191.55C1393.75,1500.7 1117.03,1714.56 807.874,1714.56C498.756,1714.56 230.862,1496.6 228.7,1187.49C226.482,870.187 510.771,620.326 817.348,621.85ZM816.951,701.694C553.021,700.382 306.634,913.768 308.544,1186.93C310.395,1451.67 543.124,1634.71 807.874,1634.71C1072.66,1634.71 1313.9,1456.34 1313.9,1191.55C1313.9,925.001 1083.49,703.019 816.951,701.694Z" style="fill:white;"/>
    </g>
    <g transform="matrix(1.04368,0,0,1.04368,360.943,-50.593)">
        <path d="M817.544,587.218C1148.4,588.863 1433.1,860.686 1433.1,1191.55C1433.1,1522.4 1137.63,1762.57 806.77,1762.57C475.911,1762.57 191.661,1518.61 189.348,1187.76C186.976,848.621 489.863,585.589 817.544,587.218Z" style="fill:rgb(82,183,136);"/>
        <clipPath id="_clip1">
            <path d="M817.544,587.218C1148.4,588.863 1433.1,860.686 1433.1,1191.55C1433.1,1522.4 1137.63,1762.57 806.77,1762.57C475.911,1762.57 191.661,1518.61 189.348,1187.76C186.976,848.621 489.863,585.589 817.544,587.218Z"/>
        </clipPath>
        <g clip-path="url(#_clip1)">
            <g transform="matrix(0.069824,-0.184552,0.595911,0.225459,267.519,875.419)">
                <path d="M2083.14,694.895C2163.17,665.533 2307.93,820.7 2307.93,975.657C2307.93,1130.61 2159.59,1320.75 2065.43,1295.73C1970.42,1270.49 1931.39,1181.93 1931.39,1026.97C1931.39,872.016 1961.26,739.617 2083.14,694.895Z" style="fill:white;fill-opacity:0.39;"/>
            </g>
        </g>
    </g>
    <g transform="matrix(1.04368,0,0,1.04368,360.943,-50.593)">
        <path d="M817.544,587.218C1148.4,588.863 1433.1,860.686 1433.1,1191.55C1433.1,1522.4 1137.63,1762.57 806.77,1762.57C475.911,1762.57 191.661,1518.61 189.348,1187.76C186.976,848.621 489.863,585.589 817.544,587.218ZM817.348,621.85C510.771,620.326 226.482,870.187 228.7,1187.49C230.862,1496.6 498.756,1714.56 807.874,1714.56C1117.03,1714.56 1393.75,1500.7 1393.75,1191.55C1393.75,881.978 1126.91,623.389 817.348,621.85Z" style="fill:rgb(57,57,57);"/>
    </g>
</svg>
