<?xml version="1.0" encoding="UTF-8" standalone="no"?>
<!DOCTYPE svg PUBLIC "-//W3C//DTD SVG 1.1//EN" "http://www.w3.org/Graphics/SVG/1.1/DTD/svg11.dtd">
<svg width="100%" height="100%" viewBox="0 0 2400 2400" version="1.1" xmlns="http://www.w3.org/2000/svg" xmlns:xlink="http://www.w3.org/1999/xlink" xml:space="preserve" xmlns:serif="http://www.serif.com/" style="fill-rule:evenodd;clip-rule:evenodd;stroke-linecap:round;stroke-linejoin:round;stroke-miterlimit:1.5;">
    <g transform="matrix(1,0,0,1,1.97368,733.061)">
        <path d="M981.189,698.514L541.867,698.514C428.838,698.514 337.073,606.749 337.073,493.72C337.073,380.691 428.838,288.925 541.867,288.925L981.189,288.925L981.189,-150.396C981.189,-263.425 1072.95,-355.19 1185.98,-355.19C1299.01,-355.19 1390.78,-263.425 1390.78,-150.396L1390.78,288.925L1830.1,288.925C1943.13,288.925 2034.89,380.691 2034.89,493.72C2034.89,606.749 1943.13,698.514 1830.1,698.514L1390.78,698.514L1390.78,1137.84C1390.78,1250.86 1299.01,1342.63 1185.98,1342.63C1072.95,1342.63 981.189,1250.86 981.189,1137.84L981.189,698.514ZM1027.02,675.597L1027.02,1137.84C1027.02,1225.57 1098.25,1296.8 1185.98,1296.8C1273.72,1296.8 1344.94,1225.57 1344.94,1137.84L1344.94,675.597C1344.94,662.941 1355.2,652.681 1367.86,652.681L1830.1,652.681C1917.83,652.681 1989.06,581.453 1989.06,493.72C1989.06,405.987 1917.83,334.759 1830.1,334.759L1367.86,334.759C1355.2,334.759 1344.94,324.499 1344.94,311.842L1344.94,-150.396C1344.94,-238.129 1273.72,-309.357 1185.98,-309.357C1098.25,-309.357 1027.02,-238.129 1027.02,-150.396L1027.02,311.842C1027.02,324.499 1016.76,334.759 1004.11,334.759L541.867,334.759C454.134,334.759 382.906,405.987 382.906,493.72C382.906,581.453 454.134,652.681 541.867,652.681L1004.11,652.681C1016.76,652.681 1027.02,662.941 1027.02,675.597Z" style="fill:rgb(54,53,53);"/>
        <path d="M877.022,802.681L541.867,802.681C371.347,802.681 232.906,664.24 232.906,493.72C232.906,323.2 371.347,184.759 541.867,184.759L877.022,184.759L877.022,-150.396C877.022,-320.916 1015.46,-459.357 1185.98,-459.357C1356.5,-459.357 1494.94,-320.916 1494.94,-150.396L1494.94,184.759L1830.1,184.759C2000.62,184.759 2139.06,323.2 2139.06,493.72C2139.06,664.24 2000.62,802.681 1830.1,802.681L1494.94,802.681L1494.94,1137.84C1494.94,1308.36 1356.5,1446.8 1185.98,1446.8C1015.46,1446.8 877.022,1308.36 877.022,1137.84L877.022,802.681ZM981.189,698.514L981.189,1137.84C981.189,1250.86 1072.95,1342.63 1185.98,1342.63C1299.01,1342.63 1390.78,1250.86 1390.78,1137.84L1390.78,698.514L1830.1,698.514C1943.13,698.514 2034.89,606.749 2034.89,493.72C2034.89,380.691 1943.13,288.925 1830.1,288.925L1390.78,288.925L1390.78,-150.396C1390.78,-263.425 1299.01,-355.19 1185.98,-355.19C1072.95,-355.19 981.189,-263.425 981.189,-150.396L981.189,288.925L541.867,288.925C428.838,288.925 337.073,380.691 337.073,493.72C337.073,606.749 428.838,698.514 541.867,698.514L981.189,698.514ZM1027.02,675.597C1027.02,662.941 1016.76,652.681 1004.11,652.681L541.867,652.681C454.134,652.681 382.906,581.453 382.906,493.72C382.906,405.987 454.134,334.759 541.867,334.759L1004.11,334.759C1016.76,334.759 1027.02,324.499 1027.02,311.842L1027.02,-150.396C1027.02,-238.129 1098.25,-309.357 1185.98,-309.357C1273.72,-309.357 1344.94,-238.129 1344.94,-150.396L1344.94,311.842C1344.94,324.499 1355.2,334.759 1367.86,334.759L1830.1,334.759C1917.83,334.759 1989.06,405.987 1989.06,493.72C1989.06,581.453 1917.83,652.681 1830.1,652.681L1367.86,652.681C1355.2,652.681 1344.94,662.941 1344.94,675.597L1344.94,1137.84C1344.94,1225.57 1273.72,1296.8 1185.98,1296.8C1098.25,1296.8 1027.02,1225.57 1027.02,1137.84L1027.02,675.597ZM1131.19,675.597L1131.19,1137.84C1131.19,1168.08 1155.74,1192.63 1185.98,1192.63C1216.23,1192.63 1240.78,1168.08 1240.78,1137.84L1240.78,675.597L1250.81,626.099L1278,585.736L1318.36,558.544L1367.86,548.514L1830.1,548.514C1860.34,548.514 1884.89,523.961 1884.89,493.72C1884.89,463.478 1860.34,438.925 1830.1,438.925L1367.86,438.925L1318.36,428.896L1278,401.704L1250.81,361.341L1240.78,311.842L1240.78,-150.396C1240.78,-180.638 1216.23,-205.19 1185.98,-205.19C1155.74,-205.19 1131.19,-180.638 1131.19,-150.396L1131.19,311.842L1121.16,361.341L1093.97,401.704L1053.6,428.896L1004.11,438.925L541.867,438.925C511.625,438.925 487.073,463.478 487.073,493.72C487.073,523.961 511.625,548.514 541.867,548.514L1004.11,548.514L1053.6,558.544L1093.97,585.736L1121.16,626.099L1131.19,675.597Z" style="fill:white;"/>
    </g>
    <g transform="matrix(1,0,0,1,1.97368,733.061)">
        <path d="M1004.11,675.597L541.867,675.597C441.486,675.597 359.99,594.101 359.99,493.72C359.99,393.339 441.486,311.842 541.867,311.842L1004.11,311.842L1004.11,-150.396C1004.11,-250.777 1085.6,-332.274 1185.98,-332.274C1286.36,-332.274 1367.86,-250.777 1367.86,-150.396L1367.86,311.842L1830.1,311.842C1930.48,311.842 2011.98,393.339 2011.98,493.72C2011.98,594.101 1930.48,675.597 1830.1,675.597L1367.86,675.597L1367.86,1137.84C1367.86,1238.22 1286.36,1319.71 1185.98,1319.71C1085.6,1319.71 1004.11,1238.22 1004.11,1137.84L1004.11,675.597Z" style="fill:rgb(111,248,0);stroke:rgb(54,53,53);stroke-width:45.83px;"/>
    </g>
</svg>
