<?xml version="1.0" encoding="UTF-8" standalone="no"?>
<!DOCTYPE svg PUBLIC "-//W3C//DTD SVG 1.1//EN" "http://www.w3.org/Graphics/SVG/1.1/DTD/svg11.dtd">
<svg width="100%" height="100%" viewBox="0 0 637 642" version="1.1" xmlns="http://www.w3.org/2000/svg" xmlns:xlink="http://www.w3.org/1999/xlink" xml:space="preserve" xmlns:serif="http://www.serif.com/" style="fill-rule:evenodd;clip-rule:evenodd;stroke-linejoin:round;stroke-miterlimit:2;">
    <g transform="matrix(1,0,0,-1,-34.7727,555.227)">
        <path d="M289,-86C279,-86 270.667,-82.333 264,-75L45,143C35,153 32.333,164.667 37,178L117,443C121,455 128.667,463 140,467L403,553C417,557.667 429,555 439,545L662,322L661,322C671,311.333 673.667,299.333 669,286L585,24C581,12.667 573.333,5 562,1L299,-84C295.667,-85.333 292.333,-86 289,-86ZM537,38L544,35L548,35L551,37L553,44L549,51L447,159L419,189L389,222L363,251L350,264L355,279L369,322L382,367L396,411L417,483L425,512L421,523L415,523L411,518L410,517L400,491L373,424L358,384L342,343L327,304L321,286L315,271L248,247L181,220L68,175L63,165L67,161L73,160L196,196L271,219L322,236L324,234L335,224L428,139L537,38ZM443.5,377C447.833,361.667 455,348.833 465,338.5C475,328.167 484.667,323.667 494,325C503.333,326.333 509.833,332.833 513.5,344.5C517.167,356.167 516.667,369.667 512,385C507.333,400.333 500.167,413.167 490.5,423.5C480.833,433.833 471.333,438.333 462,437C452.667,435.667 446.167,429.167 442.5,417.5C438.833,405.833 439.167,392.333 443.5,377ZM174,362.5C172,351.5 174.333,342.667 181,336C187.667,329.333 196.667,327 208,329C219.333,331 229.5,336.667 238.5,346C247.5,355.333 253,365.5 255,376.5C257,387.5 254.667,396.333 248,403C241.333,409.667 232.5,412 221.5,410C210.5,408 200.333,402.333 191,393C181.667,383.667 176,373.5 174,362.5ZM505,175.5C509.667,159.833 516.833,147 526.5,137C536.167,127 545.667,122.667 555,124C564.333,125.333 570.833,131.833 574.5,143.5C578.167,155.167 577.833,168.667 573.5,184C569.167,199.333 562,212.167 552,222.5C542,232.833 532.333,237.333 523,236C513.667,234.667 507.167,228.167 503.5,216.5C499.833,204.833 500.333,191.167 505,175.5ZM317.5,123C331.167,119 343.167,118.667 353.5,122C363.833,125.333 369.667,131.167 371,139.5C372.333,147.833 368.667,156.333 360,165C351.333,173.667 340.167,179.833 326.5,183.5C312.833,187.167 300.833,187.5 290.5,184.5C280.167,181.5 274.333,175.833 273,167.5C271.667,159.167 275.333,150.667 284,142C292.667,133.333 303.833,127 317.5,123ZM305,41C318.333,37 330.333,36.667 341,40C351.667,43.333 357.667,49.167 359,57.5C360.333,65.833 356.5,74.333 347.5,83C338.5,91.667 327.333,97.833 314,101.5C300.667,105.167 288.667,105.5 278,102.5C267.333,99.5 261.333,93.833 260,85.5C258.667,77.167 262.5,68.667 271.5,60C280.5,51.333 291.667,45 305,41ZM292.5,-39.5C306.167,-43.167 318.333,-43.5 329,-40.5C339.667,-37.5 345.5,-31.833 346.5,-23.5C347.5,-15.167 343.667,-6.667 335,2C326.333,10.667 315.167,17 301.5,21C287.833,25 275.833,25.333 265.5,22C255.167,18.667 249.333,12.833 248,4.5C246.667,-3.833 250.333,-12.333 259,-21C267.667,-29.667 278.833,-35.833 292.5,-39.5Z" style="fill:white;fill-rule:nonzero;"/>
    </g>
</svg>
