<?xml version="1.0" encoding="UTF-8" standalone="no"?>
<!DOCTYPE svg PUBLIC "-//W3C//DTD SVG 1.1//EN" "http://www.w3.org/Graphics/SVG/1.1/DTD/svg11.dtd">
<svg width="100%" height="100%" viewBox="0 0 2400 2400" version="1.1" xmlns="http://www.w3.org/2000/svg" xmlns:xlink="http://www.w3.org/1999/xlink" xml:space="preserve" xmlns:serif="http://www.serif.com/" style="fill-rule:evenodd;clip-rule:evenodd;stroke-linejoin:round;stroke-miterlimit:2;">
    <g transform="matrix(1.11638,0,0,1.11638,-119.074,172.99)">
        <path d="M807.827,489.806C1191.07,489.806 1499.55,779.853 1499.55,1163.1C1499.55,1545.45 1189.13,1855.88 806.77,1855.88C423.131,1855.88 124.677,1565.22 124.677,1181.58C124.677,798.761 425.012,489.806 807.827,489.806ZM807.827,583.114C476.968,583.114 217.984,850.718 217.984,1181.58C217.984,1512.43 475.911,1762.57 806.77,1762.57C1137.63,1762.57 1406.24,1493.95 1406.24,1163.1C1406.24,832.237 1138.69,583.114 807.827,583.114Z" style="fill:white;"/>
    </g>
    <g transform="matrix(1.11638,0,0,1.11638,-119.074,172.99)">
        <path d="M807.827,583.114C1138.69,583.114 1406.24,832.237 1406.24,1163.1C1406.24,1493.95 1137.63,1762.57 806.77,1762.57C475.911,1762.57 217.984,1512.43 217.984,1181.58C217.984,850.718 476.968,583.114 807.827,583.114Z" style="fill:rgb(57,178,230);"/>
        <clipPath id="_clip1">
            <path d="M807.827,583.114C1138.69,583.114 1406.24,832.237 1406.24,1163.1C1406.24,1493.95 1137.63,1762.57 806.77,1762.57C475.911,1762.57 217.984,1512.43 217.984,1181.58C217.984,850.718 476.968,583.114 807.827,583.114Z"/>
        </clipPath>
        <g clip-path="url(#_clip1)">
            <g transform="matrix(-0.405356,0.738431,0.9385,0.515182,901.709,-1164.96)">
                <ellipse cx="2083.14" cy="975.657" rx="224.79" ry="280.762" style="fill:white;fill-opacity:0.47;"/>
            </g>
            <g transform="matrix(1.20869,0.00515083,-0.00451079,1.0585,-758.714,-21.5459)">
                <g transform="matrix(-1.1665,0.1991,0.205295,1.0128,2709.3,-318.026)">
                    <ellipse cx="1576.06" cy="1023.51" rx="166.598" ry="203.359" style="fill:white;"/>
                </g>
                <g transform="matrix(-1.1817,0.201693,0.212523,1.04845,2729.1,-351.786)">
                    <path d="M1578.93,818.64C1486.98,818.64 1409.46,911.275 1409.46,1023.51C1409.46,1135.75 1488.28,1227.31 1580.23,1227.31C1672.18,1227.31 1751.01,1138.91 1748.98,1022.7C1747.01,910.413 1670.88,818.64 1578.93,818.64ZM1577.21,838.595C1658.94,838.595 1733.34,923.285 1734.85,1023.09C1736.43,1127.58 1656.24,1212.86 1576.06,1205.51C1494.4,1198.01 1429.73,1120.48 1429.73,1020.72C1429.73,920.956 1495.48,838.595 1577.21,838.595Z" style="fill:rgb(54,53,53);"/>
                </g>
                <g transform="matrix(1.83913,-2.05387,1.70381,1.83031,-3037.12,2336.87)">
                    <circle cx="1426.3" cy="908.278" r="26.884" style="fill:rgb(62,62,62);"/>
                    <clipPath id="_clip2">
                        <circle cx="1426.3" cy="908.278" r="26.884"/>
                    </clipPath>
                    <g clip-path="url(#_clip2)">
                        <g transform="matrix(0.379648,0.138585,-0.126683,0.328975,1152.66,437.048)">
                            <circle cx="1057.46" cy="955.9" r="24.177" style="fill:white;"/>
                        </g>
                    </g>
                </g>
            </g>
            <g transform="matrix(-1.20869,0.00515083,0.00451079,1.0585,2359.26,-19.1869)">
                <g transform="matrix(-1.1665,0.1991,0.205295,1.0128,2708.56,-318.022)">
                    <ellipse cx="1576.06" cy="1023.51" rx="166.598" ry="203.359" style="fill:white;"/>
                </g>
                <g transform="matrix(-1.1817,0.201693,0.212523,1.04845,2729.1,-351.786)">
                    <path d="M1578.93,818.64C1486.98,818.64 1409.46,911.275 1409.46,1023.51C1409.46,1135.75 1488.28,1227.31 1580.23,1227.31C1672.18,1227.31 1751.01,1138.91 1748.98,1022.7C1747.01,910.413 1670.88,818.64 1578.93,818.64ZM1577.21,838.595C1658.94,838.595 1733.34,923.285 1734.85,1023.09C1736.43,1127.58 1656.24,1212.86 1576.06,1205.51C1494.4,1198.01 1429.73,1120.48 1429.73,1020.72C1429.73,920.956 1495.48,838.595 1577.21,838.595Z" style="fill:rgb(54,53,53);"/>
                </g>
                <g transform="matrix(1.7034,2.20122,-1.68695,1.85056,231.942,-3745.2)">
                    <circle cx="1426.3" cy="908.278" r="26.884" style="fill:rgb(62,62,62);"/>
                    <clipPath id="_clip3">
                        <circle cx="1426.3" cy="908.278" r="26.884"/>
                    </clipPath>
                    <g clip-path="url(#_clip3)">
                        <g transform="matrix(0.379648,0.138585,-0.126683,0.328975,1135.95,446.244)">
                            <circle cx="1057.46" cy="955.9" r="24.177" style="fill:white;"/>
                        </g>
                    </g>
                </g>
            </g>
        </g>
        <path d="M807.827,583.114C1138.69,583.114 1406.24,832.237 1406.24,1163.1C1406.24,1493.95 1137.63,1762.57 806.77,1762.57C475.911,1762.57 217.984,1512.43 217.984,1181.58C217.984,850.718 476.968,583.114 807.827,583.114ZM807.827,631.634C503.986,631.634 266.504,877.735 266.504,1181.58C266.504,1484.99 503.356,1714.05 806.77,1714.05C1110.85,1714.05 1357.72,1467.17 1357.72,1163.1C1357.72,859.476 1111.45,631.634 807.827,631.634Z" style="fill:rgb(48,48,48);"/>
    </g>
    <g transform="matrix(1.17418,0,0,1.09592,-242.759,-178.917)">
        <path d="M1822.8,1184.21C1747.66,1351.7 1622.42,1472.62 1460.29,1479.41C1511.92,1403.84 1558.95,1299.05 1593.61,1180.9L1822.8,1184.21Z" style="fill:white;"/>
        <clipPath id="_clip4">
            <path d="M1822.8,1184.21C1747.66,1351.7 1622.42,1472.62 1460.29,1479.41C1511.92,1403.84 1558.95,1299.05 1593.61,1180.9L1822.8,1184.21Z"/>
        </clipPath>
        <g clip-path="url(#_clip4)">
            <g transform="matrix(0.726991,0,0,0.807405,299.044,237.847)">
                <g transform="matrix(939.724,0,0,939.724,2316.74,752.535)">
                </g>
                <text x="1715.19px" y="752.535px" style="font-family:'SegoeUI-Bold', 'Segoe UI', sans-serif;font-weight:700;font-size:939.724px;fill:rgb(255,0,0);">:)</text>
            </g>
        </g>
    </g>
    <g transform="matrix(0.931059,0,0,1.05724,175.084,-121.699)">
        <path d="M1593.61,1180.9C1307.28,1131.23 1091.47,914.318 1091.47,654.592C1091.47,358.212 1372.5,117.588 1718.64,117.588C2064.78,117.588 2345.8,358.212 2345.8,654.592C2345.8,920.592 2119.44,1141.68 1822.8,1184.21L1593.61,1180.9Z" style="fill:white;"/>
        <clipPath id="_clip5">
            <path d="M1593.61,1180.9C1307.28,1131.23 1091.47,914.318 1091.47,654.592C1091.47,358.212 1372.5,117.588 1718.64,117.588C2064.78,117.588 2345.8,358.212 2345.8,654.592C2345.8,920.592 2119.44,1141.68 1822.8,1184.21L1593.61,1180.9Z"/>
        </clipPath>
        <g clip-path="url(#_clip5)">
            <g transform="matrix(0.726991,0,0,0.807405,264.037,256.62)">
                <g transform="matrix(939.724,0,0,939.724,2316.74,752.535)">
                </g>
                <text x="1715.19px" y="752.535px" style="font-family:'SegoeUI-Bold', 'Segoe UI', sans-serif;font-weight:700;font-size:939.724px;fill:rgb(255,0,0);">:)</text>
            </g>
        </g>
    </g>
</svg>
