<?xml version="1.0" encoding="UTF-8" standalone="no"?>
<!DOCTYPE svg PUBLIC "-//W3C//DTD SVG 1.1//EN" "http://www.w3.org/Graphics/SVG/1.1/DTD/svg11.dtd">
<svg width="100%" height="100%" viewBox="0 0 2400 2400" version="1.1" xmlns="http://www.w3.org/2000/svg" xmlns:xlink="http://www.w3.org/1999/xlink" xml:space="preserve" xmlns:serif="http://www.serif.com/" style="fill-rule:evenodd;clip-rule:evenodd;stroke-linejoin:round;stroke-miterlimit:2;">
    <g transform="matrix(0.827535,0.359514,-0.359514,0.827535,946.567,-599.069)">
        <path d="M1057.55,1087.69L777.824,1196.54C757.786,1205.25 588.051,1272.33 579.346,1252.29C570.641,1232.25 746.137,1148.96 766.174,1140.25L1026.86,1014.72L737.037,1001.46C715.19,1001.46 517.617,996.979 517.617,975.132C517.617,953.286 720.505,948.1 742.352,948.1L1009.6,935.549L767.728,826.369C747.404,818.355 573.277,744.453 581.29,724.129C589.303,703.805 768.949,772.023 789.273,780.037L1047.96,865.577L851.609,651.524C836.161,636.076 714.404,506.933 729.852,491.485C745.3,476.037 877.466,602.334 892.914,617.782L1113.29,818.942L988.07,494.743C979.365,474.705 919.95,329.399 939.987,320.694C960.024,311.989 1023.64,454.739 1032.34,474.776L1180.01,773.85L1193.33,443.95C1193.33,422.104 1197.75,264.388 1219.6,264.388C1241.44,264.388 1244.87,441.003 1244.87,462.85L1259.18,776.431L1374.7,499.436C1382.72,479.112 1461.91,310.6 1482.23,318.613C1502.56,326.626 1430.98,515.247 1422.97,535.571L1331.51,808.826L1564.76,591.877C1580.2,576.429 1702.32,463.095 1717.77,478.543C1733.22,493.991 1613.99,620.73 1598.55,636.178L1395.85,856.436L1691.23,740.12C1711.26,731.415 1851.1,677.998 1859.8,698.036C1868.51,718.073 1754.89,771.896 1734.86,780.601L1408.15,937.408L1723.24,947.024C1745.08,947.024 1912.88,955.144 1912.88,976.991C1912.88,998.838 1736.6,1000.86 1714.75,1000.86L1447.13,1016.57L1696.63,1128.62C1716.96,1136.64 1850.2,1194.56 1842.18,1214.88C1834.17,1235.21 1686.13,1174.65 1665.8,1166.64L1376.61,1073.87L1572.28,1286.06C1587.73,1301.51 1706.23,1428.57 1690.78,1444.02C1675.33,1459.46 1550.77,1332.9 1535.32,1317.46L1343.89,1153.1L1436.98,1400.14C1445.68,1420.18 1517.78,1597.88 1497.74,1606.58C1477.7,1615.29 1399.49,1447.11 1390.79,1427.08L1258.37,1154.93L1248.52,1470.41C1248.52,1492.26 1240.63,1666.03 1218.78,1666.03C1196.93,1666.03 1189.56,1480.77 1189.56,1458.92L1179.2,1204.61L1089.97,1404.29C1081.96,1424.62 1008.37,1589.51 988.05,1581.5C967.726,1573.49 1030.86,1405.59 1038.87,1385.27L1121.11,1136.1L925.21,1312.75C909.762,1328.2 776.744,1455.38 761.296,1439.93C745.848,1424.48 886.414,1277 901.862,1261.55L1057.55,1087.69Z" style="fill:rgb(255,214,0);"/>
    </g>
    <g transform="matrix(0.553959,0,0,0.553959,1538.17,247.604)">
        <path d="M811.459,474.759C1194.75,474.759 1522.18,810.379 1522.18,1193.67C1522.18,1578.97 1192.07,1860.35 806.77,1860.35C421.944,1860.35 109.515,1547.92 109.515,1163.1C109.515,778.085 426.449,474.759 811.459,474.759ZM811.459,572.54C480.6,572.54 207.296,832.237 207.296,1163.1C207.296,1493.95 475.911,1762.57 806.77,1762.57C1137.63,1762.57 1424.4,1524.53 1424.4,1193.67C1424.4,862.808 1142.32,572.54 811.459,572.54Z" style="fill:white;"/>
    </g>
    <g transform="matrix(1.11638,0,0,1.11638,-119.074,172.99)">
        <path d="M807.827,489.806C1191.07,489.806 1499.55,779.853 1499.55,1163.1C1499.55,1545.45 1189.13,1855.88 806.77,1855.88C423.131,1855.88 124.677,1565.22 124.677,1181.58C124.677,798.761 425.012,489.806 807.827,489.806ZM807.827,583.114C476.968,583.114 217.984,850.718 217.984,1181.58C217.984,1512.43 475.911,1762.57 806.77,1762.57C1137.63,1762.57 1406.24,1493.95 1406.24,1163.1C1406.24,832.237 1138.69,583.114 807.827,583.114Z" style="fill:white;"/>
    </g>
    <g transform="matrix(1.11638,0,0,1.11638,-119.074,172.99)">
        <path d="M807.827,583.114C1138.69,583.114 1406.24,832.237 1406.24,1163.1C1406.24,1493.95 1137.63,1762.57 806.77,1762.57C475.911,1762.57 217.984,1512.43 217.984,1181.58C217.984,850.718 476.968,583.114 807.827,583.114Z" style="fill:rgb(57,178,230);"/>
        <clipPath id="_clip1">
            <path d="M807.827,583.114C1138.69,583.114 1406.24,832.237 1406.24,1163.1C1406.24,1493.95 1137.63,1762.57 806.77,1762.57C475.911,1762.57 217.984,1512.43 217.984,1181.58C217.984,850.718 476.968,583.114 807.827,583.114Z"/>
        </clipPath>
        <g clip-path="url(#_clip1)">
            <g transform="matrix(-0.405356,0.738431,0.9385,0.515182,901.709,-1164.96)">
                <ellipse cx="2083.14" cy="975.657" rx="224.79" ry="280.762" style="fill:white;fill-opacity:0.47;"/>
            </g>
            <g transform="matrix(1.06174,0,0,1.02589,-38.5699,-27.5318)">
                <g transform="matrix(-1.1665,0.1991,0.205295,1.0128,2708.56,-318.022)">
                    <ellipse cx="1576.06" cy="1023.51" rx="166.598" ry="203.359" style="fill:white;"/>
                </g>
                <g transform="matrix(-1.1817,0.201693,0.212523,1.04845,2729.1,-351.786)">
                    <path d="M1578.93,818.64C1486.98,818.64 1409.46,911.275 1409.46,1023.51C1409.46,1135.75 1488.28,1227.31 1580.23,1227.31C1672.18,1227.31 1751.01,1138.91 1748.98,1022.7C1747.01,910.413 1670.88,818.64 1578.93,818.64ZM1577.21,838.595C1658.94,838.595 1733.34,923.285 1734.85,1023.09C1736.43,1127.58 1656.24,1212.86 1576.06,1205.51C1494.4,1198.01 1429.73,1120.48 1429.73,1020.72C1429.73,920.956 1495.48,838.595 1577.21,838.595Z" style="fill:rgb(54,53,53);"/>
                </g>
                <g transform="matrix(2.56373,-0.241899,0.289515,2.65066,-2754.11,-1061.93)">
                    <circle cx="1426.3" cy="908.278" r="26.884" style="fill:rgb(62,62,62);"/>
                    <clipPath id="_clip2">
                        <circle cx="1426.3" cy="908.278" r="26.884"/>
                    </clipPath>
                    <g clip-path="url(#_clip2)">
                        <g transform="matrix(0.379648,0.138585,-0.126683,0.328975,1152.66,437.048)">
                            <circle cx="1057.46" cy="955.9" r="24.177" style="fill:white;"/>
                        </g>
                    </g>
                </g>
            </g>
            <g transform="matrix(1.20869,0.00515083,-0.00451079,1.0585,-654.334,-26.7483)">
                <g transform="matrix(-1.1665,0.1991,0.205295,1.0128,2708.56,-318.022)">
                    <ellipse cx="1576.06" cy="1023.51" rx="166.598" ry="203.359" style="fill:white;"/>
                </g>
                <g transform="matrix(-1.1817,0.201693,0.212523,1.04845,2729.1,-351.786)">
                    <path d="M1578.93,818.64C1486.98,818.64 1409.46,911.275 1409.46,1023.51C1409.46,1135.75 1488.28,1227.31 1580.23,1227.31C1672.18,1227.31 1751.01,1138.91 1748.98,1022.7C1747.01,910.413 1670.88,818.64 1578.93,818.64ZM1577.21,838.595C1658.94,838.595 1733.34,923.285 1734.85,1023.09C1736.43,1127.58 1656.24,1212.86 1576.06,1205.51C1494.4,1198.01 1429.73,1120.48 1429.73,1020.72C1429.73,920.956 1495.48,838.595 1577.21,838.595Z" style="fill:rgb(54,53,53);"/>
                </g>
                <g transform="matrix(2.56373,-0.241899,0.289515,2.65066,-2759.84,-1060.91)">
                    <circle cx="1426.3" cy="908.278" r="26.884" style="fill:rgb(62,62,62);"/>
                    <clipPath id="_clip3">
                        <circle cx="1426.3" cy="908.278" r="26.884"/>
                    </clipPath>
                    <g clip-path="url(#_clip3)">
                        <g transform="matrix(0.379648,0.138585,-0.126683,0.328975,1152.66,437.048)">
                            <circle cx="1057.46" cy="955.9" r="24.177" style="fill:white;"/>
                        </g>
                    </g>
                </g>
            </g>
        </g>
        <path d="M807.827,583.114C1138.69,583.114 1406.24,832.237 1406.24,1163.1C1406.24,1493.95 1137.63,1762.57 806.77,1762.57C475.911,1762.57 217.984,1512.43 217.984,1181.58C217.984,850.718 476.968,583.114 807.827,583.114ZM807.827,631.634C503.986,631.634 266.504,877.735 266.504,1181.58C266.504,1484.99 503.356,1714.05 806.77,1714.05C1110.85,1714.05 1357.72,1467.17 1357.72,1163.1C1357.72,859.476 1111.45,631.634 807.827,631.634Z" style="fill:rgb(48,48,48);"/>
    </g>
    <g transform="matrix(0.553959,0,0,0.553959,1538.17,247.604)">
        <path d="M811.459,572.54C1142.32,572.54 1424.4,862.808 1424.4,1193.67C1424.4,1524.53 1137.63,1762.57 806.77,1762.57C475.911,1762.57 207.296,1493.95 207.296,1163.1C207.296,832.237 480.6,572.54 811.459,572.54Z" style="fill:rgb(163,163,163);"/>
        <clipPath id="_clip4">
            <path d="M811.459,572.54C1142.32,572.54 1424.4,862.808 1424.4,1193.67C1424.4,1524.53 1137.63,1762.57 806.77,1762.57C475.911,1762.57 207.296,1493.95 207.296,1163.1C207.296,832.237 480.6,572.54 811.459,572.54Z"/>
        </clipPath>
        <g clip-path="url(#_clip4)">
            <g transform="matrix(0.451657,-0.711056,0.903707,0.574027,-818.342,1813.31)">
                <ellipse cx="2083.14" cy="975.657" rx="224.79" ry="280.762" style="fill:white;fill-opacity:0.39;"/>
            </g>
            <g transform="matrix(1.29759,-0.646941,0.569325,1.14192,-2057.91,899.699)">
                <ellipse cx="1576.06" cy="1023.51" rx="166.598" ry="203.359" style="fill:white;"/>
                <clipPath id="_clip5">
                    <ellipse cx="1576.06" cy="1023.51" rx="166.598" ry="203.359"/>
                </clipPath>
                <g clip-path="url(#_clip5)">
                    <g transform="matrix(1.48905,0.411045,-0.42664,1.43462,-102.768,-832.233)">
                        <circle cx="1426.3" cy="908.278" r="26.884" style="fill:rgb(62,62,62);"/>
                        <path d="M1426.3,881.394C1441.14,881.394 1453.18,893.441 1453.18,908.278C1453.18,923.116 1441.14,935.162 1426.3,935.162C1411.46,935.162 1399.42,923.116 1399.42,908.278C1399.42,893.441 1411.46,881.394 1426.3,881.394ZM1428.08,904.84C1424.12,904.84 1419.81,906.37 1419.81,910.329C1419.81,910.844 1420.51,910.7 1420.94,910.922C1422.01,911.477 1423.23,911.716 1424.52,911.716C1428.48,911.716 1432.8,910.187 1432.8,906.228C1432.8,905.713 1432.09,905.856 1431.66,905.634C1430.59,905.08 1429.37,904.84 1428.08,904.84Z" style="fill:rgb(57,57,57);"/>
                    </g>
                </g>
                <path d="M1576.06,820.152C1668.01,820.152 1742.66,911.275 1742.66,1023.51C1742.66,1135.75 1668.01,1226.87 1576.06,1226.87C1484.11,1226.87 1409.46,1135.75 1409.46,1023.51C1409.46,911.275 1484.11,820.152 1576.06,820.152ZM1576.06,867.311C1506.16,867.311 1450.96,938.193 1450.96,1023.51C1450.96,1108.83 1506.16,1179.71 1576.06,1179.71C1645.95,1179.71 1701.16,1108.83 1701.16,1023.51C1701.16,938.193 1645.95,867.311 1576.06,867.311Z" style="fill:rgb(57,57,57);"/>
            </g>
            <g transform="matrix(1.33521,0.56524,-0.497426,1.17502,-544.537,-1056.93)">
                <ellipse cx="1576.06" cy="1023.51" rx="166.598" ry="203.359" style="fill:white;"/>
                <clipPath id="_clip6">
                    <ellipse cx="1576.06" cy="1023.51" rx="166.598" ry="203.359"/>
                </clipPath>
                <g clip-path="url(#_clip6)">
                    <g transform="matrix(1.48905,0.411045,-0.42664,1.43462,-207.361,-832.17)">
                        <circle cx="1426.3" cy="908.278" r="26.884" style="fill:rgb(62,62,62);"/>
                        <path d="M1426.3,881.394C1441.14,881.394 1453.18,893.441 1453.18,908.278C1453.18,923.116 1441.14,935.162 1426.3,935.162C1411.46,935.162 1399.42,923.116 1399.42,908.278C1399.42,893.441 1411.46,881.394 1426.3,881.394ZM1428.08,904.84C1424.12,904.84 1419.81,906.37 1419.81,910.329C1419.81,910.844 1420.51,910.7 1420.94,910.922C1422.01,911.477 1423.23,911.716 1424.52,911.716C1428.48,911.716 1432.8,910.187 1432.8,906.228C1432.8,905.713 1432.09,905.856 1431.66,905.634C1430.59,905.08 1429.37,904.84 1428.08,904.84Z" style="fill:rgb(57,57,57);"/>
                    </g>
                </g>
                <path d="M1576.06,820.152C1668.01,820.152 1742.66,911.275 1742.66,1023.51C1742.66,1135.75 1668.01,1226.87 1576.06,1226.87C1484.11,1226.87 1409.46,1135.75 1409.46,1023.51C1409.46,911.275 1484.11,820.152 1576.06,820.152ZM1576.06,867.311C1506.16,867.311 1450.96,938.193 1450.96,1023.51C1450.96,1108.83 1506.16,1179.71 1576.06,1179.71C1645.95,1179.71 1701.16,1108.83 1701.16,1023.51C1701.16,938.193 1645.95,867.311 1576.06,867.311Z" style="fill:rgb(57,57,57);"/>
            </g>
        </g>
        <path d="M811.459,572.54C1142.32,572.54 1424.4,862.808 1424.4,1193.67C1424.4,1524.53 1137.63,1762.57 806.77,1762.57C475.911,1762.57 207.296,1493.95 207.296,1163.1C207.296,832.237 480.6,572.54 811.459,572.54ZM811.459,670.321C534.75,670.321 305.077,886.387 305.077,1163.1C305.077,1439.99 529.878,1664.79 806.77,1664.79C1083.2,1664.79 1326.62,1470.1 1326.62,1193.67C1326.62,915.237 1089.89,670.321 811.459,670.321Z" style="fill:rgb(57,57,57);"/>
    </g>
</svg>
