<svg xmlns="http://www.w3.org/2000/svg" viewBox="0 0 747 646.8">
  <path d="M687 574Q689 519 703.0 446.5Q717 374 721 328Q722 315 751.5 195.5Q781 76 782 36Q769 17 739.5 -14.0Q710 -45 696 -54L39 -69Q44 134 38 336Q36 352 36.5 407.0Q37 462 36 478Q36 481 36.0 493.5Q36 506 35.5 518.0Q35 530 35.0 542.5Q35 555 36.0 564.0Q37 573 39 574Q111 574 146 572Q179 571 186.0 570.5Q193 570 224.5 572.5Q256 575 265 576Q324 579 444 577Q483 577 566.5 575.5Q650 574 687 574ZM198 68Q282 69 455.0 71.5Q628 74 712 76Q697 191 656.5 345.0Q616 499 614 513Q584 514 519.5 513.0Q455 512 426 513Q334 514 288 512Q281 511 257.0 509.0Q233 507 227.5 507.5Q222 508 197 508L117 514Q114 502 117.0 470.0Q120 438 123 420Q132 364 155.5 249.0Q179 134 198 68ZM411 306Q386 306 367.5 330.0Q349 354 348 382Q348 406 360.5 427.5Q373 449 393 453Q418 459 441.0 438.5Q464 418 468 389Q472 360 454.0 333.5Q436 307 411 306ZM407 420Q394 419 384.5 405.0Q375 391 377 375Q379 360 391.0 349.0Q403 338 417 341Q428 344 434.5 355.5Q441 367 441 379Q440 394 430.0 407.0Q420 420 407 420ZM423 141 408 251 447 252 462 142Z" transform="translate(-35 577.8) scale(1 -1)" fill="currentColor"/>
</svg>
