<?xml version="1.0" encoding="UTF-8" standalone="no"?>
<!DOCTYPE svg PUBLIC "-//W3C//DTD SVG 1.1//EN" "http://www.w3.org/Graphics/SVG/1.1/DTD/svg11.dtd">
<svg width="100%" height="100%" viewBox="0 0 2400 2400" version="1.1" xmlns="http://www.w3.org/2000/svg" xmlns:xlink="http://www.w3.org/1999/xlink" xml:space="preserve" xmlns:serif="http://www.serif.com/" style="fill-rule:evenodd;clip-rule:evenodd;stroke-linejoin:round;stroke-miterlimit:2;">
    <path d="M333.131,506.089L332.403,494.309L347.714,449.781L378.621,414.258L422.411,392.46L457.381,388.048L497.999,392.368C533.841,399.505 614.788,424.219 740.8,430.912C819.665,435.101 888.869,427.59 942.628,430.665C1010.71,434.559 1063.53,453.95 1102.28,488.344C1200.22,575.29 1241.99,624.595 1274.55,701.265C1279.64,618.468 1281.75,524.797 1281.77,414.827L1283.59,400.127L1282.86,388.347L1298.17,343.819L1329.08,308.296L1372.87,286.498L1407.84,282.086L1448.45,286.406C1484.3,293.543 1565.24,318.257 1691.26,324.95C1770.12,329.14 1839.33,321.628 1893.09,324.703C1961.16,328.597 2013.99,347.988 2052.73,382.382C2167.19,483.994 2204.93,534.196 2240.93,636.748C2290.27,777.317 2307.4,934.472 2276.46,1308.98C2243.71,1705.35 2137.97,1896.89 2119.95,1933.7L2099,1963.98L2073.69,1984.01L2052.69,1995.09L2024.99,2002.27L1995.71,2002.78L1966.42,1996.1C1631.68,1875.18 1521.46,1859.57 1270.77,1761.06C1229.22,1927.39 1181.17,2015.8 1169.49,2039.66L1148.54,2069.94L1123.23,2089.97L1102.24,2101.05L1074.53,2108.23L1045.25,2108.74L1015.97,2102.06C609.964,1955.4 534.025,1963.54 137.807,1791.12L108.656,1773.26L86.12,1748.88L72.455,1722.52L71.133,1720.61L60.133,1685.23L60.259,1647.54L72.381,1610.52C277.671,1211.64 331.22,1064.14 331.31,520.789L333.131,506.089ZM1489.99,402.567C1489.78,396.169 1488.84,389.696 1487.11,383.25L1474.87,399.202C1455.03,394.693 1439.45,390.824 1428.12,388.568C1414.38,385.833 1404.9,385.757 1399.83,387.116C1389.78,389.809 1383.8,400.158 1386.49,410.21L1386.5,410.239C1386.13,411.713 1385.93,413.256 1385.93,414.845C1385.93,449.184 1385.72,482.008 1385.28,513.467L1285.9,437.249C1305.5,510.17 1375.15,514.175 1385.27,514.37C1379.9,894.889 1341.08,1075.59 1228.59,1322.54C1248.77,1031.41 1234.49,897.728 1192.19,777.21C1162.13,691.578 1128.7,651.091 1033.12,566.244C1009.96,545.682 977.378,536.99 936.679,534.662C883.033,531.593 813.974,539.113 735.275,534.932C651.07,530.459 585.806,518.591 539.532,508.528C539.321,502.131 538.382,495.658 536.655,489.212L524.415,505.164C504.576,500.655 488.989,496.786 477.659,494.53C463.922,491.795 454.444,491.718 449.371,493.078C439.318,495.771 433.344,506.119 436.037,516.172L436.045,516.201C435.674,517.675 435.477,519.218 435.477,520.807C435.471,555.146 435.26,587.97 434.821,619.429L335.441,543.211C355.041,616.132 424.692,620.137 434.808,620.332C427.932,1107.74 366.179,1267.3 165.001,1658.18C161.234,1665.5 162.728,1674.15 168.096,1679.81C168.637,1686.52 172.767,1692.73 179.371,1695.6C572.766,1866.79 648.248,1858.47 1051.36,2004.09C1057.3,2006.23 1063.61,2005.21 1068.45,2001.88C1071.58,2000.08 1074.22,1997.35 1075.93,1993.86C1089.29,1966.58 1153.34,1848.77 1194.95,1617.58C1533.04,1760.38 1621.99,1760.92 2001.81,1898.12C2007.75,1900.27 2014.07,1899.25 2018.91,1895.92C2022.04,1894.12 2024.68,1891.39 2026.39,1887.9C2043.33,1853.3 2141.86,1673.01 2172.64,1300.4C2201.6,949.984 2188.81,802.775 2142.64,671.248C2112.59,585.616 2079.16,545.129 1983.58,460.283C1960.41,439.72 1927.83,431.028 1887.13,428.7C1833.49,425.631 1764.43,433.151 1685.73,428.97C1601.53,424.498 1536.26,412.629 1489.99,402.567Z" style="fill:white;"/>
    <g>
        <g transform="matrix(0.822832,0,0,0.822832,709.777,7.55218)">
            <path d="M867.564,508.966C872.565,509.904 878.128,511.027 883.652,512.3C938.081,524.838 1038.15,550.195 1183.66,557.924C1279.23,563.001 1363.1,553.858 1428.24,557.585C1465.68,559.727 1496.33,565.57 1517.64,584.486C1625.49,680.227 1664.22,725.151 1698.14,821.779C1752.85,977.648 1766.48,1152.17 1732.17,1567.44C1699.2,1966.45 1601.14,2179.78 1567.47,2247.93C1098.65,2079.63 1001.19,2085.49 540.235,1885.68C797.532,1384.83 866.532,1191.59 867.564,508.966Z" style="fill:url(#_Linear1);"/>
        </g>
        <g transform="matrix(0.822832,0,0,0.822832,709.777,7.55218)">
            <path d="M867.564,508.966C872.565,509.904 878.128,511.027 883.652,512.3C938.081,524.838 1038.15,550.195 1183.66,557.924C1235.49,560.678 1299.11,542.375 1366.66,541.807C1423.66,541.328 1486.52,558.562 1516.34,560.268C1532.23,561.177 1498.38,581.054 1460.16,619.357C1438.29,641.268 1259.32,638.277 1241.88,659.515C1217.98,688.625 1350.41,751.324 1357.5,757.619C1465.35,853.361 1524.75,883.095 1577.12,946.742C1626.33,1006.56 1635.93,1024.92 1676.47,1098.89C1703.3,1147.83 1749.64,1225.76 1745.88,1325.01C1743.21,1395.64 1738.61,1475.65 1732.17,1567.44C1719.5,1748.03 1693.75,1863.94 1667.1,1965.65C1520.96,1431.76 1351.29,1275.5 1213.33,1146.42C1061.16,1004.04 900.738,1095.63 816.803,1207.29C845.021,857.235 860.76,781.286 867.564,508.966Z" style="fill-opacity:0.19;"/>
        </g>
        <g transform="matrix(0.822832,0,0,0.822832,709.777,7.55218)">
            <path d="M496.791,1903.54C490.267,1896.67 488.451,1886.15 493.029,1877.26C753.442,1371.28 821.628,1184.24 821.742,494.988C821.743,493.058 821.982,491.183 822.433,489.391C822.43,489.38 822.427,489.368 822.423,489.356C819.15,477.139 826.411,464.563 838.628,461.289C844.793,459.637 856.312,459.73 873.007,463.054C919.211,472.253 1023.65,503.527 1186.09,512.156C1281.74,517.236 1365.66,508.097 1430.86,511.827C1480.32,514.656 1519.92,525.22 1548.07,550.21C1664.23,653.325 1704.85,702.529 1741.38,806.599C1797.49,966.446 1813.03,1145.35 1777.85,1571.22C1740.43,2024.06 1620.69,2243.16 1600.1,2285.21C1598.02,2289.45 1594.81,2292.77 1591,2294.97C1585.12,2299 1577.45,2300.24 1570.23,2297.64C1080.33,2120.67 988.591,2130.78 510.493,1922.74C502.467,1919.24 497.449,1911.7 496.791,1903.54ZM867.564,508.966C866.532,1191.59 797.532,1384.83 540.235,1885.68C1001.19,2085.49 1098.65,2079.63 1567.47,2247.93C1601.14,2179.78 1699.2,1966.45 1732.17,1567.44C1766.48,1152.17 1752.85,977.648 1698.14,821.779C1664.22,725.151 1625.49,680.227 1517.64,584.486C1496.33,565.57 1465.68,559.727 1428.24,557.585C1363.1,553.858 1279.23,563.001 1183.66,557.924C1038.15,550.195 938.081,524.838 883.652,512.3C878.128,511.027 872.565,509.904 867.564,508.966Z" style="fill:rgb(57,57,57);stroke:rgb(57,57,57);stroke-width:25.32px;"/>
        </g>
        <g transform="matrix(0.822832,0,0,0.822832,709.777,7.55218)">
            <path d="M1272.05,674.812C1499.53,835.027 1607.48,922.22 1675.22,1041.43C1723.89,1127.11 1751.88,1229.53 1787.34,1388.25C1790.08,1400.52 1782.34,1412.71 1770.07,1415.46C1757.8,1418.2 1745.6,1410.46 1742.86,1398.18C1708.72,1245.33 1682.47,1146.46 1635.59,1063.95C1565.12,939.91 1448.2,853.328 1192.22,674.506C1185.15,669.567 1181.48,661.06 1182.73,652.526C1183.98,643.992 1189.94,636.895 1198.12,634.189C1202.78,632.652 1215.75,631.4 1234.41,630.715C1269.4,629.431 1329.04,627.93 1385.33,615.835C1433.7,605.439 1480.3,588.206 1501.36,552.694C1507.78,541.876 1521.77,538.303 1532.59,544.719C1543.4,551.134 1546.98,565.125 1540.56,575.942C1513.72,621.203 1456.56,647.142 1394.9,660.392C1352.08,669.594 1307.42,673.077 1272.05,674.812Z" style="fill:rgb(57,57,57);"/>
        </g>
        <g transform="matrix(0.822832,0,0,0.822832,-240.679,113.514)">
            <path d="M867.564,508.966C872.565,509.904 878.128,511.027 883.652,512.3C938.081,524.838 1038.15,550.195 1183.66,557.924C1279.23,563.001 1363.1,553.858 1428.24,557.585C1465.68,559.727 1496.33,565.57 1517.64,584.486C1625.49,680.227 1664.22,725.151 1698.14,821.779C1752.85,977.648 1766.48,1152.17 1732.17,1567.44C1699.2,1966.45 1601.14,2179.78 1567.47,2247.93C1098.65,2079.63 1001.19,2085.49 540.235,1885.68C797.532,1384.83 866.532,1191.59 867.564,508.966Z" style="fill:url(#_Linear2);"/>
        </g>
        <g transform="matrix(0.822832,0,0,0.822832,-240.679,113.514)">
            <path d="M867.564,508.966C872.565,509.904 878.128,511.027 883.652,512.3C938.081,524.838 1038.15,550.195 1183.66,557.924C1235.49,560.678 1299.11,542.375 1366.66,541.807C1423.66,541.328 1486.52,558.562 1516.34,560.268C1532.23,561.177 1498.38,581.054 1460.16,619.357C1438.29,641.268 1259.32,638.277 1241.88,659.515C1217.98,688.625 1350.41,751.324 1357.5,757.619C1465.35,853.361 1524.75,883.095 1577.12,946.742C1626.33,1006.56 1635.93,1024.92 1676.47,1098.89C1703.3,1147.83 1749.64,1225.76 1745.88,1325.01C1743.21,1395.64 1738.61,1475.65 1732.17,1567.44C1719.5,1748.03 1693.75,1863.94 1667.1,1965.65C1520.96,1431.76 1351.29,1275.5 1213.33,1146.42C1061.16,1004.04 900.738,1095.63 816.803,1207.29C845.021,857.235 860.76,781.286 867.564,508.966Z" style="fill-opacity:0.19;"/>
        </g>
        <g transform="matrix(0.822832,0,0,0.822832,-240.679,113.514)">
            <path d="M496.791,1903.54C490.267,1896.67 488.451,1886.15 493.029,1877.26C753.442,1371.28 821.628,1184.24 821.742,494.988C821.743,493.058 821.982,491.183 822.433,489.391C822.43,489.38 822.427,489.368 822.423,489.356C819.15,477.139 826.411,464.563 838.628,461.289C844.793,459.637 856.312,459.73 873.007,463.054C919.211,472.253 1023.65,503.527 1186.09,512.156C1281.74,517.236 1365.66,508.097 1430.86,511.827C1480.32,514.656 1519.92,525.22 1548.07,550.21C1664.23,653.325 1704.85,702.529 1741.38,806.599C1797.49,966.446 1813.03,1145.35 1777.85,1571.22C1740.43,2024.06 1620.69,2243.16 1600.1,2285.21C1598.02,2289.45 1594.81,2292.77 1591,2294.97C1585.12,2299 1577.45,2300.24 1570.23,2297.64C1080.33,2120.67 988.591,2130.78 510.493,1922.74C502.467,1919.24 497.449,1911.7 496.791,1903.54ZM867.564,508.966C866.532,1191.59 797.532,1384.83 540.235,1885.68C1001.19,2085.49 1098.65,2079.63 1567.47,2247.93C1601.14,2179.78 1699.2,1966.45 1732.17,1567.44C1766.48,1152.17 1752.85,977.648 1698.14,821.779C1664.22,725.151 1625.49,680.227 1517.64,584.486C1496.33,565.57 1465.68,559.727 1428.24,557.585C1363.1,553.858 1279.23,563.001 1183.66,557.924C1038.15,550.195 938.081,524.838 883.652,512.3C878.128,511.027 872.565,509.904 867.564,508.966Z" style="fill:rgb(57,57,57);stroke:rgb(57,57,57);stroke-width:25.32px;"/>
        </g>
        <g transform="matrix(0.822832,0,0,0.822832,-240.679,113.514)">
            <path d="M1272.05,674.812C1499.53,835.027 1607.48,922.22 1675.22,1041.43C1723.89,1127.11 1751.88,1229.53 1787.34,1388.25C1790.08,1400.52 1782.34,1412.71 1770.07,1415.46C1757.8,1418.2 1745.6,1410.46 1742.86,1398.18C1708.72,1245.33 1682.47,1146.46 1635.59,1063.95C1565.12,939.91 1448.2,853.328 1192.22,674.506C1185.15,669.567 1181.48,661.06 1182.73,652.526C1183.98,643.992 1189.94,636.895 1198.12,634.189C1202.78,632.652 1215.75,631.4 1234.41,630.715C1269.4,629.431 1329.04,627.93 1385.33,615.835C1433.7,605.439 1480.3,588.206 1501.36,552.694C1507.78,541.876 1521.77,538.303 1532.59,544.719C1543.4,551.134 1546.98,565.125 1540.56,575.942C1513.72,621.203 1456.56,647.142 1394.9,660.392C1352.08,669.594 1307.42,673.077 1272.05,674.812Z" style="fill:rgb(57,57,57);"/>
        </g>
        <g transform="matrix(1,0,0,1,-22.7382,36.9934)">
            <path d="M1629.33,1601.61C1635.91,1587.53 1763.23,1446.14 1883.42,1162.5C1644.56,1133.05 1572.88,1123.6 1389.49,1092.98C1443.31,1143.37 1467.69,1172.77 1516.63,1225.33C1476.87,1239.48 1361.77,1292.31 1175.91,1286.92C1027.06,1282.6 820.753,1234.08 661.261,1149.41C670.096,1164.51 710.462,1353.52 1092.73,1460.48C1319.79,1524.01 1559.44,1439.75 1614.19,1418.73C1621.96,1510.43 1620.19,1529.69 1629.33,1601.61Z" style="fill:rgb(255,157,0);"/>
            <path d="M1606.6,1604.5C1598.5,1540.74 1598.9,1518.16 1593.75,1450.49C1506.34,1480.45 1291.45,1539.88 1086.56,1482.55C889.62,1427.44 781.06,1350.63 720.29,1286.22C659.173,1221.45 646.058,1168.8 641.48,1160.98C636.308,1152.13 637.633,1140.93 644.726,1133.54C651.82,1126.15 662.958,1124.36 672.007,1129.17C828.377,1212.18 1030.64,1259.78 1176.58,1264.01C1321.48,1268.22 1422.27,1236.02 1476.72,1215.88C1442.17,1178.19 1418.01,1151.08 1373.83,1109.7C1366.45,1102.8 1364.47,1091.88 1368.95,1082.82C1373.42,1073.77 1383.3,1068.71 1393.27,1070.37C1576.29,1100.94 1647.83,1110.36 1886.22,1139.76C1893.36,1140.64 1899.67,1144.82 1903.27,1151.05C1906.86,1157.27 1907.33,1164.83 1904.52,1171.45C1784.13,1455.54 1656.68,1597.19 1650.1,1611.3C1645.79,1620.55 1635.88,1625.83 1625.79,1624.26C1615.71,1622.68 1607.88,1614.63 1606.6,1604.5ZM1645.95,1541.34C1691.35,1479.32 1771.43,1360.78 1850.26,1181.5C1666.34,1158.76 1585.96,1148.2 1457.05,1127.33C1481.64,1152.89 1502.75,1176.79 1533.4,1209.71C1538.66,1215.35 1540.72,1223.27 1538.89,1230.76C1537.06,1238.26 1531.58,1244.33 1524.32,1246.91C1483.58,1261.41 1365.64,1315.35 1175.25,1309.83C1041.47,1305.94 862.168,1267.06 710.167,1198.77C720.479,1215.41 734.48,1234.48 753.627,1254.77C810.816,1315.38 913.575,1386.55 1098.91,1438.41C1319.72,1500.19 1552.73,1417.78 1605.97,1397.33C1612.7,1394.75 1620.25,1395.48 1626.35,1399.31C1632.46,1403.13 1636.41,1409.61 1637.02,1416.79C1642.24,1478.4 1643.13,1507.14 1645.95,1541.34Z" style="fill:rgb(57,57,57);"/>
        </g>
    </g>
    <defs>
        <linearGradient id="_Linear1" x1="0" y1="0" x2="1" y2="0" gradientUnits="userSpaceOnUse" gradientTransform="matrix(-622.147,-2017.66,2017.66,-622.147,1516.57,2396.34)"><stop offset="0" style="stop-color:rgb(167,252,255);stop-opacity:1"/><stop offset="0.51" style="stop-color:rgb(45,207,212);stop-opacity:1"/><stop offset="1" style="stop-color:rgb(3,191,197);stop-opacity:1"/></linearGradient>
        <linearGradient id="_Linear2" x1="0" y1="0" x2="1" y2="0" gradientUnits="userSpaceOnUse" gradientTransform="matrix(-708.745,-2114.66,2114.66,-708.745,1450.39,2394.33)"><stop offset="0" style="stop-color:rgb(171,255,161);stop-opacity:1"/><stop offset="0.47" style="stop-color:rgb(147,247,135);stop-opacity:1"/><stop offset="1" style="stop-color:rgb(140,245,128);stop-opacity:1"/></linearGradient>
    </defs>
</svg>
