<svg xmlns="http://www.w3.org/2000/svg" viewBox="0 0 751 649.667">
  <path d="M699 565Q713 556 742.5 525.0Q772 494 786 475Q785 434 755.0 314.5Q725 195 724 182Q720 135 706.0 62.5Q692 -10 690 -65Q652 -66 568.5 -67.0Q485 -68 446 -69Q326 -71 266 -67Q257 -67 225.5 -64.5Q194 -62 186.5 -62.0Q179 -62 146 -63L39 -66Q37 -64 36.0 -55.5Q35 -47 35.0 -34.0Q35 -21 35.0 -9.5Q35 2 35.5 14.5Q36 27 36 31Q38 173 38 173Q44 376 39 580ZM82 541 165 443Q218 444 291.0 445.5Q364 447 542.5 448.5Q721 450 732 446Q690 500 654 530ZM408 218Q433 218 452.0 242.5Q471 267 472 297Q472 320 459.5 342.5Q447 365 426 369Q400 375 376.5 354.0Q353 333 349 304Q345 274 363.5 246.5Q382 219 408 218ZM411 328Q423 328 431.0 316.0Q439 304 438 290Q436 277 425.5 267.5Q415 258 403 261Q394 263 388.0 273.0Q382 283 383 293Q383 306 391.5 317.5Q400 329 411 328ZM345 50 400 49 421 161 365 162Z" transform="translate(-35 580) scale(1 -1)" fill="currentColor"/>
</svg>
