<?xml version="1.0" encoding="UTF-8" standalone="no"?>
<!DOCTYPE svg PUBLIC "-//W3C//DTD SVG 1.1//EN" "http://www.w3.org/Graphics/SVG/1.1/DTD/svg11.dtd">
<svg width="100%" height="100%" viewBox="0 0 617 439" version="1.1" xmlns="http://www.w3.org/2000/svg" xmlns:xlink="http://www.w3.org/1999/xlink" xml:space="preserve" xmlns:serif="http://www.serif.com/" style="fill-rule:evenodd;clip-rule:evenodd;stroke-linejoin:round;stroke-miterlimit:2;">
    <g id="Artboard1" transform="matrix(1,0,0,1,0,-62)">
        <rect x="0" y="62" width="617" height="439" style="fill:none;"/>
        <g transform="matrix(1,0,0,-1,-35,570)">
            <path d="M515,69C479.667,69 445,76 411,90C405,92 401.5,94 400.5,96C399.5,98 398.667,102.333 398,109C397.333,119.667 396.833,135.167 396.5,155.5C396.167,175.833 396,187.667 396,191L396,292C396,304 395.667,318.667 395,336L392,494C392,500 392.833,503.833 394.5,505.5C396.167,507.167 399.667,508 405,508L456,508C463.333,507.333 467.667,506.167 469,504.5C470.333,502.833 471.333,498.667 472,492C472,482 472.333,464.5 473,439.5C473.667,414.5 474,397.333 474,388C474,384.667 474.333,374.333 475,357C476.333,357 478.167,357.5 480.5,358.5C482.833,359.5 484.667,360.333 486,361C487.333,361.667 488.333,362 489,362C504.333,370 520.667,374 538,374C557.333,374 576,368.333 594,357C598,353.667 602,350.333 606,347C629.333,318.333 643.333,289.667 648,261C650.667,245.667 652,229 652,211C652,197.667 651.333,185.333 650,174C648.667,156 638.667,135.333 620,112C614,105.333 609.333,100.333 606,97C592.667,83 571.333,74 542,70C536,69.333 527,69 515,69ZM276,77C269.333,77 265.667,80 265,86C263.667,92.667 261.667,102.167 259,114.5C256.333,126.833 255,133.667 255,135C253,142.333 251.667,146.333 251,147L171,147C169,147 166,147.167 162,147.5C158,147.833 155,148 153,148L145,148C144.333,146.667 143.667,144.333 143,141C134.333,118.333 128.333,101.333 125,90C122.333,82.667 118.333,79 113,79L83,79C68.333,79.667 56.667,80 48,80C39.333,80.667 35,82.333 35,85C35,86.333 36,89.667 38,95C44,113.667 54.333,147 69,195C85,247 97.667,286.667 107,314C108.333,317.333 110.833,325.167 114.5,337.5C118.167,349.833 122,362.167 126,374.5C130,386.833 134,398 138,408C146.667,431.333 154,451 160,467C160,467.667 160.333,468.667 161,470C161.667,473.333 162.667,475.5 164,476.5C165.333,477.5 168,478 172,478L206,478C222,478 232,477.667 236,477C240,477 243.167,476 245.5,474C247.833,472 250.333,467.333 253,460C253.667,456.667 254.5,453.333 255.5,450C256.5,446.667 257.667,443.167 259,439.5C260.333,435.833 261.333,432.667 262,430C276.667,384 293.333,326.333 312,257C315.333,243.667 320,225.333 326,202C332,178.667 336.333,162.333 339,153C342.333,142.333 347.667,122.333 355,93C355.667,90.333 356,88.333 356,87C356,82.333 352.333,79.667 345,79C343.667,79 330,78.667 304,78C302.667,78 298.667,77.833 292,77.5C285.333,77.167 280,77 276,77ZM195,225L232,226C228.667,238.667 223.167,261.167 215.5,293.5C207.833,325.833 203,347 201,357L198,357C194,343.667 187.5,319.5 178.5,284.5C169.5,249.5 164.333,230 163,226C166.333,226 171.5,225.833 178.5,225.5C185.5,225.167 191,225 195,225ZM514,150C524.667,150 534.833,154.167 544.5,162.5C554.167,170.833 560.667,180.333 564,191C566,197.667 567,205 567,213C567,230.333 562.333,246 553,260C543,276 531,284 517,284C501,284 490,282.333 484,279L484,154C496,151.333 506,150 514,150Z" style="fill-rule:nonzero;"/>
        </g>
    </g>
</svg>
