<?xml version="1.0" encoding="UTF-8" standalone="no"?>
<!DOCTYPE svg PUBLIC "-//W3C//DTD SVG 1.1//EN" "http://www.w3.org/Graphics/SVG/1.1/DTD/svg11.dtd">
<svg width="100%" height="100%" viewBox="0 0 2400 2400" version="1.1" xmlns="http://www.w3.org/2000/svg" xmlns:xlink="http://www.w3.org/1999/xlink" xml:space="preserve" xmlns:serif="http://www.serif.com/" style="fill-rule:evenodd;clip-rule:evenodd;stroke-linejoin:round;stroke-miterlimit:2;">
    <g transform="matrix(1,0,0,1,0,-78.1373)">
        <path d="M2066.16,1093.22C2099.68,1113.87 2122.99,1144.14 2127.27,1176.87C2155.13,1390.27 2200.08,1736.95 2253.88,2164.14C2261.51,2224.79 2190.89,2274.86 2095.22,2275.22L272.651,2282.22C176.809,2282.59 108.304,2232.35 118.245,2170.96C172.143,1838.12 227.074,1504.21 282.882,1170.26C287.861,1140.46 308.061,1112.84 336.946,1092.56C362.435,637.429 740.075,275.697 1201.54,275.697C1663.22,275.697 2041,637.776 2066.16,1093.22Z" style="fill:rgb(173,221,220);"/>
        <path d="M2166.39,1040.1C2202.31,1075.37 2224.75,1118.94 2230.56,1163.38C2258.43,1376.88 2303.41,1723.73 2357.23,2151.13L2357.19,2195.28L2346.45,2237.02L2327.19,2273.39L2302.11,2303.42C2258.71,2346.32 2184.99,2379.05 2095.62,2379.39L273.051,2386.39C98.43,2387.06 -2.694,2266.16 15.418,2154.31C69.343,1821.29 124.303,1487.22 180.14,1153.09C186.74,1113.59 206.234,1075.1 236.414,1042.65C286.112,553.669 699.535,171.53 1201.54,171.53C1702.66,171.53 2115.52,552.343 2166.39,1040.1ZM2066.16,1093.22C2041,637.776 1663.22,275.697 1201.54,275.697C740.075,275.697 362.435,637.429 336.946,1092.56C308.061,1112.84 287.861,1140.46 282.882,1170.26C227.074,1504.21 172.143,1838.12 118.245,2170.96C108.304,2232.35 176.809,2282.59 272.651,2282.22L2095.22,2275.22C2190.89,2274.86 2261.51,2224.79 2253.88,2164.14C2200.08,1736.95 2155.13,1390.27 2127.27,1176.87C2122.99,1144.14 2099.68,1113.87 2066.16,1093.22Z" style="fill:white;"/>
    </g>
    <g transform="matrix(1,0,0,1,0,-78.1373)">
        <path d="M2066.16,1093.22C2099.68,1113.87 2122.99,1144.14 2127.27,1176.87C2155.13,1390.27 2200.08,1736.95 2253.88,2164.14C2261.51,2224.79 2190.89,2274.86 2095.22,2275.22L272.651,2282.22C176.809,2282.59 108.304,2232.35 118.245,2170.96C172.143,1838.12 227.074,1504.21 282.882,1170.26C287.861,1140.46 308.061,1112.84 336.946,1092.56C362.435,637.429 740.075,275.697 1201.54,275.697C1663.22,275.697 2041,637.776 2066.16,1093.22Z" style="fill:rgb(173,221,220);"/>
        <path d="M2066.16,1093.22C2099.68,1113.87 2122.99,1144.14 2127.27,1176.87C2155.13,1390.27 2200.08,1736.95 2253.88,2164.14C2261.51,2224.79 2190.89,2274.86 2095.22,2275.22L272.651,2282.22C176.809,2282.59 108.304,2232.35 118.245,2170.96C172.143,1838.12 227.074,1504.21 282.882,1170.26C287.861,1140.46 308.061,1112.84 336.946,1092.56C362.435,637.429 740.075,275.697 1201.54,275.697C1663.22,275.697 2041,637.776 2066.16,1093.22ZM2028.72,1095.29C2004.65,659.576 1643.22,313.197 1201.54,313.197C760.066,313.197 398.772,659.243 374.387,1094.66C373.745,1106.12 367.887,1116.66 358.489,1123.26C338.432,1137.33 323.327,1155.75 319.869,1176.44C264.072,1510.33 209.151,1844.17 155.263,2176.96C152.527,2193.85 162.445,2208.27 177.781,2219.39C200.306,2235.7 233.768,2244.87 272.507,2244.72L2095.07,2237.73C2134.14,2237.58 2168.31,2228.06 2191.72,2211.61C2207.84,2200.28 2218.82,2185.88 2216.67,2168.82C2162.89,1741.7 2117.94,1395.08 2090.08,1181.73C2087.14,1159.16 2069.6,1139.38 2046.49,1125.15C2036.04,1118.7 2029.4,1107.55 2028.72,1095.29Z" style="fill:rgb(57,57,57);"/>
    </g>
    <g transform="matrix(1.09095,0,0,1.09095,-104.253,-216.775)">
        <g>
            <g transform="matrix(0.946948,0,0,0.946948,635.448,617.584)">
                <circle cx="595.173" cy="589.249" r="697.244" style="fill:white;"/>
                <path d="M595.173,-107.995C979.992,-107.995 1292.42,204.43 1292.42,589.249C1292.42,974.068 979.992,1286.49 595.173,1286.49C210.354,1286.49 -102.071,974.068 -102.071,589.249C-102.071,204.43 210.354,-107.995 595.173,-107.995ZM595.173,-51.529C241.518,-51.529 -45.605,235.594 -45.605,589.249C-45.605,942.904 241.518,1230.03 595.173,1230.03C948.828,1230.03 1235.95,942.904 1235.95,589.249C1235.95,235.594 948.828,-51.529 595.173,-51.529Z" style="fill:rgb(45,45,45);"/>
            </g>
            <g transform="matrix(3.75414,0,0,1.49177,691.757,107.26)">
                <path d="M-17.179,731.47C-17.204,728.615 -17.217,725.753 -17.217,722.884C-17.217,718.87 -17.192,714.871 -17.143,710.887L24.91,710.887C24.842,714.865 24.808,718.864 24.808,722.884C24.808,725.756 24.826,728.618 24.86,731.47L-17.179,731.47ZM37.89,591.769L1.482,538.871C2.796,532.847 4.172,526.922 5.609,521.101L42.029,574.016C40.565,579.792 39.184,585.713 37.89,591.769ZM76.777,487.387L55.756,395.76C58.079,392.184 60.443,388.76 62.845,385.495L83.871,477.14C81.452,480.34 79.086,483.759 76.777,487.387ZM131.216,445.616L131.216,339.812C132.49,339.733 133.769,339.693 135.051,339.693C136.504,339.693 137.952,339.744 139.395,339.846L139.395,445.663C137.954,445.522 136.506,445.451 135.051,445.451C133.767,445.451 132.489,445.507 131.216,445.616ZM187.555,478.92L208.955,387.838C211.341,391.18 213.687,394.679 215.992,398.329L194.592,489.408C192.303,485.701 189.955,482.202 187.555,478.92ZM228.201,574.52L264.618,521.609C266.051,527.435 267.424,533.366 268.734,539.394L232.324,592.296C231.035,586.233 229.66,580.304 228.201,574.52ZM245.192,710.887L287.245,710.887C287.294,714.871 287.319,718.87 287.319,722.884C287.319,725.753 287.306,728.615 287.281,731.47L245.242,731.47C245.277,728.618 245.294,725.756 245.294,722.884C245.294,718.864 245.26,714.865 245.192,710.887ZM232.802,851.198L269.222,904.113C267.927,910.164 266.57,916.117 265.153,921.968L228.745,869.069C230.182,863.252 231.536,857.291 232.802,851.198ZM194.023,957.274L215.049,1048.92C212.733,1052.53 210.377,1055.98 207.982,1059.28L186.96,967.654C189.369,964.409 191.725,960.945 194.023,957.274ZM139.395,1000.11L139.395,1105.92C137.952,1106.02 136.504,1106.07 135.051,1106.07C133.769,1106.07 132.49,1106.04 131.216,1105.95L131.216,1000.15C132.489,1000.26 133.767,1000.32 135.051,1000.32C136.506,1000.32 137.954,1000.25 139.395,1000.11ZM82.446,966.709L61.046,1057.79C58.662,1054.44 56.316,1050.94 54.013,1047.28L75.413,956.202C77.701,959.915 80.047,963.421 82.446,966.709ZM41.483,869.576L5.073,922.478C3.652,916.633 2.291,910.684 0.993,904.639L37.41,851.727C38.682,857.814 40.041,863.767 41.483,869.576Z" style="fill:rgb(180,178,177);"/>
            </g>
            <g transform="matrix(0.697936,0.182321,-0.182321,0.697936,578.126,134.619)">
                <path d="M1309.29,1169.27C1309.3,1169.89 1309.3,1170.5 1309.3,1171.12C1309.3,1229.97 1261.52,1277.75 1202.67,1277.75C1143.81,1277.75 1096.03,1229.97 1096.03,1171.12C1096.03,1152.16 1100.99,1134.36 1109.67,1118.92L1109.41,1118.85L1340.93,676.239L1309.29,1169.27Z" style="fill:rgb(255,0,5);"/>
            </g>
        </g>
    </g>
</svg>
