<?xml version="1.0" encoding="UTF-8" standalone="no"?>
<!DOCTYPE svg PUBLIC "-//W3C//DTD SVG 1.1//EN" "http://www.w3.org/Graphics/SVG/1.1/DTD/svg11.dtd">
<svg width="100%" height="100%" viewBox="0 0 2400 2400" version="1.1" xmlns="http://www.w3.org/2000/svg" xmlns:xlink="http://www.w3.org/1999/xlink" xml:space="preserve" xmlns:serif="http://www.serif.com/" style="fill-rule:evenodd;clip-rule:evenodd;stroke-linecap:round;stroke-linejoin:round;stroke-miterlimit:1.5;">
    <g transform="matrix(0.900485,0,0,0.900485,1656.8,281.514)">
        <path d="M-460.27,1164.31C-538.174,1441.68 -804.543,1591.26 -1078.4,1591.26C-1080.16,1591.26 -1081.91,1591.26 -1083.66,1591.24C-1085.35,1591.26 -1087.05,1591.26 -1088.74,1591.26C-1405.95,1591.26 -1678.47,1345.64 -1680.69,1012.52C-1680.71,1009.86 -1680.71,1007.21 -1680.69,1004.56C-1678.44,666.947 -1390.12,406.235 -1078.41,407.863C-1077.64,407.867 -1076.88,407.872 -1076.11,407.879C-1073.38,407.854 -1070.63,407.848 -1067.89,407.863C-773.495,409.373 -487.293,608.288 -443.345,912.842L-209.202,903.639C-220.029,867.187 -235.996,813.64 -253.496,755.673C-257.811,741.38 -253.117,725.894 -241.593,716.402C-230.068,706.91 -213.97,705.27 -200.768,712.244C-82.679,774.627 24.438,839.72 117.1,900.499C161.941,836.052 230.781,789.528 310.63,773.917C302.678,754.241 296.728,733.221 292.378,712.546C278.891,648.45 280.338,588.31 280.338,588.31C280.58,578.098 289.068,570.003 299.28,570.245C309.492,570.487 317.587,578.975 317.345,589.187C317.345,589.187 316.037,645.211 328.602,704.924C333.168,726.622 339.487,748.904 348.552,768.932C353.198,768.612 357.872,768.396 362.573,768.286C371.582,719.099 391.842,672.744 447.034,641.373C577.317,567.32 672.548,663.425 679.365,670.582C680.156,671.388 680.88,672.274 681.523,673.235C682.552,674.765 683.325,676.411 683.846,678.115C684.767,681.102 684.888,684.194 684.308,687.124C683.733,690.056 682.448,692.87 680.462,695.285C679.334,696.664 677.994,697.894 676.462,698.919C675.561,699.524 674.62,700.041 673.651,700.471L482.763,789.569C596.893,834.614 677.733,945.941 677.733,1076C677.733,1245.88 539.812,1383.8 369.933,1383.8C250.848,1383.8 147.468,1316.03 96.292,1216.98C-13.854,1281.07 -114.809,1331.52 -203.057,1371.46C-216.398,1377.5 -232.044,1375.11 -242.969,1365.36C-253.894,1355.61 -258.044,1340.33 -253.556,1326.39C-239.034,1281.29 -224.05,1234.04 -209.254,1186.65C-293.213,1178.95 -376.913,1171.5 -460.27,1164.31Z" style="fill:rgb(255,66,71);"/>
        <path d="M198.445,714.21C186.291,646.005 187.822,586.087 187.821,586.116L197.62,543.063L222.202,508.387L258.004,485.475L301.474,477.729L344.527,487.527L379.203,512.109L402.115,547.912L404.147,559.319C596.363,452.253 736.284,596.161 745.403,605.75L758.359,621.673L772.306,650.975L777.075,678.184L775.093,705.016L766.747,730.593L752.011,753.958L727.987,775.779C727.987,775.779 711.121,785.088 712.792,784.328L665.704,806.307C730.651,877.48 770.276,972.15 770.276,1076C770.276,1296.95 590.888,1476.34 369.933,1476.34C249.658,1476.34 141.688,1423.2 68.284,1339.12C-16.187,1385.52 -94.479,1423.9 -164.899,1455.77L-201.056,1466.14L-237.915,1465.81L-273.188,1455.11L-304.589,1434.4L-328.721,1405.55L-343.347,1371.71L-347.855,1335.13L-341.645,1298.03C-338.501,1288.27 -335.335,1278.4 -332.154,1268.45C-353.633,1266.54 -375.092,1264.63 -396.531,1262.75C-509.041,1534.85 -788.889,1683.81 -1078.4,1683.81C-1080.16,1683.81 -1081.91,1683.8 -1083.65,1683.79C-1085.35,1683.8 -1087.04,1683.81 -1088.74,1683.81C-1455.93,1683.81 -1770.66,1398.74 -1773.23,1013.14C-1773.25,1010.07 -1773.25,1007 -1773.23,1003.94C-1770.63,614.251 -1437.73,313.443 -1077.92,315.321L-1076.13,315.333C-1073.23,315.31 -1070.33,315.306 -1067.42,315.321C-756.044,316.919 -454.984,513.366 -369.203,817.314L-332.017,815.852C-335.298,804.942 -338.664,793.766 -342.089,782.42L-347.619,744.501L-342.048,707.394L-326.08,673.437L-300.428,644.97L-267.573,625.248L-231.186,616.082L-193.698,617.724L-157.541,630.417C-64.264,679.693 22.331,730.614 100.597,779.888C129.637,753.463 162.577,731.25 198.445,714.21ZM-460.27,1164.31C-376.913,1171.5 -293.213,1178.95 -209.254,1186.65C-224.05,1234.04 -239.034,1281.29 -253.556,1326.39C-258.044,1340.33 -253.894,1355.61 -242.969,1365.36C-232.044,1375.11 -216.398,1377.5 -203.057,1371.46C-114.809,1331.52 -13.854,1281.07 96.292,1216.98C147.468,1316.03 250.848,1383.8 369.933,1383.8C539.812,1383.8 677.733,1245.88 677.733,1076C677.733,945.941 596.893,834.614 482.763,789.569L673.651,700.471C674.62,700.041 675.561,699.524 676.462,698.919C677.994,697.894 679.334,696.664 680.462,695.285C682.448,692.87 683.733,690.056 684.308,687.124C684.888,684.194 684.767,681.102 683.846,678.115C683.325,676.411 682.552,674.765 681.523,673.235C680.88,672.274 680.156,671.388 679.365,670.582C672.548,663.425 577.317,567.32 447.034,641.373C391.842,672.744 371.582,719.099 362.573,768.286C357.872,768.396 353.198,768.612 348.552,768.932C339.487,748.904 333.168,726.622 328.602,704.924C316.037,645.211 317.345,589.187 317.345,589.187C317.587,578.975 309.492,570.487 299.28,570.245C289.068,570.003 280.58,578.098 280.338,588.31C280.338,588.31 278.891,648.45 292.378,712.546C296.728,733.221 302.678,754.241 310.63,773.917C230.781,789.528 161.941,836.052 117.1,900.499C24.438,839.72 -82.679,774.627 -200.768,712.244C-213.97,705.27 -230.068,706.91 -241.593,716.402C-253.117,725.894 -257.811,741.38 -253.496,755.673C-235.996,813.64 -220.029,867.187 -209.202,903.639L-443.345,912.842C-487.293,608.288 -773.495,409.373 -1067.89,407.863C-1070.63,407.848 -1073.38,407.854 -1076.11,407.879C-1076.88,407.872 -1077.64,407.867 -1078.41,407.863C-1390.12,406.235 -1678.44,666.947 -1680.69,1004.56C-1680.71,1007.21 -1680.71,1009.86 -1680.69,1012.52C-1678.47,1345.64 -1405.95,1591.26 -1088.74,1591.26C-1087.05,1591.26 -1085.35,1591.26 -1083.66,1591.24C-1081.91,1591.26 -1080.16,1591.26 -1078.4,1591.26C-804.543,1591.26 -538.174,1441.68 -460.27,1164.31Z" style="fill:white;"/>
    </g>
    <g transform="matrix(1,0,0,1,350.976,-162.594)">
        <g transform="matrix(0.900485,0,0,0.900485,1305.82,444.107)">
            <circle cx="369.933" cy="1076" r="270.783" style="fill:rgb(255,66,71);"/>
            <path d="M369.933,768.199C539.812,768.199 677.733,906.12 677.733,1076C677.733,1245.88 539.812,1383.8 369.933,1383.8C200.053,1383.8 62.133,1245.88 62.133,1076C62.133,906.12 200.053,768.199 369.933,768.199ZM369.933,805.216C220.484,805.216 99.15,926.55 99.15,1076C99.15,1225.45 220.484,1346.78 369.933,1346.78C519.382,1346.78 640.716,1225.45 640.716,1076C640.716,926.55 519.382,805.216 369.933,805.216Z" style="fill:rgb(54,53,53);"/>
            <g transform="matrix(1.01076,0,0,1,-38.0569,-15.128)">
                <path d="M300.505,897.396C335.998,858.683 444.406,805.782 543.621,841.047" style="fill:rgb(255,66,71);stroke:rgb(54,53,53);stroke-width:36.82px;"/>
            </g>
            <g transform="matrix(1,0,0,1,14.3653,-19.6229)">
                <path d="M284.476,608.372C284.476,608.372 280.651,769.71 346.055,841.188" style="fill:none;stroke:rgb(54,53,53);stroke-width:37.02px;"/>
            </g>
            <g transform="matrix(1,0,0,1,16.9572,9.50342)">
                <path d="M649.193,674.043C649.193,674.043 561.203,578.627 439.223,647.96C372.007,686.166 362.967,749.439 357.924,809.995L649.193,674.043" style="fill:rgb(0,255,33);stroke:rgb(54,53,53);stroke-width:37.02px;"/>
            </g>
        </g>
        <g transform="matrix(0.765699,0,0,1.27487,-126.712,248.066)">
            <path d="M1048.29,935.799C1048,901.147 1047.71,866.495 1047.43,831.843C1259.12,826.845 1470.8,821.848 1682.49,816.85C1677.1,805.877 1648.19,747.119 1614.44,679.974C1856.28,756.706 2058.62,839.306 2199.46,901.077C1977.94,991.346 1777.35,1054.3 1614.13,1098.66C1636.5,1056.94 1659.8,1012.62 1682.31,968.877C1469.31,957.012 1257.65,945.979 1048.29,935.799Z" style="fill:rgb(255,241,0);"/>
            <path d="M1004.75,935.929L1003.89,831.973C1003.78,817.882 1022.27,806.27 1045.72,805.716L1624.85,792.044C1612.12,766.297 1593.34,728.475 1572.76,687.531C1567.69,677.436 1573.21,666.497 1586.76,659.792C1600.32,653.088 1619.25,651.93 1634.77,656.856C1878.82,734.286 2083.01,817.627 2225.14,879.961C2236.57,884.978 2243.23,893.023 2242.99,901.529C2242.74,910.035 2235.62,917.937 2223.9,922.713C1999.92,1013.98 1797.11,1077.62 1632.08,1122.49C1616.39,1126.75 1597.99,1125.06 1585.14,1118.17C1572.3,1111.28 1567.41,1100.5 1572.69,1090.65C1589.77,1058.8 1607.39,1025.42 1624.79,991.948C1430.02,981.214 1236.43,971.179 1044.78,961.86C1022.25,960.765 1004.87,949.501 1004.75,935.929ZM1048.29,935.799C1257.65,945.979 1469.31,957.012 1682.31,968.877C1659.8,1012.62 1636.5,1056.94 1614.13,1098.66C1777.35,1054.3 1977.94,991.346 2199.46,901.077C2058.62,839.306 1856.28,756.706 1614.44,679.974C1648.19,747.119 1677.1,805.877 1682.49,816.85L1047.43,831.843L1048.29,935.799Z" style="fill:rgb(54,53,53);"/>
        </g>
        <g transform="matrix(0.627248,0,0,0.658714,-428.194,569.797)">
            <g transform="matrix(1.3764,0,0,1.3764,91.0403,-441.494)">
                <path d="M817.544,587.218C1148.4,588.863 1444.46,847.653 1444.46,1178.51C1444.46,1509.37 1137.63,1762.57 806.77,1762.57C475.911,1762.57 191.661,1518.61 189.348,1187.76C186.976,848.621 489.863,585.589 817.544,587.218Z" style="fill:rgb(57,178,230);"/>
            </g>
            <g transform="matrix(0.0717286,-0.261947,0.845814,0.231609,448.167,835.098)">
                <path d="M2083.14,694.895C2163.17,665.533 2307.93,820.7 2307.93,975.657C2307.93,1130.61 2159.59,1320.75 2065.43,1295.73C1970.42,1270.49 1931.39,1181.93 1931.39,1026.97C1931.39,872.016 1961.26,739.617 2083.14,694.895Z" style="fill:white;fill-opacity:0.51;"/>
            </g>
            <g transform="matrix(1.40043,0,0,1.3764,86.491,-441.494)">
                <path d="M817.544,587.218C1148.4,588.863 1469.15,826.143 1463.68,1178.98C1457.82,1556.22 1137.63,1762.57 806.77,1762.57C475.911,1762.57 191.661,1518.61 189.348,1187.76C186.976,848.621 489.863,585.589 817.544,587.218ZM817.348,621.85C510.771,620.326 226.482,870.187 228.7,1187.49C230.359,1424.62 388.459,1603.62 601.517,1677.57C666.185,1700.02 764.108,1702.97 836.066,1704.75C1176.08,1713.13 1421.09,1481.87 1421.83,1172.72C1422.65,831.883 1126.91,623.389 817.348,621.85Z" style="fill:rgb(54,53,53);"/>
            </g>
            <g transform="matrix(0.768948,-0.239981,0.327069,0.950264,172.672,470.102)">
                <g transform="matrix(-1.77853,0.303561,0.313006,1.54418,4141.08,-1108.19)">
                    <ellipse cx="1576.06" cy="1023.51" rx="166.598" ry="203.359" style="fill:white;"/>
                </g>
                <g transform="matrix(-1.80169,0.307514,0.324026,1.59854,4172.4,-1159.67)">
                    <path d="M1578.93,818.64C1486.98,818.64 1409.46,911.275 1409.46,1023.51C1409.46,1135.75 1488.28,1227.31 1580.23,1227.31C1672.18,1227.31 1751.01,1138.91 1748.98,1022.7C1747.01,910.413 1670.88,818.64 1578.93,818.64ZM1577.21,838.595C1658.94,838.595 1733.34,923.285 1734.85,1023.09C1736.43,1127.58 1656.24,1212.86 1576.06,1205.51C1494.4,1198.01 1429.73,1120.48 1429.73,1020.72C1429.73,920.956 1495.48,838.595 1577.21,838.595Z" style="fill:rgb(54,53,53);"/>
                </g>
                <g transform="matrix(3.86856,0.591177,-1.00969,3.97122,-2815.05,-3412.02)">
                    <circle cx="1426.3" cy="908.278" r="26.884" style="fill:rgb(62,62,62);"/>
                    <clipPath id="_clip1">
                        <circle cx="1426.3" cy="908.278" r="26.884"/>
                    </clipPath>
                    <g clip-path="url(#_clip1)">
                        <g transform="matrix(0.379648,0.138585,-0.126683,0.328975,1152.66,437.048)">
                            <circle cx="1057.46" cy="955.9" r="24.177" style="fill:white;"/>
                        </g>
                    </g>
                </g>
            </g>
            <g transform="matrix(0.916782,0,0,1,275.881,25.9606)">
                <g transform="matrix(-2.00896,-0.113955,-0.101854,1.60325,4238.46,-490.751)">
                    <ellipse cx="1576.06" cy="1023.51" rx="166.598" ry="203.359" style="fill:white;"/>
                </g>
                <g transform="matrix(3.90883,-0.368816,0.441414,4.04136,-4841.88,-2120.09)">
                    <circle cx="1426.3" cy="908.278" r="26.884" style="fill:rgb(62,62,62);"/>
                    <clipPath id="_clip2">
                        <circle cx="1426.3" cy="908.278" r="26.884"/>
                    </clipPath>
                    <g clip-path="url(#_clip2)">
                        <g transform="matrix(0.379648,0.138585,-0.126683,0.328975,1152.66,437.048)">
                            <circle cx="1057.46" cy="955.9" r="24.177" style="fill:white;"/>
                        </g>
                    </g>
                </g>
                <g transform="matrix(-2.00896,-0.113955,-0.101854,1.60325,4238.46,-490.751)">
                    <path d="M1576.06,820.152C1484.11,820.152 1409.46,911.275 1409.46,1023.51C1409.46,1135.75 1484.11,1226.87 1576.06,1226.87C1668.01,1226.87 1742.66,1135.75 1742.66,1023.51C1742.66,911.275 1668.01,820.152 1576.06,820.152ZM1576.06,840.906C1658.48,840.906 1725.35,918.465 1725.35,1019.08C1725.35,1119.69 1658.48,1206.12 1576.06,1206.12C1493.64,1206.12 1422.03,1126.97 1422.03,1026.36C1422.03,925.748 1493.64,840.906 1576.06,840.906Z" style="fill:rgb(54,53,53);"/>
                </g>
            </g>
            <g transform="matrix(1.12784,0,0,1.23258,-77.3363,-820.015)">
                <path d="M1424.05,2184.65C1398.51,2190.01 1354.96,2202.19 1291.01,2207.94C1226.85,2213.7 1137.6,2209.73 1113.39,2209.73C720.773,2209.73 425.618,1948.99 425.618,1613.36C425.618,1557.53 445.501,1497.81 462.012,1446.43C461.089,1460.06 462.242,1475.83 462.242,1489.65C462.242,1876.19 783.841,2185.42 1234.46,2185.42C1269.82,2185.42 1373.17,2185.54 1424.05,2184.65Z" style="fill:rgb(14,131,181);"/>
            </g>
        </g>
    </g>
</svg>
